<?xml version="1.0" encoding="utf-8"?>
<!-- Generator: Adobe Illustrator 22.1.0, SVG Export Plug-In . SVG Version: 6.00 Build 0)  -->
<svg version="1.1" id="Layer_1" xmlns="http://www.w3.org/2000/svg" xmlns:xlink="http://www.w3.org/1999/xlink" x="0px" y="0px"
	 viewBox="0 0 169.5 145.5" style="enable-background:new 0 0 169.5 145.5;" xml:space="preserve">
<style type="text/css">
	.st0{fill:#FFFFFF;}
	.st1{fill:#DED5BF;}
	.st2{fill:#98080C;}
	.st3{fill:#ED1C24;}
	.st4{fill:#0072BC;}
	.st5{fill:#00497F;}
	.st6{fill:#947F3A;}
	.st7{clip-path:url(#SVGID_2_);fill:url(#SVGID_3_);}
	.st8{fill:#B9E5FB;}
	.st9{fill:#8B2A2E;}
	.st10{fill:#C3B48B;}
	.st11{fill:#005F9F;}
	.st12{fill:#76672B;}
	.st13{fill:#231F20;}
</style>
<g>
	<g>
		<path class="st0" d="M13,135c-0.1,1.9-0.6,3.4-1.6,4.5c-1,1.1-2.3,1.6-3.9,1.6c-1.8,0-3.5-0.9-5.1-2.7c-1.6-1.8-2.4-3.8-2.4-6
			c0-1.3,0.4-2.9,1.1-4.6c0.7-1.7,1.7-3,2.9-4.1c1.2-1,2.5-1.5,3.9-1.5c1.3,0,2.4,0.4,3.2,1.1c0.8,0.7,1.2,1.5,1.2,2.4
			c0,0.8-0.4,1.6-1.1,2.3c-0.8,0.7-1.6,1-2.5,1c-0.5,0-1.1-0.2-1.6-0.6c-0.5-0.4-0.8-0.9-0.8-1.6c0-0.6,0.2-1,0.5-1.4
			s0.8-0.5,1.3-0.5c0.4,0,0.7,0.1,1,0.4c0.3,0.3,0.5,0.5,0.5,0.8c0,0.4-0.1,0.8-0.3,1c-0.2,0.3-0.4,0.4-0.6,0.4
			c-0.3,0-0.5-0.1-0.6-0.4c0.2,0,0.4-0.1,0.6-0.2c0.2-0.2,0.3-0.3,0.3-0.5c0-0.6-0.2-0.9-0.5-0.9c-0.4,0-0.8,0.2-1.1,0.5
			c-0.3,0.3-0.5,0.7-0.5,1.1c0,0.3,0.2,0.6,0.5,1c0.3,0.3,0.7,0.5,1.2,0.5c0.6,0,1.1-0.3,1.5-0.9c0.4-0.6,0.6-1.3,0.6-2
			c0-0.8-0.3-1.4-0.8-2c-0.5-0.6-1.2-0.9-2.1-0.9c-1.8,0-3.3,0.8-4.4,2.5c-1.1,1.6-1.6,3.6-1.6,6c0,2.6,0.6,4.8,1.9,6.5
			s2.8,2.6,4.6,2.6c1.1,0,1.9-0.3,2.5-1c0.6-0.7,0.9-1.6,0.9-2.6c0-0.4,0-1-0.1-1.8L13,135z"/>
		<path class="st0" d="M23.2,139.6c-0.5,0-0.7-0.2-0.7-0.7c0-0.2,0.1-0.5,0.4-0.7c0.2-0.2,0.5-0.3,0.7-0.3c0.2,0,0.4,0.1,0.8,0.2
			c0.3,0.2,0.5,0.4,0.5,0.9c0,0.8-0.2,1.4-0.7,1.9c-0.4,0.5-0.9,0.8-1.5,0.8c-0.4,0-0.8-0.2-1.1-0.7c-0.4-0.5-0.6-1-0.6-1.4
			c0-0.8,0.2-1.7,0.7-2.9c0.5-1.2,0.7-2.2,0.7-3.1c0-2.9-1.1-4.4-3.2-4.4c-0.7,0-1.4,0.4-2,1.1c-0.6,0.8-0.9,1.3-0.9,1.8
			c0.1,2.8,0.1,5.5,0.2,8.3c0.5,0,1.1,0,2,0l-0.1,0.7c-0.5-0.1-1.1-0.1-1.9-0.1c-1.2,0-2.2,0.1-2.9,0.2l0-0.6c0.9,0,1.6,0,2.2-0.1
			c0.1-1.7-0.2-4.7-0.7-9.2c-0.5-4.5-1.1-8-1.7-10.7c-0.4,0.1-1,0.1-1.9,0.2l0-0.5c1.2,0,3-0.3,5.5-0.7l0,0.5
			c-0.7,0.1-1.2,0.2-1.6,0.3c0.1,1,0.2,2.6,0.4,4.7l0.3,6c0.4-0.9,0.9-1.6,1.6-2.1c0.7-0.5,1.4-0.8,2.2-0.8c1.2,0,2.1,0.4,2.9,1.3
			c0.8,0.9,1.1,1.8,1.1,2.8c0,1.3-0.5,2.8-1.6,4.5c-0.3,0.5-0.6,0.9-0.7,1.2c-0.1,0.3-0.2,0.7-0.2,1.2c0,0.6,0.2,1,0.7,1.3
			c0.4,0.2,0.8,0.4,1.1,0.4c0.3,0,0.5-0.1,0.7-0.3c0.2-0.2,0.2-0.5,0.2-0.8c0-0.3-0.1-0.6-0.2-0.9c-0.2-0.3-0.3-0.4-0.5-0.4
			c-0.3,0-0.4,0.3-0.4,0.8C23.1,139.4,23.1,139.5,23.2,139.6"/>
		<path class="st0" d="M29.8,131.4c-0.1,0.4-0.3,0.6-0.6,0.6c-0.2,0-0.4-0.1-0.5-0.2c-0.1-0.1-0.2-0.3-0.2-0.5
			c0-0.3,0.1-0.5,0.3-0.7c0.2-0.2,0.5-0.3,0.7-0.3c1.2,0,1.8,0.3,1.8,1c0,0.6-0.3,1.1-0.9,1.6c-0.6,0.5-1.1,0.7-1.6,0.7
			c-0.5,0-1-0.2-1.3-0.5c-0.4-0.3-0.5-0.7-0.5-1.2c0-1,0.5-2.1,1.4-3.2c1-1.1,1.9-1.6,3-1.6c0.8,0,1.6,0.4,2.1,1.1
			c0.6,0.7,0.9,1.7,0.9,2.8c0,0.8-0.1,1.4-0.3,2c-0.2,0.6-0.5,1.2-1,2c-1.1,1.9-1.7,3.6-1.7,5.2c0,0.2,0,0.4,0,0.6H31l0-1.8
			c-1.1,0.7-1.9,1.1-2.4,1.1c-0.6,0-1.1-0.2-1.5-0.6c-0.4-0.4-0.6-0.9-0.6-1.5c0-0.6,0.3-1.1,0.9-1.5c0.6-0.4,1.2-0.7,1.9-0.7
			c0.5,0,1.3-0.1,2.4-0.2c0.6-1.4,1-2.7,1-3.9c0-2.6-0.6-3.9-1.7-3.9c-1.1,0-1.8,0.4-2.3,1.1c-0.5,0.7-0.7,1.7-0.7,2.9
			c0,0.3,0.1,0.6,0.3,0.9c0.2,0.2,0.4,0.4,0.7,0.4c0.4,0,0.7-0.2,1-0.5c0.3-0.3,0.5-0.7,0.5-1.1c0-0.2-0.1-0.4-0.3-0.6
			c-0.2-0.2-0.4-0.2-0.7-0.2c-0.1,0-0.2,0.1-0.3,0.2c-0.1,0.1-0.1,0.2-0.1,0.3c0,0.2,0.1,0.3,0.3,0.3
			C29.6,131.5,29.7,131.5,29.8,131.4 M31.6,136.2c-0.7,0-1.3,0.1-1.8,0.2c-0.4,0.1-0.8,0.3-1.1,0.6c-0.3,0.3-0.4,0.7-0.4,1.1
			c0,0.4,0.1,0.7,0.3,0.9c0.2,0.2,0.4,0.3,0.7,0.3c0.5,0,1.1-0.3,1.8-1L31.6,136.2z"/>
		<path class="st0" d="M39.1,138.4c-0.4-0.4-0.7-0.6-1-0.6c-0.1,0-0.3,0.1-0.5,0.4c-0.2,0.2-0.3,0.4-0.3,0.6c0,0.4,0.3,0.9,0.8,1.2
			c0.5,0.4,1.1,0.6,1.9,0.6c0.4,0,0.8-0.2,1.2-0.7c0.4-0.5,0.6-1,0.6-1.5c0-0.5-0.2-0.9-0.5-1.5c-0.3-0.5-1.3-1.4-2.9-2.7
			c-0.7-0.5-1.1-1-1.4-1.4c-0.3-0.4-0.5-0.8-0.6-1.3c-0.1-0.5-0.2-1-0.2-1.4c0-0.9,0.3-1.7,1-2.4c0.7-0.7,1.5-1.1,2.5-1.1
			c0.8,0,1.4,0.2,2,0.6c0.6,0.4,0.9,0.9,0.9,1.6c0,0.5-0.2,1-0.6,1.5c-0.4,0.5-0.9,0.7-1.4,0.7c-0.4,0-0.8-0.2-1-0.6
			c-0.3-0.4-0.4-0.8-0.4-1.2c0-0.5,0.3-0.7,0.8-0.7c0.2,0,0.3,0,0.5,0.1c0,0-0.1,0.1-0.1,0.2c-0.3,0.4-0.5,0.7-0.5,1
			c0,0.2,0.2,0.4,0.5,0.5c0.3,0.1,0.6,0.2,0.8,0.2c0.2,0,0.3-0.1,0.5-0.3c0.1-0.2,0.2-0.4,0.2-0.6c0-0.6-0.2-1.2-0.7-1.6
			c-0.4-0.5-1-0.7-1.6-0.7c-0.6,0-1,0.2-1.4,0.7c-0.4,0.4-0.6,0.9-0.6,1.4c0,1.8,0.8,3.2,2.3,4.4c1.7,1.3,2.5,2.6,2.5,3.9
			c0,0.7-0.1,1.4-0.4,1.9c-0.3,0.5-0.7,1-1.1,1.3c-0.4,0.3-0.8,0.6-1,0.6c-0.2,0.1-0.6,0.1-1.1,0.1c-0.6,0-1-0.3-1.4-0.8
			c-0.4-0.6-0.6-1.2-0.6-1.8c0-0.5,0.2-0.9,0.5-1.2c0.3-0.4,0.7-0.6,1.1-0.6c0.3,0,0.5,0.1,0.7,0.2c0.2,0.1,0.3,0.3,0.3,0.5
			C39.3,137.9,39.2,138.1,39.1,138.4"/>
		<path class="st0" d="M52.8,131.8c0.9-2.7,2.3-4,4.2-4c1.3,0,2.5,0.6,3.5,1.7c1,1.1,1.6,2.4,1.6,4c0,1.7-0.5,3.3-1.4,4.8
			c-1,1.5-2,2.3-3,2.3c-0.5,0-0.9-0.2-1.4-0.6c-0.4-0.4-0.7-0.9-0.7-1.3c0-0.4,0.2-0.7,0.6-1c0.4-0.3,0.8-0.4,1.2-0.4
			c0.9,0,1.4,0.3,1.4,0.9c0,0.6-0.3,0.8-1,0.8c-0.3,0-0.5-0.1-0.5-0.2l0.1-0.1c0.1,0,0.2,0.1,0.3,0.1c0.2,0,0.3-0.2,0.3-0.5
			c0-0.4-0.2-0.5-0.5-0.5c-0.2,0-0.4,0.1-0.5,0.4c-0.1,0.3-0.2,0.6-0.2,0.9c0,0.9,0.4,1.3,1.1,1.3c1.7,0,2.6-2.3,2.6-7
			c0-1.1-0.3-2.2-1-3.2c-0.7-1-1.4-1.5-2.3-1.5c-0.7,0-1.4,0.3-2,0.9c-0.6,0.6-1.1,1.3-1.4,2.1c-0.4,0.8-0.5,1.3-0.5,1.4l-0.5,7.1
			l1.4-0.4l0.2,0.6c-0.9,0.2-1.6,0.3-2.1,0.3c-0.4,0-1.1,0-1.9-0.1l0.1-0.6l1.7,0.1c0-0.4,0-0.8,0-1.3c0-3.7-0.3-7.1-1-10.4
			l-1.5,0.3l-0.2-0.5c1.2-0.2,2.5-0.5,3.8-1.2L52.8,131.8z"/>
		<path class="st0" d="M67.6,139.6c0.9-0.5,1.5-0.8,1.9-1c0.4-0.2,0.9-0.5,1.7-0.8c0.8-0.3,1.5-0.5,2.2-0.5c0.6,0,1.2,0.3,1.6,0.8
			c0.4,0.5,0.6,1.2,0.6,2c0,1.3-0.6,2.6-1.9,3.6c-1.3,1.1-2.9,1.6-4.9,1.6c-1.2,0-2.3-0.3-3.2-1c-0.9-0.6-1.3-1.4-1.3-2.3
			c0-1.1,0.8-2.1,2.3-2.9l0.2,0.3c-0.7,0.5-1,1.3-1,2.2c0,0.9,0.3,1.6,0.8,2.3c0.6,0.7,1.3,1,2.3,1c1.7,0,3.1-0.5,4.2-1.5
			c1.1-1,1.6-2,1.6-3c0-0.4-0.1-0.8-0.4-1.1c-0.3-0.3-0.7-0.4-1.1-0.4c-0.7,0-1.3,0.1-2,0.3c-0.6,0.2-1.3,0.5-2.1,0.9
			c-0.8,0.4-1.4,0.8-1.9,1.1l-0.4-0.2c0.2-0.4,0.4-1.2,0.5-2.3c0.1-1.1,0.2-1.9,0.3-2.4c-1-0.3-1.8-0.7-2.4-1.5
			c-0.6-0.7-0.9-1.6-0.9-2.5c0-1.4,0.5-2.7,1.5-3.7c1-1.1,2-1.6,3.2-1.6c0.7,0,1.3,0.2,1.8,0.6c-0.4-0.6-0.6-1.3-0.6-1.9
			c0-0.5,0.2-1,0.6-1.4c0.4-0.4,0.9-0.6,1.5-0.6c0.5,0,0.8,0.1,1.1,0.4c0.3,0.3,0.5,0.6,0.5,0.9c0,0.3-0.1,0.5-0.4,0.8
			c-0.2,0.2-0.5,0.3-0.9,0.3c-0.2,0-0.4-0.2-0.5-0.5c0.2,0.1,0.4,0.1,0.4,0.1c0.3,0,0.4-0.2,0.4-0.7c0-0.3-0.1-0.5-0.2-0.7
			c-0.1-0.2-0.3-0.3-0.5-0.3c-0.4,0-0.7,0.2-1,0.5c-0.2,0.3-0.3,0.8-0.3,1.3c0,0.9,0.1,1.6,0.3,1.9l-0.4,0.2
			c-0.4-0.4-1.1-0.6-1.9-0.6c-1,0-1.8,0.4-2.4,1.3c-0.6,0.9-0.9,1.9-0.9,3.1c0,1.3,0.2,2.3,0.7,3c0.5,0.7,1.1,1.1,1.8,1.1
			c0.9,0,1.6-0.4,2.2-1.3c0.6-0.9,0.9-1.9,0.9-3c0-0.7-0.2-1.4-0.7-2c-0.5-0.6-1-0.9-1.6-0.9c-0.3,0-0.5,0.1-0.7,0.4
			c-0.2,0.2-0.3,0.5-0.3,0.8c0,0.4,0.1,0.7,0.2,1c0.1,0.3,0.3,0.4,0.5,0.4c0.1,0,0.2-0.1,0.4-0.2c0.1-0.1,0.2-0.3,0.2-0.5
			c0-0.2-0.1-0.3-0.2-0.3c-0.2,0-0.3,0.1-0.4,0.2c0-0.2,0.1-0.4,0.2-0.5c0.1-0.1,0.2-0.2,0.3-0.2c0.5,0,0.8,0.2,0.8,0.7
			c0,0.3-0.1,0.5-0.4,0.8c-0.3,0.2-0.6,0.4-0.9,0.4c-0.4,0-0.8-0.1-1.1-0.4c-0.3-0.3-0.4-0.7-0.4-1.1c0-0.3,0.2-0.6,0.6-1
			c0.4-0.4,0.8-0.5,1.3-0.5c0.9,0,1.7,0.3,2.4,1c0.7,0.7,1.1,1.5,1.1,2.4c0,1.2-0.5,2.3-1.4,3.2c-1,0.9-2,1.4-3,1.4
			C67.8,138,67.7,139,67.6,139.6"/>
		<path class="st0" d="M85.2,129.1c-0.1,0.2-0.2,0.2-0.4,0.2c-0.1,0-0.2-0.1-0.3-0.2c-0.1-0.2-0.1-0.3-0.1-0.4
			c0-0.1,0.1-0.3,0.3-0.5c0.2-0.2,0.4-0.3,0.5-0.3c0.2,0,0.4,0.1,0.6,0.4c0.2,0.2,0.3,0.5,0.3,0.7c0,0.5-0.1,0.9-0.4,1.2
			c-0.3,0.3-0.6,0.5-0.9,0.5c-0.4,0-0.7-0.2-1-0.5c-0.3-0.4-0.4-0.8-0.4-1.2c0-0.6,0.3-1.2,0.9-1.8c0.6-0.6,1.3-0.8,2.2-0.8
			c1.3,0,2.5,0.6,3.5,1.7c1,1.1,1.5,2.3,1.5,3.6c0,1.6-0.6,3.1-1.7,4.5c-1.1,1.3-2.4,2-3.9,2c-1.7,0-3.1-0.6-4.3-1.7
			c-1.2-1.1-1.8-2.5-1.8-4c0-1.5,0.5-2.9,1.4-4.1c0.9-1.2,2.1-2,3.5-2.4l0.1,0.3c-1.1,0.2-2,0.9-2.7,2c-0.7,1.1-1,2.4-1,4
			c0,1.6,0.5,2.9,1.4,4c0.9,1.1,2.1,1.6,3.5,1.6c1.2,0,2.1-0.6,2.9-1.7c0.8-1.2,1.1-2.5,1.1-4c0-1.5-0.4-2.7-1.1-3.7
			c-0.7-1-1.7-1.5-2.8-1.5c-0.7,0-1.3,0.2-1.8,0.7c-0.5,0.4-0.7,0.9-0.7,1.4c0,0.3,0.1,0.5,0.3,0.7c0.2,0.2,0.5,0.3,0.7,0.3
			c0.3,0,0.6-0.1,0.8-0.2c0.2-0.2,0.3-0.3,0.3-0.6c0-0.2-0.1-0.3-0.2-0.5c-0.1-0.1-0.3-0.2-0.4-0.2c-0.4,0-0.5,0.1-0.5,0.2
			C84.6,128.8,84.8,128.9,85.2,129.1"/>
		<path class="st0" d="M101,138c-0.7,0.2-1.3,0.4-1.7,0.7l-0.2-2.2c-0.8,1.1-1.7,1.7-2.8,1.7c-0.8,0-1.6-0.3-2.3-1
			c-0.7-0.7-1-1.5-1-2.5c0-0.4,0.1-0.8,0.3-1.3c0.2-0.5,0.5-0.9,0.8-1.2c0.3-0.3,0.5-0.6,0.8-1c0.2-0.4,0.3-0.7,0.3-0.9
			c0-0.7-0.3-1-0.8-1c-0.2,0-0.5,0.1-0.7,0.2c-0.2,0.1-0.3,0.3-0.3,0.5c0,0.1,0.1,0.3,0.2,0.4c0.1,0.1,0.2,0.2,0.4,0.2
			c0.2,0,0.3,0,0.3,0c0,0,0.1-0.1,0.1-0.1c0-0.2-0.1-0.3-0.4-0.3c0.1-0.1,0.2-0.2,0.3-0.2c0.1,0,0.2,0.1,0.3,0.2
			c0.1,0.1,0.1,0.2,0.1,0.4c0,0.2-0.1,0.4-0.3,0.6c-0.2,0.2-0.4,0.3-0.6,0.3c-0.2,0-0.4-0.1-0.5-0.3c-0.2-0.2-0.2-0.4-0.2-0.6
			c0-0.4,0.1-0.8,0.4-1.1c0.3-0.4,0.6-0.5,0.9-0.5c0.3,0,0.6,0.1,0.9,0.4c0.2,0.3,0.3,0.7,0.3,1.1c0,0.6-0.1,1.1-0.4,1.7
			c-0.7,1.2-1,2.1-1,2.7c0,1,0.2,1.7,0.7,2.3c0.5,0.6,1.1,0.8,1.8,0.8c0.9,0,1.7-0.6,2.4-1.9c-0.2-2-0.5-4-1-5.9l-1,0.1l0-0.4
			c1.1,0,2.1-0.2,3-0.5l0.1,0.4l-0.9,0.3c0,2.1,0.1,4.9,0.3,8.3c0.4-0.1,0.8-0.2,1.2-0.4L101,138z"/>
		<path class="st0" d="M103.5,131.6c0.2-0.9,0.6-1.5,1.1-2c0.5-0.5,0.9-0.7,1.4-0.7c0.5,0,0.8,0.2,1.2,0.6c0.3,0.4,0.5,0.8,0.5,1.4
			c0,0.6-0.2,1.2-0.5,1.6c-0.4,0.4-0.8,0.6-1.4,0.6c-0.3,0-0.6-0.1-0.8-0.4c-0.2-0.2-0.3-0.5-0.3-0.9c0-0.2,0.1-0.4,0.4-0.6
			c0.3-0.2,0.5-0.4,0.7-0.4c0.2,0,0.5,0.1,0.6,0.2c0.2,0.1,0.3,0.3,0.3,0.5c0,0.2-0.2,0.4-0.6,0.5c0.1-0.2,0.1-0.3,0.1-0.5
			c0-0.2-0.1-0.4-0.2-0.4c-0.1,0-0.3,0.1-0.4,0.3c-0.1,0.2-0.1,0.4-0.1,0.5c0,0.2,0.1,0.3,0.2,0.5c0.1,0.2,0.3,0.2,0.4,0.2
			c0.4,0,0.7-0.2,1-0.5c0.2-0.3,0.4-0.7,0.4-1.1c0-0.3-0.1-0.6-0.4-0.8c-0.3-0.2-0.6-0.4-1-0.4c-0.4,0-0.7,0.1-1,0.3
			c-0.3,0.2-0.6,0.6-0.9,1.1c-0.3,0.5-0.4,0.8-0.4,1c0,0.1,0.1,1.9,0.3,5.3c0.7-0.2,1.4-0.5,2-0.9l0.1,0.5c-0.7,0.3-1.3,0.6-1.9,0.8
			c-0.6,0.2-1.3,0.4-2.2,0.5v-0.5c0.5,0,1.1-0.1,1.6-0.2c0-0.7-0.1-1.8-0.4-3.4c-0.3-1.6-0.6-3-0.9-4.1l-1.3,0.5l-0.1-0.3
			c1.2-0.3,2.1-0.8,2.8-1.5c0,0.5-0.1,0.9-0.1,1.1C103.4,130.5,103.4,131.1,103.5,131.6"/>
		<path class="st0" d="M123.8,117.6c-0.1-0.1-0.1-0.2-0.1-0.3c0-0.2,0.1-0.4,0.3-0.5c0.2-0.2,0.4-0.2,0.7-0.2c0.4,0,0.8,0.1,1.2,0.4
			c0.3,0.3,0.5,0.5,0.5,0.8c0,0.5-0.3,1-0.8,1.3c-0.5,0.4-1.2,0.6-1.9,0.6c-0.8,0-1.4-0.2-2-0.6c-0.6-0.4-0.8-0.9-0.8-1.5
			c0-0.6,0.4-1.2,1.3-1.7c0.9-0.5,1.9-0.8,3.2-0.8c1.3,0,2.4,0.3,3.5,0.9c1.1,0.6,1.6,1.3,1.6,2.2c0,1.4-0.7,2.4-2.1,3.1
			c-1.4,0.7-3.9,1.2-7.5,1.5c0.1,2.5,0.2,4.6,0.2,6.4c0,2.2-0.1,5.8-0.4,10.7c2.1,0,3.8-0.2,5.1-0.7v1c-1.8,0.2-3.7,0.4-5.7,0.4
			c-0.7,0-1.6,0.1-2.8,0.4V140l2.4-0.1c0-2.1-0.2-5.1-0.6-8.8c-0.4-3.7-0.9-6.4-1.4-8c-1.6,0.3-4.1,0.5-7.3,0.8l0.3,3l-1,0.1
			c-0.1-1.9-0.3-3.4-0.6-4.4l1-0.1l0.2,0.7c3.6-0.3,7-0.6,10.2-1.1c3.2-0.5,5.4-1,6.6-1.7c1.1-0.6,1.7-1.5,1.7-2.7
			c0-0.7-0.3-1.2-0.9-1.7c-0.6-0.4-1.4-0.7-2.4-0.7c-0.7,0-1.4,0.2-2.1,0.6c-0.6,0.4-1,0.9-1,1.4c0,0.4,0.2,0.8,0.5,1.2
			c0.3,0.4,0.7,0.6,1.1,0.6c0.5,0,0.8-0.1,1.1-0.3c0.3-0.2,0.4-0.5,0.4-0.8c0-0.2-0.1-0.3-0.2-0.5c-0.1-0.2-0.3-0.2-0.5-0.2
			C124.5,117.3,124.2,117.4,123.8,117.6"/>
		<path class="st0" d="M132.8,130.2c-0.1,0.4-0.4,0.7-0.9,0.7c-0.3,0-0.5-0.1-0.7-0.2c-0.2-0.2-0.3-0.4-0.3-0.6
			c0-0.3,0.2-0.6,0.5-0.9c0.3-0.3,0.7-0.4,1.1-0.4c1.7,0,2.6,0.4,2.6,1.3c0,0.7-0.4,1.3-1.3,1.9c-0.9,0.6-1.7,0.9-2.3,0.9
			c-0.8,0-1.4-0.2-1.9-0.5c-0.5-0.4-0.8-0.8-0.8-1.4c0-1.2,0.7-2.5,2.1-3.8c1.4-1.3,2.9-1.9,4.4-1.9c1.3,0,2.3,0.4,3.2,1.3
			c0.9,0.9,1.3,2,1.3,3.3c0,0.9-0.2,1.7-0.5,2.4c-0.3,0.7-0.8,1.4-1.4,2.3c-1.7,2.3-2.5,4.3-2.5,6.2c0,0.2,0,0.4,0,0.7h-0.8l0-2.1
			c-1.6,0.9-2.8,1.3-3.5,1.3c-0.9,0-1.6-0.2-2.2-0.7c-0.6-0.4-0.9-1-0.9-1.7c0-0.7,0.4-1.3,1.3-1.8c0.8-0.5,1.8-0.8,2.8-0.8
			c0.7,0,1.9-0.1,3.5-0.2c1-1.7,1.4-3.3,1.4-4.6c0-3.1-0.9-4.6-2.6-4.6c-1.6,0-2.7,0.4-3.4,1.3c-0.7,0.8-1,2-1,3.5
			c0,0.4,0.1,0.8,0.4,1c0.3,0.3,0.6,0.4,1.1,0.4c0.5,0,1-0.2,1.5-0.6c0.5-0.4,0.7-0.8,0.7-1.3c0-0.3-0.1-0.5-0.4-0.7
			c-0.3-0.2-0.6-0.3-1-0.3c-0.2,0-0.3,0.1-0.4,0.2c-0.1,0.1-0.2,0.3-0.2,0.4c0,0.3,0.1,0.4,0.4,0.4
			C132.4,130.3,132.6,130.3,132.8,130.2 M135.3,135.9c-1.1,0.1-2,0.1-2.6,0.2c-0.7,0.1-1.2,0.3-1.6,0.8c-0.4,0.4-0.6,0.8-0.6,1.3
			c0,0.4,0.1,0.8,0.4,1.1c0.3,0.3,0.6,0.4,1.1,0.4c0.8,0,1.7-0.4,2.7-1.2L135.3,135.9z"/>
		<path class="st0" d="M149.6,141c-3,0-4.8,0-5.6,0.1c-0.7,0.1-1.4,0.2-1.9,0.3v-0.9l2.5-0.1c0-4.6-0.3-9.1-0.9-13.3l-2.2-0.1v-0.6
			c1.3,0,2.3,0,2.8,0c0.9,0,2.2-0.2,3.7-0.6v0.7l-1.7,0.4l-0.4,5.2l-0.5,8.1c1.5,0,2.9-0.1,4.2-0.2V141z M148.2,121.7l-0.2,0
			c-0.5-0.7-1.2-1-2.2-1c-0.7,0-1.4,0.2-2,0.5c-0.6,0.4-0.9,0.8-0.9,1.3c0,0.6,0.3,1,0.8,1.4c0.5,0.3,1,0.5,1.5,0.5
			c1,0,1.5-0.4,1.5-1.1c0-0.8-0.4-1.2-1.1-1.2c-0.1,0-0.3,0-0.5,0.1c-0.2,0.1-0.2,0.2-0.2,0.3c0,0.3,0.2,0.4,0.6,0.4
			c0.2,0,0.4-0.1,0.6-0.2c-0.1,0.6-0.4,0.8-0.9,0.8c-0.2,0-0.4-0.1-0.6-0.3c-0.2-0.2-0.2-0.4-0.2-0.5c0-0.3,0.1-0.5,0.4-0.7
			c0.3-0.2,0.6-0.3,1-0.3c0.5,0,1,0.1,1.4,0.4c0.4,0.2,0.7,0.6,0.7,1c0,0.4-0.3,0.8-0.8,1.1c-0.5,0.3-1.1,0.5-1.8,0.5
			c-0.8,0-1.4-0.2-2-0.7c-0.6-0.4-0.9-1-0.9-1.6c0-0.7,0.3-1.3,0.9-1.8c0.6-0.5,1.2-0.8,1.9-0.8
			C146.8,119.9,147.8,120.5,148.2,121.7"/>
		<path class="st0" d="M156.4,137.6c-0.2,0.7-0.5,1.1-1.1,1.1c-0.9,0-1.3-0.4-1.3-1.1c0-0.5,0.3-1,0.8-1.4c0.5-0.4,1.2-0.6,1.8-0.6
			c0.6,0,1.1,0.2,1.5,0.7c0.4,0.4,0.7,0.9,0.7,1.5c0,1.1-0.6,2-1.9,2.7c-1.3,0.8-2.5,1.1-3.7,1.1c-0.5,0-1-0.2-1.5-0.6
			c-0.5-0.4-0.8-0.9-0.8-1.5c0-1.3,0.2-3.1,0.7-5.4c0.5-2.2,0.8-4.5,1-6.7c0.2-2.2,0.3-5.5,0.3-9.7l-2.4,0.1l0-0.5
			c2.4,0,4.8-0.3,7.2-0.9v0.6l-1.6,0.4c-0.8,5.3-1.4,8.9-1.7,10.7c-0.4,1.9-0.9,3.9-1.7,6.2c-0.7,2.3-1.1,3.8-1.1,4.7
			c0,0.4,0.2,0.9,0.6,1.4c0.4,0.5,0.9,0.7,1.3,0.7c1.1,0,2-0.3,2.8-0.8c0.8-0.6,1.2-1.3,1.2-2.2c0-0.3-0.1-0.7-0.4-0.9
			c-0.3-0.3-0.6-0.4-1-0.4c-1,0-1.5,0.3-1.5,1c0,0.2,0.2,0.4,0.5,0.4c0.4,0,0.7-0.1,1-0.4L156.4,137.6z"/>
		<path class="st0" d="M164.4,138.5c-0.6-0.4-1-0.7-1.4-0.7c-0.2,0-0.5,0.1-0.8,0.4c-0.3,0.3-0.5,0.5-0.5,0.7c0,0.5,0.4,1,1.1,1.5
			c0.7,0.5,1.7,0.7,2.8,0.7c0.5,0,1.1-0.3,1.7-0.8c0.6-0.6,0.9-1.2,0.9-1.8c0-0.5-0.3-1.1-0.7-1.8c-0.5-0.6-1.9-1.7-4.2-3.2
			c-1-0.7-1.7-1.2-2.1-1.6c-0.4-0.4-0.7-0.9-0.9-1.5c-0.2-0.6-0.3-1.1-0.3-1.7c0-1,0.5-2,1.5-2.9c1-0.9,2.2-1.3,3.7-1.3
			c1.1,0,2.1,0.2,3,0.7c0.9,0.5,1.3,1.1,1.3,1.9c0,0.6-0.3,1.2-0.9,1.8c-0.6,0.6-1.3,0.8-2,0.8c-0.6,0-1.1-0.3-1.5-0.8
			c-0.4-0.5-0.6-1-0.6-1.5c0-0.6,0.4-0.9,1.2-0.9c0.3,0,0.5,0,0.7,0.1c0,0-0.1,0.1-0.2,0.2c-0.5,0.4-0.7,0.8-0.7,1.2
			c0,0.3,0.2,0.5,0.7,0.6c0.5,0.2,0.9,0.2,1.2,0.2c0.3,0,0.5-0.1,0.7-0.3c0.2-0.2,0.3-0.5,0.3-0.7c0-0.7-0.3-1.4-1-1.9
			c-0.6-0.6-1.4-0.9-2.3-0.9c-0.8,0-1.5,0.3-2.1,0.8c-0.6,0.5-0.8,1.1-0.8,1.7c0,2.1,1.2,3.8,3.4,5.3c2.4,1.6,3.7,3.1,3.7,4.6
			c0,0.9-0.2,1.6-0.7,2.3c-0.4,0.6-1,1.2-1.6,1.6c-0.6,0.4-1.1,0.7-1.5,0.8c-0.4,0.1-0.9,0.1-1.7,0.1c-0.8,0-1.5-0.3-2.1-1
			c-0.6-0.7-0.9-1.4-0.9-2.1c0-0.5,0.2-1,0.7-1.5c0.5-0.4,1-0.7,1.5-0.7c0.4,0,0.7,0.1,1,0.3c0.3,0.2,0.4,0.4,0.4,0.6
			C164.8,138,164.6,138.2,164.4,138.5"/>
		<path class="st0" d="M49.8,140c-2,0-3.3,0-3.8,0.1c-0.5,0.1-0.9,0.1-1.3,0.2v-0.7l1.7-0.1c0-3.9-0.2-7.6-0.6-11.2l-1.5-0.1v-0.5
			c0.9,0,1.5,0,1.9,0c0.6,0,1.5-0.2,2.5-0.5v0.6l-1.2,0.3l-0.3,4.3l-0.3,6.8c1,0,1.9-0.1,2.8-0.2V140z M48.8,123.8l-0.2,0
			c-0.3-0.5-0.8-0.8-1.5-0.8c-0.5,0-1,0.2-1.4,0.5c-0.4,0.3-0.6,0.7-0.6,1.1c0,0.5,0.2,0.9,0.5,1.2c0.3,0.3,0.7,0.4,1,0.4
			c0.7,0,1-0.3,1-0.9c0-0.7-0.3-1-0.8-1c-0.1,0-0.2,0-0.3,0.1c-0.1,0.1-0.2,0.2-0.2,0.3c0,0.2,0.1,0.3,0.4,0.3
			c0.1,0,0.2-0.1,0.4-0.2c-0.1,0.5-0.3,0.7-0.6,0.7c-0.1,0-0.3-0.1-0.4-0.3c-0.1-0.2-0.2-0.3-0.2-0.4c0-0.2,0.1-0.4,0.3-0.6
			c0.2-0.2,0.4-0.2,0.7-0.2c0.4,0,0.7,0.1,1,0.3c0.3,0.2,0.4,0.5,0.4,0.8c0,0.4-0.2,0.7-0.6,1c-0.4,0.3-0.8,0.4-1.2,0.4
			c-0.5,0-1-0.2-1.4-0.6c-0.4-0.4-0.6-0.8-0.6-1.4c0-0.6,0.2-1.1,0.6-1.5c0.4-0.4,0.8-0.7,1.3-0.7C47.9,122.2,48.6,122.7,48.8,123.8
			"/>
	</g>
	<g>
		<g>
			<path class="st1" d="M126.5,83.6c0,0-4.1,10.7-14.5,11.2c-10.4,0.5-11.8-2.9-12.6-5.5c0,0-4.4-3.5-6.5-3.5
				c-0.1,0-1.4-0.4-1.5-0.3c-2.1,0.4-5.5,2.6-5.5,2.6s-6,1.3-7.3,21.1c0,0,4.5-4.5,6.2-1c1.3,2.8-3.7,3.3-3.7,3.3s7.1,1.7,3.9,4.3
				c-2.7,2.1-6.1-0.2-6.2-1.2c0,0-1.9,5.2-5.4,3.4c-3.5-1.9-2.2-2.7-0.2-3.8c0,0-7.3-0.8-1.9-4.9l4.3,0.7c0,0-2.1-16.1-1-22.5
				c0,0,0-6.8-3.6-14c-3.5-7-9.6-15.8-10.8-16.5C59,56.3,51,53.4,49,49.4c-2-4-4.1-10.3-4.1-10.3s-9.6,5.8-14.1,0.9
				c0,0-3.3,3.4-4.1,2.3c-1.2-1.7,0.4-3.2,3-3.8c0-0.2,0-1.7-0.2-2.4c-3.2,2.3-4.9,0.4-3.9-1.3c2.1-3.9,4.2-1.3,4.5-1.2
				c1.4-0.8,2.2-2.4,2.2-2.4s-5.1-0.7-3.9-3.1c0,0,1.6-4.5,5.6-2.5c1,1.4,0.3,4.2,0.3,4.2s0.3,1.3,1.2,1.2c0.9-0.1,1.9,1,2.3,1.8
				c0.7,1.6,2.2,3.3,2.7,3.3c0.4,0,2.9-3.1,2.9-3.1S41,28.9,46,28.2c3.6-0.5,4.7,1.3,2.2,6.6c0,0,0.1,3.1,5.9,8.6
				c0,0,8.9,2,15.5-0.7c0,0,1-1.6,0.5-2.4l5.5-0.6c0,0,8.8-4,8.3-13c-0.5-8-3.7-8-3.7-8s-2.6-1.8-1.7-3.8c1.1-2.5,8.6-1.4,7.1,2.5
				c0,0,2.1,2.1,5.1,1.8c0,0,1.5-5.5,3.6-6.3c0,0-3.4-1.9,0.4-3.4c3.2-1.3,1.8,2.9,1.7,3.3l2.5,0.7c0,0,1.1-5,4.2-2.8
				c3,2.2-2.7,4-2.7,4l1.6,2c0,0,8.1-5.7,8,1.6c-0.1,6.1-6.4,2.8-8.1,1.3c0,0-1.7,3.1-5.6,2.7c-6-0.7-7.4,3.1-7.8,4.8
				c-0.4,1.7-5.1,15.5,2.1,34.1c0,0,5.1-4.4,15.6-1.7l-1.7,0.5l-1.4,0.9l3.1,0.4l9.6-8c0,0-6.7-4-2.2-6.7c0,0,3.8-1.2,3.4,3.8
				c0,0,5.6-1.5,8,0.6c0,0,4.1-3.2,5.6,0.8c0,0,1.1,4.4-7.2,2c0,0-6,2.2-13.5,8.4l-0.4,0.7c0,0-3.1-0.1-3.5,1.6
				c-0.2,0.8,1.4,12.1,10.9,11.9L126.5,83.6z"/>
			<path class="st2" d="M121.1,75.4c0,0,9.3-1.3,12.2,2.2c2.8,3.4-5.6,5.7-6.6,5.8c-1,0.1-11.3-0.6-10.5-5.5
				C116.2,77.9,117.2,75.7,121.1,75.4"/>
			<path class="st3" d="M123.7,75.3c0,0,5.9-5.7,1.5-8.3c-3.7-2.2-7.1,3.5-7.3,3.9c-0.2,0.5-2.3,4.6-3.7,5.3l3.1,0.2
				C117.3,76.4,121.2,75,123.7,75.3"/>
			<path class="st0" d="M107.4,67.4c0,0,3.3-0.5,4.9,2.9c1.5,3.4-0.7,4.9-1.9,5.3c-1.2,0.4-4.6-0.4-5.3-3.3
				C104.3,69.5,105.2,67.8,107.4,67.4"/>
			<path class="st0" d="M99,68.9c0,0,3.2,1.1,3.5,4.3c0.3,3.1-2.7,5.6-5.7,3.6c-3-2-3.3-5.6-1.9-7C96.2,68.3,99,68.9,99,68.9"/>
			<path class="st4" d="M87.2,73.5c0,0-2.5,8.9,4.1,13.6c0,0-2.8,2-4.6,0.7c0,0-4.4-4.3-2.1-13.7L87.2,73.5z"/>
			<path class="st5" d="M91.8,85.6c0,0.2-0.4,1.5-0.4,1.5L90.2,86l1.5-0.4L91.8,85.6z"/>
			<path class="st6" d="M103.3,59c0,0,8-6.6,0-13.9c0,0-6.6-1.3-11.5,4.9c0,0,6.9,2.7,5.4,8.7C97.3,58.7,102.2,58.6,103.3,59"/>
			<path class="st6" d="M92,69.7c0,0-2.6,5.2-11,4.5c-8.4-0.7-9.4-4.3-8.5-7.5c0.9-3.2,1.4-7.6,6.2-8.9c0,0,0.5,7,10.7,6.6
				c0,0,3.8-0.9,2.6,5.2L92,69.7z"/>
			<path class="st0" d="M46.6,26.2c0,0,2.8,1.5,0.5,3.3c0,0-1.8,0.2-1.2-1.1C45.9,28.4,47,26.8,46.6,26.2"/>
			<path class="st0" d="M30.6,25.2c0,0-0.6-1-1-0.9c-0.3,0.2-0.7,1.1-0.4,1.7L30.6,25.2z"/>
			<path class="st0" d="M25.5,34.3l0,1.8c0,0-1.5,0.1-1.5-1C24,34,25.5,34.3,25.5,34.3"/>
			<path class="st0" d="M26,41l0.5,1.3c0,0-1,0.5-1.3-0.5C25.1,40.8,26,41,26,41"/>
			<path class="st0" d="M80.6,12.4c0,0-0.1,0.9,1,2.3c1.1,1.4-2.2,1-2.4,0.4C78.9,14.5,79,13.1,80.6,12.4"/>
			<path class="st0" d="M95.7,9.3c0,0-0.1-1.1-1-0.8c-0.9,0.3-0.5,1.1-0.5,1.1L95.7,9.3z"/>
			<path class="st0" d="M103.5,11c0,0,1.2-0.6,0.4-1.2c-0.7-0.6-1.2,0.5-1.2,0.5L103.5,11z"/>
			<path class="st0" d="M110.3,17c0,0,1.3-0.2,1.3,0.9c0,1.2-1.2,1.3-1.2,1.3L110.3,17z"/>
		</g>
		<g>
			<defs>
				<path id="SVGID_1_" d="M66.1,6.6c0,0-0.7-1.5,0.1-3.5c0,0-8.4,4.8-3.9,14.7c0,0-2.8-0.1-5.1-3.8c0,0-3.3,8.1,5.3,14.4
					c0,0-2.1,0.7-2.4,0.8c-0.3,0.1-1.6,0.1-1.9-0.5c0,0-1.8,5.3,4.9,7.3c6.7,2,8.4,4.3,6.5,6.8c0,0,2.6-0.8,3.5,1.9
					c1,2.7,4.9,2.6,5.8,1.8c0.9-0.7,1.3-1.7,0.6-2.8c0,0-6-4.2-8.3-11.8c-2.3-7.6-3.6-12.3-1.1-20.2c0,0,2.2-7,9.3-9.3
					c0,0-2-0.8-4.5-0.8C72.1,1.6,68.6,2.5,66.1,6.6"/>
			</defs>
			<clipPath id="SVGID_2_">
				<use xlink:href="#SVGID_1_"  style="overflow:visible;"/>
			</clipPath>
			
				<linearGradient id="SVGID_3_" gradientUnits="userSpaceOnUse" x1="55.5297" y1="241.7124" x2="56.4664" y2="241.7124" gradientTransform="matrix(-12.282 -45.6604 45.6604 -12.282 -10280.998 5553.1167)">
				<stop  offset="0" style="stop-color:#DED5BF"/>
				<stop  offset="0.118" style="stop-color:#DED5BF"/>
				<stop  offset="0.136" style="stop-color:#DBD0B7"/>
				<stop  offset="0.2503" style="stop-color:#C6B890"/>
				<stop  offset="0.3678" style="stop-color:#B6A473"/>
				<stop  offset="0.4868" style="stop-color:#A9955C"/>
				<stop  offset="0.6079" style="stop-color:#A08B4A"/>
				<stop  offset="0.7317" style="stop-color:#998440"/>
				<stop  offset="0.86" style="stop-color:#95803B"/>
				<stop  offset="1" style="stop-color:#947F3A"/>
			</linearGradient>
			<polygon class="st7" points="91.8,44.3 78.5,-5 42.4,4.7 55.7,54.1 			"/>
		</g>
		<g>
			<path class="st8" d="M112.6,72.7c0,0-0.6,2.8-3,2.8c-2.5-0.1-4.4-1.2-4.8-4c0,0,1.4,2.8,4.3,2.9
				C112.2,74.4,112.6,72.7,112.6,72.7"/>
			<path class="st8" d="M102.5,73.4c0,0,0.1,4-3.7,4.1c-3.7,0.1-4.9-4.6-4.8-5c0,0,0.5,2.8,3.9,3.4
				C101.3,76.5,102.6,73.8,102.5,73.4"/>
			<path class="st9" d="M133.6,78.5c0,0,0.6,4.2-7.1,4.6c-7.6,0.4-10.7-3.2-10.7-5c0,0,3.1,3.7,8.8,3.7
				C130.3,81.9,133.7,79.2,133.6,78.5"/>
			<path class="st9" d="M126.6,68.9c0,0,1.4,2.1-2.9,6.4l-1.5,0C122.2,75.2,126.6,71.5,126.6,68.9"/>
			<path class="st10" d="M126.5,83.5c0,0-1.5,6.5-9.2,9.6c-7.8,3.1-15.4,2.7-17.9-4c0,0-0.5-3.7-0.1-4.8c0,0,0.7,8.2,10.2,8
				c9.9-0.2,15.6-7.3,16.1-8.8L126.5,83.5z"/>
			<path class="st10" d="M99.4,89.1c0,0-4.1-3-5.2-3.3c-1.2-0.2-3.8-0.2-4.2,0.1l-1.2-1.7c0,0,4.5-3.4,10.1,3.4L99.4,89.1z"/>
			<path class="st10" d="M111.3,75c0,0-1.8,1.1-3.6,0.1c-1.8-1-2.6-2.1-2.9-3.3c0,0-0.3,2.4,1.8,3.9c1.3,0.9,3.1,1.4,5.4-0.1
				L111.3,75z"/>
			<path class="st10" d="M101.8,76.2c0,0-2.5,2.2-4.8,0.8c-2.3-1.3-2.9-3.2-3-3.9c0,0-0.7,2.8,2,4.6C98,79,101.2,78.6,101.8,76.2"/>
			<path class="st10" d="M91.1,71.2c0,0-2.6,1.9-3.8,2.3l-0.3,2C87,75.4,90.7,73.5,91.1,71.2"/>
			<path class="st10" d="M84.1,75.8c0,0-1.5,5.5,2.4,11.9l-1,0.6C85.5,88.3,81,81,84.1,75.8"/>
			<path class="st11" d="M91.3,87.2c0,0-3.2,1.4-4.3,0.8c0,0-3.3-3.5-2.9-10.5C84.1,77.4,83.8,87.6,91.3,87.2"/>
			<path class="st10" d="M104.2,59.6c0,0-1.7,0.3-2.3,2C101.9,61.6,100.5,59.5,104.2,59.6"/>
			<path class="st10" d="M107.6,62.6c0,0-1.4,0-2,1C105.6,63.6,103.2,62.1,107.6,62.6"/>
			<path class="st10" d="M100.6,68.2c0,0-1.6-2.1-4.3-1.3C96.4,67,99.2,67.2,100.6,68.2"/>
			<path class="st10" d="M129.8,51.8c0,0,0.8,2.8-3.9,1.8C125.8,53.5,130.1,52.9,129.8,51.8"/>
			<path class="st10" d="M115.9,51.9c0,0-1.7-1.3-2.2-1.6c-0.6-0.3-1.1-2.5,1-2.8C114.6,47.6,112.8,49.5,115.9,51.9"/>
			<path class="st10" d="M121.8,53.6l-8.1,4.8c0,0,5.9-3.5,5.5-4.8C119.2,53.6,122,52.2,121.8,53.6"/>
			<path class="st10" d="M84,114.9c0,0-1,1.3-2.6,0.7c-1.6-0.6-1.9-1.9-1.9-1.9S82,115.8,84,114.9"/>
			<path class="st10" d="M84.1,108.7c0,0,0.1,1.6-2.8,1.8C81.3,110.6,84.1,109.2,84.1,108.7"/>
			<path class="st10" d="M77.1,116c0,0-1.9,3.2-4.9,0.4C72.3,116.4,74.9,117.5,77.1,116"/>
			<path class="st10" d="M73.3,113.2c0,0-4-0.3-3.1-1.6c0.9-1.3,0.8-0.8,0.8-0.8S69.7,112.5,73.3,113.2"/>
			<path class="st10" d="M75.6,88.2c0,0-0.6,12.8,0.9,21c0,0-0.8-18.4-0.1-20.9c0.7-2.5-1.2-10-2.6-11.6
				C73.8,76.6,76.4,85,75.6,88.2"/>
			<path class="st10" d="M64.7,57.9c0,0-8.7-3.9-11.1-5.8c-4.1-3.1-5-6.2-7.1-12.3c0,0,2.8,7.5,7.9,11.1
				C59.4,54.4,63.8,57.5,64.7,57.9"/>
			<path class="st10" d="M42.9,38.7c0,0-6.8,4.3-10.9,1.1c0,0-0.6-1.9,2.5,0C37.7,41.7,42.9,38.7,42.9,38.7"/>
			<path class="st10" d="M31,29.9c0,0-3.3-0.5-1.3-3.1C29.8,26.8,29.3,29,31,29.9"/>
			<path class="st10" d="M28.7,35.2c0,0-2.2,2.7-2.5,0.3C26.2,35.4,27.2,36.5,28.7,35.2"/>
			<path class="st10" d="M29.7,40.1c0.1-0.1-2.8,2.5-2.8,1.3C26.9,41.4,29.2,40.8,29.7,40.1"/>
			<path class="st10" d="M48.6,29.8c0,0,0.6,0.6-0.6,3.4l-0.5,0.1C47.5,33.2,48.7,30.3,48.6,29.8"/>
			<path class="st10" d="M81.1,17.6c0,0-1.6-0.6-1.9-1.2C79.3,16.3,80.3,18.7,81.1,17.6"/>
			<path class="st10" d="M100.5,19.8c0,0-0.2,2.1-7.3,1.7c0,0,4.9-0.5,5.5-1.1C99.3,19.8,99.9,18.6,100.5,19.8"/>
			<path class="st10" d="M109,19.4c0,0-1.8,3.4-4.8,0.5C104.2,19.9,108.2,21.1,109,19.4"/>
			<path class="st10" d="M103.1,11.7c0,0,0.5,1.1-2.3,2.3C100.8,14,102.5,12.8,103.1,11.7"/>
			<path class="st10" d="M96.1,10.2c0,0,0.2,0.9-0.1,2c0,0-0.1-1.9-0.5-2.1C95.5,10.1,95.9,10,96.1,10.2"/>
			<path class="st12" d="M92,69.9c0,0-2,4.6-11,4.3c-9-0.3-9.5-5.1-7.9-10c0,0-1.2,6.4,6.3,8.1c3.7,0.8,9.4-0.3,12.5-2.9L92,69.9z"
				/>
			<path class="st12" d="M97.1,58.7c0,0,3-4.4-5.3-8.8c0,0,7-0.8,8,8.5L97.1,58.7z"/>
			<path class="st12" d="M68,38.2c0,0-5.5-2.2-6.9-3c-1.4-0.8-3.5-3-2.9-6.3c0,0,0.6,3.5,2.8,4.6C63.3,34.5,67.2,36.7,68,38.2"/>
			<path class="st12" d="M62.5,28.4c0,0-8.3-4.5-5.3-14.4c0,0,1.5,2.2,2.6,2.7C59.8,16.7,55.3,21.9,62.5,28.4"/>
			<path class="st12" d="M62.2,17.3c0,0-4.6-7.4,3.8-14.2l0.1,3.4C66.1,6.6,59.5,8.7,62.2,17.3"/>
			<path class="st0" d="M119.1,78.2c2.7-0.8,5.3-0.9,8-0.6c0.3,0,0.8-0.7,0.3-0.8c-2.8-0.7-5.6-0.1-8.3,0.8
				C118.9,77.7,118.7,78.3,119.1,78.2"/>
			<path class="st0" d="M129.4,78c0.1,0.1,0.3,0.2,0.5,0.3c0.2,0.1,0.4,0.2,0.7,0.1c0.3-0.1,0.6-0.5,0.5-0.9c-0.2-0.5-1-0.2-1.3-0.1
				C129.4,77.4,129.2,77.8,129.4,78"/>
			<path class="st0" d="M125.2,69c0.1-0.2,0.1-0.4,0-0.6c-0.1-0.2-0.3-0.4-0.5-0.4c-0.3,0-0.8,0.5-0.5,0.8c0.1,0.2,0.4,0.2,0.6,0.4
				C124.9,69.5,125.2,69.2,125.2,69"/>
			<path class="st0" d="M119.6,72.4c0.2-0.7,0.6-1.4,1.1-1.9c0.6-0.7,1.2-0.9,2-1.1c0.3-0.1,0.7-0.8,0.3-0.9c-1-0.2-2,0.5-2.6,1.2
				c-0.7,0.8-1.1,1.8-1.3,2.8C119,72.9,119.6,72.6,119.6,72.4"/>
			<path class="st0" d="M128.8,50.6c-0.4,0-0.9,0-1.2,0.3c-0.2,0.2-0.3,0.7,0.1,0.6c0.1,0,0.2-0.1,0.4-0.1c0.2,0,0.3-0.1,0.5-0.1
				c0.2,0,0.4-0.2,0.4-0.3C129.1,50.7,129,50.5,128.8,50.6"/>
			<path class="st0" d="M115.5,48.5c0.1,0.1,0.1,0.2,0.1,0.4c0.1,0.4,0.6,0,0.6-0.2c0-0.2-0.1-0.4-0.3-0.6
				C115.7,48,115.4,48.3,115.5,48.5"/>
			<path class="st0" d="M105.2,53.3c0.3-2.1-0.1-3.9-1.6-5.5c-0.2-0.2-0.7,0.3-0.5,0.5c1.3,1.6,1.8,3.1,1.5,5.1
				C104.5,53.9,105.1,53.6,105.2,53.3"/>
			<path class="st0" d="M86.8,65.6c-2.8,0-8.1-0.6-9-3.9c-0.1-0.4-0.7,0-0.6,0.3c0.6,4,6.3,4.6,9.5,4.1
				C86.9,66.1,87.2,65.6,86.8,65.6"/>
			<path class="st0" d="M116.4,84.9c-0.3-0.2-0.6-0.3-1-0.2c-0.4,0.1-0.8,0.4-1,0.8c-0.1,0.1-0.1,0.3,0,0.4c0.2,0.1,0.4,0,0.5-0.1
				c0.2-0.2,0.2-0.3,0.5-0.3c0.2-0.1,0.5,0,0.7,0C116.3,85.4,116.7,85,116.4,84.9"/>
			<path class="st0" d="M120.5,85c-0.8-0.4-1.7-0.3-2.2,0.5c-0.2,0.3,0.1,0.7,0.4,0.5c0.2-0.2,0.4-0.3,0.7-0.4
				c0.2-0.1,0.5-0.1,0.7,0C120.3,85.7,120.7,85.2,120.5,85"/>
			<path class="st0" d="M113,87.7c-0.3,0-0.6,0-0.9,0.1c-0.3,0.1-0.7,0.4-0.8,0.8c-0.1,0.4,0.3,0.5,0.6,0.3c0.2-0.1,0.2-0.3,0.4-0.4
				c0.2-0.1,0.4-0.2,0.6-0.2C113.2,88.1,113.4,87.7,113,87.7"/>
			<path class="st0" d="M116.7,87.8c-0.8-0.3-1.8,0.1-2.2,1c-0.1,0.4,0.3,0.5,0.5,0.3c0.2-0.2,0.3-0.4,0.6-0.5
				c0.2-0.1,0.5-0.1,0.8-0.2C116.7,88.4,117.1,88,116.7,87.8"/>
			<path class="st0" d="M99.5,59.8c-2.6-0.4-7.1,0.2-8,3.2c-0.2,0.5,0.5,0.6,0.7,0.2c1.6-2.4,4.3-3,7-2.9
				C99.5,60.3,99.8,59.8,99.5,59.8"/>
			<path class="st0" d="M85.7,78.8c0.1,1.6,0.3,3.3,1.2,4.6c0.2,0.3,0.7-0.2,0.6-0.5c-0.7-1.4-1.1-2.8-1.2-4.4
				C86.2,78.2,85.7,78.6,85.7,78.8"/>
			<path class="st0" d="M81,109.2c0.2-0.1,0.4-0.2,0.7-0.3c0.3-0.1,0.7-0.1,1-0.4c0.2-0.2,0.5-0.8,0.1-0.9c-0.4-0.1-0.8,0.2-1.2,0.4
				c-0.3,0.2-0.7,0.5-0.8,0.8C80.6,109.1,80.7,109.4,81,109.2"/>
			<path class="st0" d="M81.7,113.2c0.3,0.1,0.6,0.3,0.9,0.5c0.3,0.2,0.5,0.5,0.9,0.5c0.4,0,0.8-0.6,0.6-1c-0.2-0.3-0.7-0.5-1-0.6
				c-0.4-0.1-0.8-0.1-1.2-0.1C81.7,112.6,81.4,113.1,81.7,113.2"/>
			<path class="st0" d="M75.4,115c-0.2,0.1-0.4,0.1-0.5,0.1c-0.3,0-0.5,0-0.8,0.1c-0.2,0.1-0.6,0.6-0.3,0.9c0.3,0.2,0.7,0.1,0.9,0
				c0.3-0.1,0.6-0.3,0.9-0.6C75.8,115.3,75.8,114.9,75.4,115"/>
			<path class="st0" d="M74.1,111.1c-0.2-0.1-0.5-0.2-0.7-0.2c-0.3-0.1-0.5-0.2-0.8-0.1c-0.4,0.1-0.7,0.6-0.4,0.9
				c0.2,0.2,0.5,0.1,0.7,0.1c0.3,0,0.6-0.1,0.8,0C74.1,111.9,74.6,111.2,74.1,111.1"/>
			<path class="st0" d="M55.3,45.3c4.3,1.8,9,1.7,13.5,0.9c0.4-0.1,0.7-1,0.2-0.9c-4.5,0.3-9,1-13.4-0.5
				C55.3,44.7,55,45.2,55.3,45.3"/>
			<path class="st0" d="M45.4,31.7c-0.1-0.3-0.1-0.5-0.1-0.8c0-0.3,0.1-0.5,0.1-0.8c0-0.2-0.1-0.4-0.3-0.4c-0.3,0-0.5,0.2-0.6,0.4
				c-0.4,0.6-0.3,1.7,0.4,2.1C45.1,32.3,45.4,32,45.4,31.7"/>
			<path class="st0" d="M33.6,28.1c0-0.5,0-1-0.2-1.4c-0.1-0.2-0.2-0.4-0.4-0.5c-0.3-0.2-0.5-0.3-0.8-0.3c-0.3,0.1-0.7,0.6-0.6,0.9
				c0.1,0.3,0.2,0.3,0.4,0.5c0.1,0.1,0.3,0.2,0.4,0.3c0.2,0.2,0.4,0.5,0.5,0.8C33,28.9,33.6,28.4,33.6,28.1"/>
			<path class="st0" d="M28.4,34c-0.5-0.2-0.9,0-1.1,0.5c-0.1,0.3,0.1,0.5,0.4,0.4c0.1,0,0.2-0.1,0.3-0.2c0,0,0,0,0,0
				c0.1,0,0.1-0.1,0.2-0.1C28.4,34.5,28.7,34.1,28.4,34"/>
			<path class="st0" d="M35.9,33.3c-1.2-0.3-2.3,0.2-3.1,1.1c-0.7,0.8-1.4,2.5-0.7,3.4c0.4,0.5,1.1-0.1,1.1-0.6
				c0-0.8-0.2-1.3,0.2-2.1c0.4-0.8,1.3-1.2,2.2-1.2C35.9,34,36.3,33.4,35.9,33.3"/>
			<path class="st0" d="M100.4,17.1c-0.6-1.9-2.7-4.1-4.8-2.8c-0.3,0.2-0.7,1-0.1,1c0.9,0,1.5-0.1,2.4,0.3c0.8,0.4,1.4,1.2,1.9,1.9
				C99.9,17.9,100.5,17.4,100.4,17.1"/>
			<path class="st0" d="M104.5,17.6c0.5-0.2,1.1-0.3,1.6-0.3c0.7,0,1,0.4,1.6,0.7c0.5,0.3,1.3-0.4,1.1-0.9c-0.7-1.9-3.3-1-4.5-0.1
				C104,17.3,104,17.8,104.5,17.6"/>
			<path class="st0" d="M100.9,12.6c0.2-0.1,0.4-0.3,0.5-0.4c0.2-0.2,0.5-0.3,0.6-0.6c0.1-0.2,0.2-0.6-0.1-0.7
				c-0.4-0.1-0.7,0.2-0.9,0.4c-0.2,0.2-0.4,0.5-0.5,0.8C100.4,12.6,100.6,12.7,100.9,12.6"/>
			<path class="st0" d="M83.1,15.4c0.2,0.2,0.3,0.4,0.4,0.7c0.1,0.3,0,0.5,0.1,0.8c0,0.2,0.2,0.2,0.3,0.2c0.2-0.1,0.3-0.2,0.4-0.4
				c0.3-0.7-0.1-1.4-0.6-1.8C83.4,14.7,82.9,15.2,83.1,15.4"/>
			<path class="st0" d="M88.5,60.9c-3.2-6.8-3.9-13.9-4-21.3c0-0.9-1-0.2-1.1,0.3c-0.9,7.2,0.3,15.4,4.6,21.4
				C88.2,61.6,88.6,61.1,88.5,60.9"/>
			<path class="st13" d="M108.7,70.5c0.6,0.6,1.5,0.7,1.9,0.3c0.4-0.4,0.2-1.2-0.4-1.8c-0.6-0.6-1.5-0.7-1.9-0.3
				C107.9,69.1,108.1,70,108.7,70.5"/>
			<path class="st13" d="M98.5,72.4c0.6,0.6,1.5,0.7,1.9,0.3c0.4-0.4,0.3-1.3-0.4-1.9c-0.6-0.6-1.5-0.7-1.9-0.3
				C97.7,71,97.9,71.8,98.5,72.4"/>
			<path class="st13" d="M79.6,2.2c-17.3,5.6-12.1,33.2-0.2,41.7c0.2,0.1,0.6-0.3,0.3-0.4c-11.2-8.6-17-34.9-0.2-40.9
				C79.7,2.5,79.8,2.2,79.6,2.2"/>
			<path class="st13" d="M79.8,2.3C74.6-0.1,69,1.7,65.9,6.5c-0.2,0.3,0.2,0.4,0.4,0.2c3.3-4.6,8-6,13.3-4.1
				C79.8,2.7,80,2.4,79.8,2.3"/>
			<path class="st13" d="M66.1,3c-0.5,1.5-0.9,3.2,0,4.6c0.2,0.2,0.5-0.1,0.4-0.3c-0.7-1.5-0.6-2.8-0.1-4.3
				C66.5,2.7,66.2,2.8,66.1,3"/>
			<path class="st13" d="M66.2,2.9c-5.1,3.3-6.9,9.6-4,15.1c0.1,0.2,0.5-0.1,0.4-0.3c-2.5-5.5-1.2-10.8,3.7-14.5
				C66.4,3.1,66.3,2.8,66.2,2.9"/>
			<path class="st13" d="M69.6,42.9c2.6-2.8-0.8-5-3.4-6c-1.8-0.7-3.6-1.3-5.3-2.3c-2.3-1.4-2.7-3.5-2.4-6c0-0.4-0.5-0.2-0.6,0.1
				c-0.7,2.7,0.1,5,2.4,6.6c2.2,1.5,12.1,3.2,9,7.4C69.3,42.9,69.5,43.1,69.6,42.9"/>
			<path class="st13" d="M62.7,28.4c-1.2,0-3,1.1-4,0.2c-0.2-0.1-0.4,0.1-0.4,0.3c0.3,1.4,3.5-0.2,4.3-0.2
				C62.8,28.7,62.9,28.4,62.7,28.4"/>
			<path class="st13" d="M56.9,14.1c-1.6,5.4,0.8,12.4,6,14.9c0.2,0.1,0.4-0.3,0.3-0.4c-5-2.7-7.5-9-6-14.5
				C57.2,13.9,57,13.9,56.9,14.1"/>
			<path class="st13" d="M62.6,17.8c-2.2-0.4-4-2.3-5.1-4.1c-0.2-0.2-0.5,0.1-0.5,0.3c0.3,1.1,1.4,2.1,2.3,2.7
				c0.9,0.7,2,1.3,3.2,1.4C62.6,18.1,62.8,17.8,62.6,17.8"/>
			<path class="st13" d="M69.7,42.5c-5.8,1.4-13,2.3-18.4-0.9c-0.4-0.2-1,0.5-0.6,0.7c5.1,3.2,13.6,3.1,19,0.5
				C69.8,42.7,69.9,42.5,69.7,42.5"/>
			<path class="st13" d="M57,43.7c-5-0.5-7.1-6.1-9.1-9.9c-0.1-0.2-0.5,0.1-0.4,0.3c1.4,4,4.5,9.9,9.4,9.9C57,44,57.1,43.7,57,43.7"
				/>
			<path class="st13" d="M48.4,34.8c0.2-1.7,1.6-3.2,1.6-5c0-1.6-1.8-2.2-3.1-2.2c-1.5,0-3.3,0.7-4,2c-0.8,1.5-0.5,3.3,1.1,4.1
				c0.2,0.1,0.6-0.4,0.3-0.5c-1.6-1.2-1.8-3.1,0-4.3c1.3-0.8,3.1-0.9,4.4,0c1.9,1.3-0.7,4.4-0.5,6.1C48.1,35.1,48.4,34.9,48.4,34.8"
				/>
			<path class="st13" d="M43.1,32.8c-0.8,1.3-1.4,2.3-2.8,3c-1.6,0.8-3.3,0.8-4.7-0.2c-0.3-0.2-0.6,0.3-0.4,0.5
				c1.2,1.3,3.4,1.1,4.9,0.4c1.7-0.8,2.8-1.9,3.3-3.7C43.4,32.6,43.1,32.7,43.1,32.8"/>
			<path class="st13" d="M40.5,35.8c-1.3-0.4-1.8-2-2.4-3.1c-0.6-1.2-1.8-2.1-3.1-2.2c-0.4,0-0.7,0.7-0.2,0.7
				c3.1,0.4,2.7,4.4,5.6,4.9C40.5,36.2,40.7,35.9,40.5,35.8"/>
			<path class="st13" d="M32.2,31.2c-2.6,1.6-3.6,4.7-2.6,7.5c0.1,0.4,0.7-0.2,0.6-0.5c-0.9-2.4-0.2-5.1,2.1-6.4
				C32.7,31.6,32.7,30.9,32.2,31.2"/>
			<path class="st13" d="M30.8,40.4c4.1,3.6,11.1,1.6,14.7-1.7c0.3-0.3,0.1-0.8-0.3-0.5c-3.7,2.8-9.9,5.1-13.9,1.6
				C31,39.5,30.5,40.2,30.8,40.4"/>
			<path class="st13" d="M35,30.7c-0.9-0.9-0.2-2.2-0.2-3.3c0-0.8-0.2-1.5-0.8-2c-1-1.1-3-0.6-4.1,0c-1.2,0.6-2.2,2.2-2,3.6
				c0.1,0.8,0.5,1.4,1.1,1.8c0.9,0.6,2.1-0.1,2.8,0.8c0.3,0.4,0.9-0.2,0.7-0.6c-0.8-1.2-2.4-0.5-3.4-1.3c-1.7-1.4,0.4-3.7,1.8-4.2
				c1.7-0.5,3.2,0.3,3.2,2.1c0,1.2-0.6,2.7,0.6,3.4C34.9,31.1,35.1,30.9,35,30.7"/>
			<path class="st13" d="M30.1,33.9c0.1-1.1-0.8-1.6-1.8-1.6c-1.1,0-2.2,0.7-2.8,1.5c-0.7,1-0.5,2.4,0.2,3.3
				c0.5,0.5,1.3,0.5,1.9,0.3c0.8-0.3,1.3-1.1,1.8-1.6c0.4-0.3,0.1-1-0.3-0.6c-0.8,0.7-1.5,2.1-2.8,1.3c-0.9-0.5-0.9-2-0.3-2.7
				c0.5-0.6,1.4-1,2.2-1c0.8,0,1.2,0.5,1.5,1.2C29.9,34.3,30.1,34,30.1,33.9"/>
			<path class="st13" d="M31.1,39.9c-0.5,0-0.9,0.4-1.3,0.6c-0.7,0.5-1.3,1.2-2,1.6c-1.1,0.6-1.5-1.1-1.1-1.8
				c0.6-1.3,2.1-1.5,3.3-1.2c0.3,0.1,0.7-0.4,0.4-0.6c-1-0.9-2.6-0.1-3.5,0.6c-1,0.8-1.4,2.1-0.7,3.3c1.3,2.4,3.7-2.2,4.9-2.2
				C31.2,40.2,31.3,39.9,31.1,39.9"/>
			<path class="st13" d="M66.4,60.2c-4.1-3.4-9.5-4.6-13.8-7.8c-4.8-3.4-5.1-9-7.4-13.9c-0.2-0.4-0.7,0.2-0.6,0.4
				c1.3,4.7,2.7,9.8,6.2,13.3c4.2,4.1,10.6,4.9,15.3,8.3C66.3,60.7,66.6,60.3,66.4,60.2"/>
			<path class="st13" d="M75.7,39.9c8-2.6,11.9-15.4,5.4-21.4c-0.2-0.2-0.7,0.3-0.5,0.5c5.5,7.2,2.8,16.2-4.9,20.6
				C75.6,39.6,75.5,39.9,75.7,39.9"/>
			<path class="st13" d="M85.5,17.8c2.1-3-1.9-4.6-4.4-4.4c-1.3,0.1-2.8,0.9-2.9,2.4c-0.1,1.5,0.9,3.3,2.5,3.4
				c0.3,0,0.6-0.5,0.3-0.7c-1.2-0.6-2.2-1.2-2.2-2.7c0-1.6,1.9-1.9,3-1.9c1,0,2,0.3,2.8,0.9c1,0.7,1.1,1.8,0.6,2.9
				C85.2,17.8,85.4,17.9,85.5,17.8"/>
			<path class="st13" d="M95.5,16.6c-2.3,2.9-6.9,3-9.6,0.6c-0.3-0.3-0.8,0.3-0.5,0.6c2.8,2.9,8.1,2.2,10.2-1
				C95.8,16.6,95.6,16.4,95.5,16.6"/>
			<path class="st13" d="M90.6,19.1c2-1.6,1.4-4.8,4.2-5.9c2.7-1.1,6.1,1.6,7,3.9c0.1,0.3,0.7-0.2,0.6-0.5c-1.1-2.6-4.1-4.4-6.9-4.1
				c-3.5,0.3-3.1,4.5-5,6.4C90.3,19.1,90.4,19.2,90.6,19.1"/>
			<path class="st13" d="M101.6,19.6c-2.1,3.9-7.2,1.6-10.5,2.9c-0.3,0.1-0.4,0.8,0,0.7c3.7-1.4,8.8,1,11-3.4
				C102.4,19.3,101.8,19.2,101.6,19.6"/>
			<path class="st13" d="M96.4,12.9c0.6-0.7,1-1.7,0.8-2.6c-0.2-1-1.3-1.3-2.1-1.2c-1,0.2-2.1,1-2.4,2c-0.3,1.1,0.9,1.9,1.8,2.2
				c0.3,0.1,0.6-0.3,0.5-0.6c-0.3-0.6-1.2-0.6-1.6-1.1c-0.6-0.8,1.1-1.8,1.7-1.8c2-0.1,1.6,1.8,1.1,3C96.1,13,96.3,13,96.4,12.9"/>
			<path class="st13" d="M100.7,14.8c1.9,0,5-2.7,2.7-4.4c-1-0.8-2.4-0.8-3.4,0c-0.8,0.6-1.6,2.2-1.3,3.2c0.1,0.3,0.5,0,0.6-0.2
				c0.3-0.8,0.2-1.6,0.7-2.3c0.7-0.9,1.8-0.8,2.7-0.4c2.3,1.3-0.8,3.1-2,3.5C100.7,14.6,100.5,14.8,100.7,14.8"/>
			<path class="st13" d="M102,17c1.4-0.4,2.5-1.4,3.8-1.9c2.6-0.9,4.5,1.9,4,4.2c-0.5,2.4-3.4,2.7-5.1,1.6c-1.1-0.7-1.6-1.5-3-1.6
				c-0.4,0-0.7,0.7-0.2,0.8c2.2,0.2,3.2,2.7,5.7,2.2c1.8-0.4,3-1.7,3.4-3.5c0.4-1.8-0.7-3.5-2.3-4.3c-2.3-1.1-4.5,1.1-6.3,2.1
				C101.9,16.8,101.8,17.1,102,17"/>
			<path class="st13" d="M91.6,22.5c-1.7,0.8-2.7,3-3.4,4.7c-1.4,3.6-1.8,7.3-1.9,11.1c-0.2,7.4,0.1,15.8,3.8,22.4
				c0.2,0.3,0.6-0.1,0.6-0.4c-2.2-6.2-3.5-12.1-3.6-18.7c-0.1-2.9,0-5.8,0.4-8.7c0.4-2.9,1.5-8.3,4.2-10.1
				C91.8,22.7,91.9,22.3,91.6,22.5"/>
			<path class="st0" d="M80.8,12.5c-1.2,0.9,2.9,3.5-0.5,3.3c-2.6-0.2-1.4-3.1,0.4-3.4L80.8,12.5z"/>
			<path class="st13" d="M80.8,12.4c-1.1,0.8,0.6,2.1,0.6,3c0.1-0.1,0.1-0.1,0-0.1c-0.1,0-0.2,0-0.3,0.1c-0.3,0-0.6,0-0.9-0.1
				c-0.5-0.1-0.9-0.4-1-0.9c-0.2-1,0.9-1.6,1.6-1.9c0.2-0.1,0.4-0.6,0-0.6c-1-0.1-2,1.2-2.3,2c-0.4,1.2,0.5,2,1.7,2.1
				c0.7,0.1,2.1-0.1,1.7-1.2c-0.2-0.5-1.5-1.9-1.1-2.3C81,12.5,81,12.3,80.8,12.4"/>
			<path class="st0" d="M46.7,26.2c2.4,0.8,1.3,4.2-0.5,3.1c-1.2-0.8,0.9-2,0.4-3.1L46.7,26.2z"/>
			<path class="st13" d="M46.6,26.4c0.8,0.3,1.2,0.9,1.2,1.7c0,0.6-0.3,1.2-1,1.2c-0.3,0-0.7-0.3-0.8-0.6c-0.1-0.3,0.3-0.7,0.5-1
				c0.3-0.5,0.7-1.2,0.2-1.7c-0.2-0.2-0.5,0.2-0.5,0.4c0.1,0.6-0.1,0.9-0.4,1.4c-0.2,0.3-0.4,0.7-0.4,1.1c0.1,0.8,1.1,1.1,1.8,0.8
				c0.7-0.3,1-1.1,1-1.8c0-0.9-0.7-1.6-1.5-1.9C46.6,26.1,46.5,26.3,46.6,26.4"/>
			<path class="st13" d="M30.8,25.1c-0.2-0.3-0.3-0.7-0.6-1c-0.3-0.2-0.8,0-1,0.2c-0.3,0.2-0.4,0.6-0.4,1c0,0.3,0,0.9,0.4,1
				c0.2,0.1,0.5-0.2,0.4-0.4c0-0.2-0.2-0.4-0.3-0.6c0-0.2,0-0.6,0.2-0.7c0.3-0.2,0.4-0.1,0.6,0.2c0.2,0.2,0.3,0.4,0.6,0.5
				C30.8,25.3,30.9,25.2,30.8,25.1"/>
			<path class="st13" d="M25.7,34.2c-0.5,0.1-1-0.1-1.5,0.2c-0.5,0.2-0.7,0.7-0.6,1.2c0.1,0.8,1.6,1.5,2.2,0.8
				c0.1-0.1,0.2-0.4,0-0.5c-0.1-0.1-0.2,0-0.4,0c-0.1,0-0.3,0-0.4,0c-0.3-0.1-0.5-0.2-0.7-0.5c-0.2-0.3,0.1-0.4,0.4-0.5
				c0.4-0.1,0.7-0.1,1.1-0.3C25.8,34.4,25.9,34.1,25.7,34.2"/>
			<path class="st13" d="M26.7,42.2c-0.4,0.1-0.8,0-1-0.3c-0.1-0.1-0.2-0.3-0.1-0.4c0-0.2,0.3-0.2,0.4-0.3c0.1-0.1,0.3-0.5,0-0.5
				c-0.7,0.1-1.1,0.9-0.8,1.5c0.3,0.6,1.1,0.7,1.6,0.4C26.9,42.5,27,42.1,26.7,42.2"/>
			<path class="st13" d="M95.8,9.4c0.1-0.3,0.2-0.7-0.1-1c-0.2-0.2-0.6-0.2-0.9-0.2c-0.3,0.1-0.7,0.3-0.9,0.6
				c-0.2,0.3-0.2,0.7,0.1,0.9c0.2,0.1,0.4-0.2,0.3-0.3c-0.1-0.2-0.2-0.3-0.1-0.5c0.1-0.1,0.3-0.2,0.5-0.2c0.5-0.1,0.8,0.3,0.7,0.7
				C95.5,9.7,95.8,9.6,95.8,9.4"/>
			<path class="st13" d="M103.8,11.1c0.6-0.3,0.9-1,0.4-1.5c-0.6-0.5-1.4,0.1-1.6,0.7c-0.1,0.3,0.2,0.3,0.3,0.1
				c0.2-0.3,0.5-0.7,0.9-0.4c0.3,0.2,0.2,0.6-0.1,0.8C103.5,10.9,103.5,11.2,103.8,11.1"/>
			<path class="st13" d="M110.2,19.5c1,0.3,1.7-0.7,1.7-1.6c0-0.9-1-1.7-1.9-1c-0.1,0.1-0.2,0.5,0,0.4c0.3,0,0.6-0.2,0.8,0
				c0.3,0.1,0.4,0.4,0.4,0.7c0.1,0.7-0.3,1.1-1,1.2C110.2,19.2,110,19.5,110.2,19.5"/>
			<path class="st13" d="M106.6,59.4c-6.9-1.6-14.3-1.6-18.8,4.7c-0.2,0.3,0.1,0.6,0.4,0.3c4.9-5.8,11.2-6.1,18.2-4.7
				C106.6,59.7,106.8,59.4,106.6,59.4"/>
			<path class="st13" d="M106.6,59.4c-1.8,0.2-3.7,1-4.4,2.8c-0.1,0.3,0.3,0.2,0.4,0.1c0.8-1.6,2.2-2.3,3.9-2.6
				C106.6,59.6,106.7,59.4,106.6,59.4"/>
			<path class="st13" d="M109.8,62.7c-1.9-1.3-4.1-2.1-6.5-2c-0.2,0-0.4,0.5-0.1,0.5c2.3,0.1,4.4,0.6,6.4,1.9
				C109.7,63.1,110,62.8,109.8,62.7"/>
			<path class="st13" d="M109.9,62.9c-1.4-0.5-3.4,0-4.1,1.3c-0.1,0.3,0.1,0.5,0.3,0.3c1.1-1,2.2-1.3,3.7-1.3
				C109.9,63.2,110.1,63,109.9,62.9"/>
			<path class="st13" d="M106,64.2c-0.2,0.5-0.2,1.1-0.1,1.7c0.1,0.6,0.2,1.4,0.4,2c0.1,0.3,0.5-0.1,0.5-0.3
				c0.1-0.5-0.1-1.1-0.2-1.6c-0.1-0.6-0.3-1.2-0.3-1.9C106.2,64,106,64.1,106,64.2"/>
			<path class="st13" d="M105.6,74.2c1.6,1.7,4.1,2.3,6.1,0.8c2-1.5,1.5-4.5,0.2-6.2c-1.5-1.9-4.2-2.3-6.1-0.8
				C103.8,69.5,104.2,72.4,105.6,74.2c0.2,0.2,0.7-0.3,0.5-0.5c-1.2-1.6-1.7-3.8-0.1-5.3c1.5-1.4,3.8-0.6,5.1,0.6
				c1.5,1.4,1.9,4.1,0.3,5.6c-1.6,1.5-4.1,0.5-5.4-0.9C105.9,73.4,105.4,74,105.6,74.2"/>
			<path class="st13" d="M95,76c1.7,1.8,4.3,2.5,6.4,0.9c2.1-1.6,1.5-4.8,0.1-6.6c-1.6-2-4.5-2.5-6.5-1C93,70.9,93.5,74.1,95,76
				c0.2,0.2,0.7-0.3,0.5-0.5c-1.3-1.6-1.9-4-0.2-5.7c1.6-1.5,4-0.5,5.4,0.7c1.6,1.5,2.1,4.3,0.5,5.9c-1.7,1.6-4.4,0.4-5.7-1
				C95.3,75.1,94.8,75.7,95,76"/>
			<path class="st13" d="M118.8,76.1c-2.6,0.1-4.8-0.3-7.2-1.2c-0.3-0.1-0.7,0.4-0.4,0.6c2.2,1.2,5.1,1.4,7.6,0.9
				C118.9,76.4,119,76.1,118.8,76.1"/>
			<path class="st13" d="M117.9,76.4c2.8-0.9,5.8-1,8.7-0.8c3,0.3,10.3,2.4,4.9,5.9c-2.6,1.7-6.3,1.6-9.2,1.1c-1.6-0.3-3-1-4.3-1.9
				c-1-0.7-2.6-2-1.1-3.4c0.6-0.6,1.6-0.9,2.3-1.2c0.2-0.1,0.4-0.7,0-0.6c-1.2,0.4-2.9,1-3.4,2.3c-0.7,1.8,0.9,3.1,2.3,4
				c3.6,2.5,9.2,2.4,13.1,0.7c2.6-1.2,4.2-4.2,1.3-5.9c-3.9-2.3-10.5-1.8-14.5-0.4C117.7,76.1,117.6,76.5,117.9,76.4"/>
			<path class="st13" d="M126.6,83.2C124,90,117.2,94.3,110,94.7c-2.7,0.1-5.5-0.5-7.7-2.1c-2.8-2-3.1-5.2-2.8-8.4
				c0-0.3-0.4-0.2-0.5,0.1c-1.6,7.2,4.2,11.1,10.8,11c7.2-0.1,15-5.1,17.1-12.2C126.9,82.9,126.6,83,126.6,83.2"/>
			<path class="st13" d="M99.8,89.5c-2.3-2.5-5.7-5.1-9.4-4.1c-0.3,0.1-0.5,0.7-0.1,0.7c3.8-0.4,6.4,1.5,9.3,3.7
				C99.7,89.8,99.9,89.6,99.8,89.5"/>
			<path class="st13" d="M91.7,70c-4,4.8-18.6,6.4-18.8-2.2c0-0.5-0.6-0.2-0.7,0.1c-2,8.9,17,8.6,19.7,2.2C92,70,91.8,69.9,91.7,70"
				/>
			<path class="st13" d="M89.6,64.1c-4.7,0.1-8.9-1.7-10.5-6.4c-0.1-0.4-0.6,0-0.6,0.2c-0.1,5,7,7.4,11,6.5
				C89.7,64.5,89.9,64.1,89.6,64.1"/>
			<path class="st13" d="M78.8,57.5c-4.8,1.5-7.2,7.3-6.6,12c0,0.4,0.6,0,0.6-0.2c0.2-4.7,1.3-9.4,6.1-11.5
				C78.9,57.8,79,57.5,78.8,57.5"/>
			<path class="st13" d="M103.3,59.1c4.8-3.3,5.1-10.5,0.3-14c-0.2-0.2-0.6,0.3-0.4,0.5c4.1,3.7,4.5,9.6,0,13.2
				C103.1,58.9,103.1,59.2,103.3,59.1"/>
			<path class="st13" d="M97.4,58.7c1.9-3.7-1.8-8.2-5.4-9c-0.3-0.1-0.7,0.4-0.3,0.6c3.1,1.6,6.8,4.3,5.5,8.3
				C97,58.9,97.3,58.9,97.4,58.7"/>
			<path class="st13" d="M103.6,45c-4.8-1.2-9.1,1.1-12.1,4.8c-0.3,0.4,0.1,0.7,0.4,0.4c3-3.7,6.8-5.4,11.5-4.8
				C103.6,45.4,103.8,45,103.6,45"/>
			<path class="st13" d="M91.5,86.9c-3.8-2.9-5.2-9.2-3.8-13.7c0.2-0.5-0.5-0.4-0.6-0.1c-1.9,4.4-0.3,11.7,4.1,14.1
				C91.4,87.4,91.7,87,91.5,86.9"/>
			<path class="st13" d="M91.5,85.9c0,0.2,0,0.4-0.1,0.6c-0.1,0.2-0.2,0.3-0.3,0.5c-0.1,0.2,0.1,0.4,0.3,0.2c0.4-0.4,0.6-1,0.4-1.5
				C91.8,85.6,91.6,85.8,91.5,85.9"/>
			<path class="st13" d="M91.5,86.9c-0.7,0.4-1.3,0.7-2.1,0.8c-0.9,0.2-1.7,0-2.5,0c-0.3,0-0.6,0.5-0.3,0.6c1.6,0.7,3.7,0,5-1.1
				C91.7,87.1,91.7,86.8,91.5,86.9"/>
			<path class="st13" d="M87.2,88c-2.9-4.2-3.5-8.9-2.3-13.9c0.1-0.4-0.4-0.3-0.5,0c-1.7,4.3-1,11,2.5,14.2
				C87,88.5,87.3,88.2,87.2,88"/>
			<path class="st13" d="M87.1,87.6c-4.1,0.2-6,6.1-6.9,9.3c-0.8,2.6-1.3,5.4-1.6,8.1c-0.2,1.7-0.6,3.8-0.1,5.6
				c0.1,0.4,0.6,0,0.6-0.3c-0.7-3.5,0.4-7.9,1.2-11.3c0.9-3.8,2.5-10,6.9-11.1C87.2,87.8,87.3,87.6,87.1,87.6"/>
			<path class="st13" d="M58.9,56.5c3.9,3.4,6.6,7.9,9.1,12.3c2.3,4.1,4.7,8.4,5.7,13.1c0.9,4.2,0.4,8.6,0.2,12.9
				c-0.2,5.5,0.2,11.2,1.8,16.5c0.1,0.4,0.6,0,0.6-0.3c-1.1-6.1-1.8-12-1.5-18.2c0.2-4.2,0.4-8.3-0.6-12.4
				c-1.1-4.5-3.6-8.7-5.9-12.7c-2.3-4-5.1-9.1-9.2-11.5C58.9,56.2,58.8,56.4,58.9,56.5"/>
			<path class="st13" d="M78.6,109.1c1.7-0.4,2.5-2.2,4.4-1.8c1.8,0.4,2.5,2.6,0.5,3.4c-0.8,0.3-1.8,0.2-2.6,0.4
				c-0.2,0-0.5,0.6-0.2,0.6c1.2,0.2,2.6-0.1,3.6-0.7c0.9-0.5,1.5-1.9,1-2.9c-0.6-1.3-2.1-1.8-3.5-1.5c-1.2,0.3-2.4,1.4-3.3,2.1
				C78.4,108.8,78.4,109.1,78.6,109.1"/>
			<path class="st13" d="M80.8,111.6c1.1,0.4,5.4,1.7,4.6,3.4c-0.5,1.1-2.3,1.5-3.4,1.5c-1.6-0.1-2.3-1.3-3.1-2.4
				c-0.2-0.3-0.6,0.1-0.6,0.4c0.6,3.4,5.3,3.6,7.2,1.3c2.2-2.7-2.9-3.9-4.6-4.3C80.8,111.2,80.7,111.5,80.8,111.6"/>
			<path class="st13" d="M78.4,114.4c-0.1,2.3-2.3,4.2-4.6,3.6c-1-0.3-3.2-2-1.6-3c1-0.6,2.4-0.6,3.5-0.8c0.3,0,0.5-0.6,0.1-0.6
				c-1.4,0-3.9,0.2-4.7,1.6c-0.7,1.3,0.6,2.6,1.7,3.1c2.4,1.2,6.7-1.1,5.9-4.1C78.6,114.1,78.4,114.2,78.4,114.4"/>
			<path class="st13" d="M74.4,114c-1.4-0.1-4.2-0.2-4.7-1.8c-0.3-1,0.6-2,1.4-2.3c0.6-0.2,1.4,0.1,2,0.2c0.8,0.2,1.7,0.3,2.4-0.1
				c0.2-0.1,0.3-0.6,0-0.5c-1.5,0.3-2.9-0.5-4.4-0.3c-1,0.2-2.1,1.5-2.1,2.5c-0.1,2.5,3.4,2.8,5.3,2.6C74.4,114.3,74.6,114,74.4,114
				"/>
			<path class="st13" d="M100.9,83.7c-1.1-0.7-2.6-1-3.6,0c-0.2,0.2-0.2,0.7,0.2,0.5c1.1-0.6,2.1-0.7,3.3-0.1
				C100.8,84.1,101,83.8,100.9,83.7"/>
			<path class="st13" d="M112.1,66c-1.4-1.2-3.7-2-5.4-0.8c-0.3,0.2-0.2,0.7,0.2,0.5c1.7-0.8,3.4-0.3,4.9,0.7
				C112,66.5,112.3,66.1,112.1,66"/>
			<path class="st13" d="M101.3,67.5c-1.2-1.5-3.6-2.7-5.4-1.5c-0.2,0.1-0.4,0.8,0,0.6c0.9-0.2,1.6-0.4,2.6-0.2
				c0.9,0.2,1.7,0.8,2.4,1.4C101.1,68,101.4,67.6,101.3,67.5"/>
			<path class="st13" d="M123.6,75.4c1.4-1.3,3.4-3.1,3.4-5.2c0-1.9-1-3.7-3.1-3.9c-6.2-0.5-5.8,7.2-10.1,9.6
				c-0.3,0.1-0.3,0.7,0.1,0.5c2.6-1.2,3.5-4.1,4.8-6.5c1.3-2.3,3.9-3.9,6.4-2.5c3.5,1.9-0.1,6-1.7,7.8
				C123.2,75.4,123.4,75.6,123.6,75.4"/>
			<path class="st13" d="M122.1,71.9c-0.3,0.7-0.7,1.4-1.1,2c-0.5,0.8-1.2,1.4-2,1.9c-0.2,0.1-0.3,0.6,0,0.5
				c1.9-0.6,2.6-2.7,3.3-4.3C122.4,71.8,122.2,71.8,122.1,71.9"/>
			<path class="st13" d="M119.1,86.3c-0.1,0.3-0.1,0.5,0.1,0.6c0.2,0.1,0.4-0.1,0.5-0.3c0.1-0.3,0.1-0.5-0.1-0.6
				C119.4,85.9,119.2,86.1,119.1,86.3"/>
			<path class="st13" d="M115.7,89.2c-0.1,0.3-0.1,0.5,0.1,0.6c0.2,0.1,0.4-0.1,0.5-0.3c0.1-0.3,0.1-0.5-0.1-0.6
				C116,88.8,115.8,88.9,115.7,89.2"/>
			<path class="st13" d="M115.2,86c-0.1,0.3-0.1,0.5,0.1,0.6c0.2,0.1,0.4-0.1,0.5-0.3c0.1-0.3,0.1-0.5-0.1-0.6S115.3,85.7,115.2,86"
				/>
			<path class="st13" d="M112.3,88.8c-0.1,0.3-0.1,0.5,0.1,0.6c0.2,0.1,0.4-0.1,0.5-0.3c0.1-0.3,0.1-0.5-0.1-0.6
				C112.6,88.4,112.4,88.6,112.3,88.8"/>
			<path class="st13" d="M125.7,52c-0.1-1.3,0.7-1.7,2-1.8c1.2,0,2.5,0.5,2.7,1.7c0.7,3.8-5,1.7-6.7,1.6c-0.4,0-0.8,0.9-0.3,0.9
				c1.9,0.1,3.8,1,5.7,0.5c1.6-0.5,2.4-2.6,1.8-4.1c-1.3-2.8-7.4-0.8-5.5,1.3C125.5,52.3,125.7,52.1,125.7,52"/>
			<path class="st13" d="M125.4,51.2c-1.8-2.7-5.6-1.5-8.1-0.7c-0.2,0.1-0.5,0.7-0.1,0.7c2.9-0.3,5.4-1.9,8,0.3
				C125.3,51.6,125.5,51.4,125.4,51.2"/>
			<path class="st13" d="M117,50.9c0.7-1.4,0.6-3.1-0.5-4.2c-1.1-1.2-2.8-0.4-3.7,0.6c-0.9,1-1.5,2.3-0.6,3.5c0.4,0.5,1,0.9,1.5,1.3
				c0.6,0.4,1.1,1.2,1.7,1.5c0.3,0.2,0.6-0.2,0.5-0.5c-0.1-0.7-1-1.2-1.5-1.6c-0.7-0.6-1.7-1.1-2-2.1c-0.4-1.5,1.8-3,3.1-2.5
				c1.5,0.6,1.5,2.7,1.2,3.9C116.7,51.1,116.9,51,117,50.9"/>
			<path class="st13" d="M123.5,53.7c-2.5,0.7-4.8,2.3-7,3.7c-2.2,1.4-4.6,2.9-6.6,4.6c-0.2,0.2-0.2,0.6,0.1,0.4
				c4.4-2.8,8.5-6.6,13.4-8.4C123.6,53.9,123.6,53.7,123.5,53.7"/>
			<path class="st13" d="M116.6,52.6c-3.3,2.9-7,5.4-10.2,8.4c-0.2,0.2-0.2,0.7,0.2,0.5c3.7-2.4,7-5.7,10.2-8.6
				C116.9,52.7,116.8,52.5,116.6,52.6"/>
			<path class="st13" d="M95.1,16.7c0.2,0.1,0.4,0.2,0.6,0.3c0.2,0.2,0.2,0.4,0.4,0.6c0.2,0.3,0.5-0.1,0.5-0.3c0-0.6-0.7-1-1.2-1
				C95.2,16.4,95,16.6,95.1,16.7"/>
			<path class="st13" d="M35.7,35.1c-0.3,0.1-0.6,0.3-0.9,0.5c-0.2,0.2-0.4,0.6-0.3,0.8c0.1,0.2,0.4-0.1,0.4-0.2
				c0.1-0.2,0-0.3,0.2-0.5c0.1-0.2,0.4-0.3,0.6-0.4C35.8,35.3,35.9,35,35.7,35.1"/>
		</g>
		<g>
			<path class="st13" d="M93.3,91c0,1.2-1,2.2-2.3,2.2c-1.3,0-2.3-1-2.3-2.2c0-1.2,1-2.2,2.3-2.2C92.3,88.8,93.3,89.8,93.3,91
				 M89.3,91c0,1,0.7,1.8,1.7,1.8c1,0,1.7-0.8,1.7-1.8c0-1-0.7-1.8-1.7-1.8C90,89.3,89.3,90.1,89.3,91 M90.6,92.2h-0.5V90
				c0.2,0,0.5-0.1,0.9-0.1c0.4,0,0.6,0.1,0.8,0.2c0.1,0.1,0.2,0.3,0.2,0.5c0,0.3-0.2,0.4-0.5,0.5v0c0.2,0.1,0.3,0.2,0.4,0.5
				c0.1,0.3,0.1,0.5,0.2,0.5h-0.5c-0.1-0.1-0.1-0.3-0.2-0.5c0-0.2-0.2-0.3-0.5-0.3h-0.2V92.2z M90.7,90.9h0.2c0.3,0,0.5-0.1,0.5-0.3
				c0-0.2-0.1-0.3-0.5-0.3c-0.1,0-0.2,0-0.3,0V90.9z"/>
		</g>
	</g>
</g>
</svg>
