<?xml version="1.0" encoding="utf-8"?>
<!-- Generator: Adobe Illustrator 22.1.0, SVG Export Plug-In . SVG Version: 6.00 Build 0)  -->
<svg version="1.1" id="Layer_1" xmlns="http://www.w3.org/2000/svg" xmlns:xlink="http://www.w3.org/1999/xlink" x="0px" y="0px"
	 viewBox="0 0 47 47.2" style="enable-background:new 0 0 47 47.2;" xml:space="preserve">
<style type="text/css">
	.st0{fill:#FFFFFF;}
	.st1{fill:#B72025;}
	.st2{fill:#2063AF;}
</style>
<g>
	<rect class="st0" width="47" height="44.4"/>
	<g>
		<rect x="1.9" y="21.7" class="st1" width="43.2" height="8.1"/>
	</g>
	<g>
		<rect x="1.9" y="1.7" class="st2" width="43.2" height="7.1"/>
	</g>
	<g>
		<path class="st2" d="M2,10.4h3.9l2,2.5l1.9-2.5h3.8v10.1H9.4v-4.9h0l-1.8,2.4l-1.8-2.4h0v4.9H2V10.4z"/>
		<path class="st2" d="M18.1,10.4h4l3.9,10.1h-4.5l-0.3-1.3h-2.3l-0.4,1.3h-4.1L18.1,10.4z M20.4,16.6L20,14.6h0l-0.4,2.1H20.4z"/>
		<path class="st2" d="M26.6,20.5V10.4h4.2c2,0,3.5,0.6,4.5,1.6c0.9,0.9,1.5,2,1.5,3.5c0,1.4-0.5,2.6-1.4,3.5c-1,1-2.6,1.6-4.5,1.6
			H26.6z M30.8,17.2L30.8,17.2c0.8,0,1.3-0.2,1.7-0.6c0.3-0.3,0.5-0.7,0.5-1.2c0-0.5-0.2-0.9-0.5-1.2c-0.3-0.3-0.8-0.5-1.5-0.5h-0.1
			V17.2z"/>
		<path class="st2" d="M37.8,10.4h7.3v3.4H42v0.5h2.5v2.4H42v0.6h3.3v3.2h-7.5V10.4z"/>
		<path class="st0" d="M12,23.5H14v4.6H12V23.5z"/>
		<path class="st0" d="M14.5,23.5h1.7l1.4,2l0,0v-2h1.7v4.6h-1.7l-1.4-2l0,0v2h-1.7V23.5z"/>
		<path class="st0" d="M22.6,25.1h-1.3v-1.6h4.5v1.6h-1.3v3.1h-1.9V25.1z"/>
		<path class="st0" d="M26.3,23.5h1.9V25h1v-1.4h1.9v4.6h-1.9v-1.7h-1v1.7h-1.9V23.5z"/>
		<path class="st0" d="M31.7,23.5H35v1.5h-1.4v0.2h1.2v1.1h-1.2v0.3h1.5v1.5h-3.4V23.5z"/>
	</g>
	<g>
		<path class="st2" d="M2,10.4h3.9l2,2.5l1.9-2.5h3.8v10.1H9.4v-4.9h0l-1.8,2.4l-1.8-2.4h0v4.9H2V10.4z"/>
		<path class="st2" d="M18.1,10.4h4l3.9,10.1h-4.5l-0.3-1.3h-2.3l-0.4,1.3h-4.1L18.1,10.4z M20.4,16.6L20,14.6h0l-0.4,2.1H20.4z"/>
		<path class="st2" d="M26.6,20.5V10.4h4.2c2,0,3.5,0.6,4.5,1.6c0.9,0.9,1.5,2,1.5,3.5c0,1.4-0.5,2.6-1.4,3.5c-1,1-2.6,1.6-4.5,1.6
			H26.6z M30.8,17.2L30.8,17.2c0.8,0,1.3-0.2,1.7-0.6c0.3-0.3,0.5-0.7,0.5-1.2c0-0.5-0.2-0.9-0.5-1.2c-0.3-0.3-0.8-0.5-1.5-0.5h-0.1
			V17.2z"/>
		<path class="st2" d="M37.8,10.4h7.3v3.4H42v0.5h2.5v2.4H42v0.6h3.3v3.2h-7.5V10.4z"/>
	</g>
	<polygon class="st0" points="19.9,13.8 20.3,15.2 21.8,15.2 20.6,16.1 21.1,17.5 19.9,16.7 18.7,17.5 19.1,16.1 17.9,15.2 
		19.4,15.2 	"/>
	<g>
		<path class="st1" d="M4.8,37v-5.5H9v5.2c0,0.9,0.3,1.6,1.3,1.6c0.9,0,1.2-0.6,1.2-1.6v-5.2h3.7V37c0,1.5-0.4,2.5-0.9,3.2
			c-0.9,1.1-2.6,1.6-4.3,1.6c-1.8,0-3.3-0.6-4.2-1.6C5.3,39.6,4.8,38.7,4.8,37z"/>
		<path class="st1" d="M19.6,37.5c1.4,0.9,2.7,1.2,3.3,1.2c0.4,0,0.5-0.2,0.5-0.3c0-0.2-0.1-0.3-0.3-0.3c-0.5-0.1-1.9-0.3-2.9-1.2
			c-0.5-0.5-0.9-1.1-0.9-2.1c0-2,1.6-3.4,4.1-3.4c1.2,0,2.7,0.3,3.6,0.8v3.3c-1.3-0.7-2.5-0.9-3.1-0.9c-0.4,0-0.5,0.2-0.5,0.3
			c0,0.2,0.2,0.3,0.3,0.3c0.4,0.1,1.8,0.3,2.8,1.1c0.7,0.6,1,1.3,1,2.2c0,1.9-1.6,3.3-4.2,3.3c-1.3,0-2.8-0.3-3.8-0.8V37.5z"/>
		<path class="st1" d="M34.4,31.5h4l3.9,10.1h-4.5l-0.3-1.3h-2.3l-0.4,1.3h-4.1L34.4,31.5z M36.7,37.7l-0.4-2.1h0l-0.4,2.1H36.7z"/>
	</g>
	<g>
		<path class="st0" d="M4,5.4c0.5,0.3,1,0.4,1.2,0.4c0.1,0,0.2-0.1,0.2-0.1c0-0.1,0-0.1-0.1-0.1c-0.2,0-0.7-0.1-1-0.4
			C4.1,5,3.9,4.8,3.9,4.4c0-0.7,0.6-1.2,1.4-1.2c0.4,0,0.9,0.1,1.3,0.3v1.2C6.2,4.4,5.8,4.4,5.6,4.4c-0.1,0-0.2,0.1-0.2,0.1
			c0,0.1,0.1,0.1,0.1,0.1c0.1,0,0.6,0.1,1,0.4c0.2,0.2,0.4,0.4,0.4,0.8c0,0.7-0.6,1.2-1.5,1.2c-0.4,0-1-0.1-1.3-0.3V5.4z"/>
		<path class="st0" d="M9.1,3.2c1.1,0,2,0.8,2,1.8s-0.9,1.8-2,1.8s-2-0.8-2-1.8S8,3.2,9.1,3.2z M9.1,5.6c0.3,0,0.6-0.2,0.6-0.6
			S9.4,4.5,9.1,4.5S8.5,4.8,8.5,5.1S8.8,5.6,9.1,5.6z"/>
		<path class="st0" d="M11.4,5.2V3.3h1.5v1.8c0,0.3,0.1,0.6,0.4,0.6c0.3,0,0.4-0.2,0.4-0.6V3.3h1.3v1.9c0,0.5-0.1,0.9-0.3,1.1
			c-0.3,0.4-0.9,0.6-1.5,0.6c-0.6,0-1.2-0.2-1.5-0.6C11.6,6.1,11.4,5.8,11.4,5.2z"/>
		<path class="st0" d="M15.5,3.3H17c0.7,0,1.7,0.2,1.7,1.1c0,0.4-0.2,0.7-0.4,0.8l0.8,1.6h-1.5L17,5.7h0v1.2h-1.5V3.3z M17.1,4.8
			c0.2,0,0.3-0.1,0.3-0.3s-0.1-0.3-0.3-0.3H17v0.5H17.1z"/>
		<path class="st0" d="M21,3.2c0.4,0,0.8,0.1,1,0.2v1.3c-0.2-0.1-0.6-0.2-0.9-0.2c-0.5,0-0.8,0.2-0.8,0.6s0.3,0.6,0.8,0.6
			c0.3,0,0.7-0.1,0.9-0.2v1.3c-0.2,0.1-0.7,0.2-1.1,0.2c-1.2,0-2.1-0.8-2.1-1.8C19,4,19.8,3.2,21,3.2z"/>
		<path class="st0" d="M22.5,3.3h2.6v1.2H24v0.2h0.9v0.8H24v0.2h1.2v1.1h-2.6V3.3z"/>
		<path class="st0" d="M25.5,6.8V3.3H27c0.7,0,1.2,0.2,1.6,0.6c0.3,0.3,0.5,0.7,0.5,1.2c0,0.5-0.2,0.9-0.5,1.2
			c-0.4,0.4-0.9,0.6-1.6,0.6H25.5z M27,5.7L27,5.7c0.3,0,0.5-0.1,0.6-0.2c0.1-0.1,0.2-0.2,0.2-0.4c0-0.2-0.1-0.3-0.2-0.4
			c-0.1-0.1-0.3-0.2-0.5-0.2h0V5.7z"/>
		<path class="st0" d="M32.1,3.3h1.4l1.4,3.6h-1.6l-0.1-0.5h-0.8l-0.1,0.5h-1.5L32.1,3.3z M32.9,5.5l-0.2-0.7h0l-0.2,0.7H32.9z"/>
		<path class="st0" d="M35.1,3.3h1.3l1,1.5l0,0V3.3h1.3v3.6h-1.3l-1-1.5l0,0v1.5h-1.3V3.3z"/>
		<path class="st0" d="M39.2,6.8V3.3h1.5c0.7,0,1.2,0.2,1.6,0.6c0.3,0.3,0.5,0.7,0.5,1.2c0,0.5-0.2,0.9-0.5,1.2
			c-0.4,0.4-0.9,0.6-1.6,0.6H39.2z M40.7,5.7L40.7,5.7c0.3,0,0.5-0.1,0.6-0.2c0.1-0.1,0.2-0.2,0.2-0.4c0-0.2-0.1-0.3-0.2-0.4
			c-0.1-0.1-0.3-0.2-0.5-0.2h0V5.7z"/>
	</g>
</g>
</svg>
