<?xml version="1.0" encoding="utf-8"?>
<!-- Generator: Adobe Illustrator 22.1.0, SVG Export Plug-In . SVG Version: 6.00 Build 0)  -->
<svg version="1.1" id="Layer_1" xmlns="http://www.w3.org/2000/svg" xmlns:xlink="http://www.w3.org/1999/xlink" x="0px" y="0px"
	 viewBox="0 0 263.6 92.7" style="enable-background:new 0 0 263.6 92.7;" xml:space="preserve">
<style type="text/css">
	.st0{fill:#FFFFFF;}
	.st1{fill:#DED5BF;}
	.st2{fill:#98080C;}
	.st3{fill:#ED1C24;}
	.st4{fill:#0072BC;}
	.st5{fill:#00497F;}
	.st6{fill:#947F3A;}
	.st7{clip-path:url(#SVGID_2_);fill:url(#SVGID_3_);}
	.st8{fill:#B9E5FB;}
	.st9{fill:#8B2A2E;}
	.st10{fill:#C3B48B;}
	.st11{fill:#005F9F;}
	.st12{fill:#76672B;}
	.st13{fill:#231F20;}
</style>
<g>
	<g>
		<path class="st0" d="M103.5,37.3c-0.1,1.9-0.6,3.4-1.6,4.5s-2.3,1.6-3.9,1.6c-1.8,0-3.5-0.9-5.1-2.7s-2.4-3.8-2.4-6
			c0-1.3,0.4-2.9,1.1-4.6c0.7-1.7,1.7-3,2.9-4.1c1.2-1,2.5-1.5,3.9-1.5c1.3,0,2.4,0.4,3.2,1.1c0.8,0.7,1.2,1.5,1.2,2.4
			c0,0.8-0.4,1.6-1.1,2.3c-0.8,0.7-1.6,1-2.5,1c-0.5,0-1.1-0.2-1.6-0.6c-0.5-0.4-0.8-0.9-0.8-1.6c0-0.6,0.2-1,0.5-1.4
			c0.3-0.4,0.8-0.5,1.3-0.5c0.4,0,0.7,0.1,1,0.4c0.3,0.3,0.5,0.5,0.5,0.8c0,0.4-0.1,0.8-0.3,1c-0.2,0.3-0.4,0.4-0.6,0.4
			c-0.3,0-0.5-0.1-0.6-0.4c0.2,0,0.4-0.1,0.6-0.2c0.2-0.2,0.3-0.3,0.3-0.5c0-0.6-0.2-0.9-0.5-0.9c-0.4,0-0.8,0.2-1.1,0.5
			s-0.5,0.7-0.5,1.1c0,0.3,0.2,0.6,0.5,1c0.3,0.3,0.7,0.5,1.2,0.5c0.6,0,1.1-0.3,1.5-0.9c0.4-0.6,0.6-1.3,0.6-2c0-0.8-0.3-1.4-0.8-2
			s-1.2-0.9-2.1-0.9c-1.8,0-3.3,0.8-4.4,2.5c-1.1,1.6-1.6,3.6-1.6,6c0,2.6,0.6,4.8,1.9,6.5c1.3,1.7,2.8,2.6,4.6,2.6
			c1.1,0,1.9-0.3,2.5-1s0.9-1.6,0.9-2.6c0-0.4,0-1-0.1-1.8H103.5z"/>
		<path class="st0" d="M113.7,41.9c-0.5,0-0.7-0.2-0.7-0.7c0-0.2,0.1-0.5,0.4-0.7c0.2-0.2,0.5-0.3,0.7-0.3c0.2,0,0.4,0.1,0.8,0.2
			c0.3,0.2,0.5,0.4,0.5,0.9c0,0.8-0.2,1.4-0.7,1.9c-0.4,0.5-0.9,0.8-1.5,0.8c-0.4,0-0.8-0.2-1.1-0.7c-0.4-0.5-0.6-1-0.6-1.4
			c0-0.8,0.2-1.7,0.7-2.9s0.7-2.2,0.7-3.1c0-2.9-1.1-4.4-3.2-4.4c-0.7,0-1.4,0.4-2,1.1c-0.6,0.8-0.9,1.3-0.9,1.8
			c0.1,2.8,0.1,5.5,0.2,8.3c0.5,0,1.1,0,2,0l-0.1,0.7c-0.5-0.1-1.1-0.1-1.9-0.1c-1.2,0-2.2,0.1-2.9,0.2v-0.6c0.9,0,1.6,0,2.2-0.1
			c0.1-1.7-0.2-4.7-0.7-9.2s-1.1-8-1.7-10.7c-0.4,0.1-1,0.1-1.9,0.2v-0.5c1.2,0,3-0.3,5.5-0.7v0.5c-0.7,0.1-1.2,0.2-1.6,0.3
			c0.1,1,0.2,2.6,0.4,4.7l0.3,6c0.4-0.9,0.9-1.6,1.6-2.1c0.7-0.5,1.4-0.8,2.2-0.8c1.2,0,2.1,0.4,2.9,1.3c0.8,0.9,1.1,1.8,1.1,2.8
			c0,1.3-0.5,2.8-1.6,4.5c-0.3,0.5-0.6,0.9-0.7,1.2c-0.1,0.3-0.2,0.7-0.2,1.2c0,0.6,0.2,1,0.7,1.3c0.4,0.2,0.8,0.4,1.1,0.4
			c0.3,0,0.5-0.1,0.7-0.3c0.2-0.2,0.2-0.5,0.2-0.8s-0.1-0.6-0.2-0.9c-0.2-0.3-0.3-0.4-0.5-0.4c-0.3,0-0.4,0.3-0.4,0.8
			C113.6,41.7,113.6,41.8,113.7,41.9"/>
		<path class="st0" d="M120.3,33.7c-0.1,0.4-0.3,0.6-0.6,0.6c-0.2,0-0.4-0.1-0.5-0.2c-0.1-0.1-0.2-0.3-0.2-0.5
			c0-0.3,0.1-0.5,0.3-0.7c0.2-0.2,0.5-0.3,0.7-0.3c1.2,0,1.8,0.3,1.8,1c0,0.6-0.3,1.1-0.9,1.6s-1.1,0.7-1.6,0.7s-1-0.2-1.3-0.5
			c-0.4-0.3-0.5-0.7-0.5-1.2c0-1,0.5-2.1,1.4-3.2c1-1.1,1.9-1.6,3-1.6c0.8,0,1.6,0.4,2.1,1.1c0.6,0.7,0.9,1.7,0.9,2.8
			c0,0.8-0.1,1.4-0.3,2c-0.2,0.6-0.5,1.2-1,2c-1.1,1.9-1.7,3.6-1.7,5.2c0,0.2,0,0.4,0,0.6h-0.4v-1.8c-1.1,0.7-1.9,1.1-2.4,1.1
			c-0.6,0-1.1-0.2-1.5-0.6c-0.4-0.4-0.6-0.9-0.6-1.5s0.3-1.1,0.9-1.5s1.2-0.7,1.9-0.7c0.5,0,1.3-0.1,2.4-0.2c0.6-1.4,1-2.7,1-3.9
			c0-2.6-0.6-3.9-1.7-3.9s-1.8,0.4-2.3,1.1s-0.7,1.7-0.7,2.9c0,0.3,0.1,0.6,0.3,0.9c0.2,0.2,0.4,0.4,0.7,0.4c0.4,0,0.7-0.2,1-0.5
			c0.3-0.3,0.5-0.7,0.5-1.1c0-0.2-0.1-0.4-0.3-0.6c-0.2-0.2-0.4-0.2-0.7-0.2c-0.1,0-0.2,0.1-0.3,0.2c-0.1,0.1-0.1,0.2-0.1,0.3
			c0,0.2,0.1,0.3,0.3,0.3S120.2,33.8,120.3,33.7 M122.1,38.5c-0.7,0-1.3,0.1-1.8,0.2c-0.4,0.1-0.8,0.3-1.1,0.6s-0.4,0.7-0.4,1.1
			c0,0.4,0.1,0.7,0.3,0.9c0.2,0.2,0.4,0.3,0.7,0.3c0.5,0,1.1-0.3,1.8-1L122.1,38.5z"/>
		<path class="st0" d="M129.6,40.7c-0.4-0.4-0.7-0.6-1-0.6c-0.1,0-0.3,0.1-0.5,0.4c-0.2,0.2-0.3,0.4-0.3,0.6c0,0.4,0.3,0.9,0.8,1.2
			c0.5,0.4,1.1,0.6,1.9,0.6c0.4,0,0.8-0.2,1.2-0.7c0.4-0.5,0.6-1,0.6-1.5s-0.2-0.9-0.5-1.5c-0.3-0.5-1.3-1.4-2.9-2.7
			c-0.7-0.5-1.1-1-1.4-1.4s-0.5-0.8-0.6-1.3s-0.2-1-0.2-1.4c0-0.9,0.3-1.7,1-2.4c0.7-0.7,1.5-1.1,2.5-1.1c0.8,0,1.4,0.2,2,0.6
			c0.6,0.4,0.9,0.9,0.9,1.6c0,0.5-0.2,1-0.6,1.5c-0.4,0.5-0.9,0.7-1.4,0.7c-0.4,0-0.8-0.2-1-0.6c-0.3-0.4-0.4-0.8-0.4-1.2
			c0-0.5,0.3-0.7,0.8-0.7c0.2,0,0.3,0,0.5,0.1c0,0-0.1,0.1-0.1,0.2c-0.3,0.4-0.5,0.7-0.5,1c0,0.2,0.2,0.4,0.5,0.5s0.6,0.2,0.8,0.2
			c0.2,0,0.3-0.1,0.5-0.3c0.1-0.2,0.2-0.4,0.2-0.6c0-0.6-0.2-1.2-0.7-1.6c-0.4-0.5-1-0.7-1.6-0.7c-0.6,0-1,0.2-1.4,0.7
			c-0.4,0.4-0.6,0.9-0.6,1.4c0,1.8,0.8,3.2,2.3,4.4c1.7,1.3,2.5,2.6,2.5,3.9c0,0.7-0.1,1.4-0.4,1.9c-0.3,0.5-0.7,1-1.1,1.3
			c-0.4,0.3-0.8,0.6-1,0.6c-0.2,0.1-0.6,0.1-1.1,0.1c-0.6,0-1-0.3-1.4-0.8c-0.4-0.6-0.6-1.2-0.6-1.8c0-0.5,0.2-0.9,0.5-1.2
			c0.3-0.4,0.7-0.6,1.1-0.6c0.3,0,0.5,0.1,0.7,0.2c0.2,0.1,0.3,0.3,0.3,0.5C129.8,40.2,129.7,40.4,129.6,40.7"/>
		<path class="st0" d="M143.3,34.1c0.9-2.7,2.3-4,4.2-4c1.3,0,2.5,0.6,3.5,1.7c1,1.1,1.6,2.4,1.6,4c0,1.7-0.5,3.3-1.4,4.8
			c-1,1.5-2,2.3-3,2.3c-0.5,0-0.9-0.2-1.4-0.6c-0.4-0.4-0.7-0.9-0.7-1.3c0-0.4,0.2-0.7,0.6-1c0.4-0.3,0.8-0.4,1.2-0.4
			c0.9,0,1.4,0.3,1.4,0.9c0,0.6-0.3,0.8-1,0.8c-0.3,0-0.5-0.1-0.5-0.2l0.1-0.1c0.1,0,0.2,0.1,0.3,0.1c0.2,0,0.3-0.2,0.3-0.5
			c0-0.4-0.2-0.5-0.5-0.5c-0.2,0-0.4,0.1-0.5,0.4c-0.1,0.3-0.2,0.6-0.2,0.9c0,0.9,0.4,1.3,1.1,1.3c1.7,0,2.6-2.3,2.6-7
			c0-1.1-0.3-2.2-1-3.2s-1.4-1.5-2.3-1.5c-0.7,0-1.4,0.3-2,0.9c-0.6,0.6-1.1,1.3-1.4,2.1c-0.4,0.8-0.5,1.3-0.5,1.4l-0.5,7.1l1.4-0.4
			l0.2,0.6c-0.9,0.2-1.6,0.3-2.1,0.3c-0.4,0-1.1,0-1.9-0.1l0.1-0.6l1.7,0.1c0-0.4,0-0.8,0-1.3c0-3.7-0.3-7.1-1-10.4l-1.5,0.3
			l-0.2-0.5c1.2-0.2,2.5-0.5,3.8-1.2L143.3,34.1z"/>
		<path class="st0" d="M158.1,41.9c0.9-0.5,1.5-0.8,1.9-1c0.4-0.2,0.9-0.5,1.7-0.8s1.5-0.5,2.2-0.5c0.6,0,1.2,0.3,1.6,0.8
			c0.4,0.5,0.6,1.2,0.6,2c0,1.3-0.6,2.6-1.9,3.6c-1.3,1.1-2.9,1.6-4.9,1.6c-1.2,0-2.3-0.3-3.2-1c-0.9-0.6-1.3-1.4-1.3-2.3
			c0-1.1,0.8-2.1,2.3-2.9l0.2,0.3c-0.7,0.5-1,1.3-1,2.2s0.3,1.6,0.8,2.3c0.6,0.7,1.3,1,2.3,1c1.7,0,3.1-0.5,4.2-1.5
			c1.1-1,1.6-2,1.6-3c0-0.4-0.1-0.8-0.4-1.1s-0.7-0.4-1.1-0.4c-0.7,0-1.3,0.1-2,0.3c-0.6,0.2-1.3,0.5-2.1,0.9
			c-0.8,0.4-1.4,0.8-1.9,1.1l-0.4-0.2c0.2-0.4,0.4-1.2,0.5-2.3c0.1-1.1,0.2-1.9,0.3-2.4c-1-0.3-1.8-0.7-2.4-1.5
			c-0.6-0.7-0.9-1.6-0.9-2.5c0-1.4,0.5-2.7,1.5-3.7c1-1.1,2-1.6,3.2-1.6c0.7,0,1.3,0.2,1.8,0.6c-0.4-0.6-0.6-1.3-0.6-1.9
			c0-0.5,0.2-1,0.6-1.4c0.4-0.4,0.9-0.6,1.5-0.6c0.5,0,0.8,0.1,1.1,0.4c0.3,0.3,0.5,0.6,0.5,0.9s-0.1,0.5-0.4,0.8
			c-0.2,0.2-0.5,0.3-0.9,0.3c-0.2,0-0.4-0.2-0.5-0.5C162.8,28,163,28,163,28c0.3,0,0.4-0.2,0.4-0.7c0-0.3-0.1-0.5-0.2-0.7
			c-0.1-0.2-0.3-0.3-0.5-0.3c-0.4,0-0.7,0.2-1,0.5c-0.2,0.3-0.3,0.8-0.3,1.3c0,0.9,0.1,1.6,0.3,1.9l-0.4,0.2
			c-0.4-0.4-1.1-0.6-1.9-0.6c-1,0-1.8,0.4-2.4,1.3c-0.6,0.9-0.9,1.9-0.9,3.1c0,1.3,0.2,2.3,0.7,3s1.1,1.1,1.8,1.1
			c0.9,0,1.6-0.4,2.2-1.3c0.6-0.9,0.9-1.9,0.9-3c0-0.7-0.2-1.4-0.7-2s-1-0.9-1.6-0.9c-0.3,0-0.5,0.1-0.7,0.4
			c-0.2,0.2-0.3,0.5-0.3,0.8c0,0.4,0.1,0.7,0.2,1c0.1,0.3,0.3,0.4,0.5,0.4c0.1,0,0.2-0.1,0.4-0.2c0.1-0.1,0.2-0.3,0.2-0.5
			s-0.1-0.3-0.2-0.3c-0.2,0-0.3,0.1-0.4,0.2c0-0.2,0.1-0.4,0.2-0.5c0.1-0.1,0.2-0.2,0.3-0.2c0.5,0,0.8,0.2,0.8,0.7
			c0,0.3-0.1,0.5-0.4,0.8c-0.3,0.2-0.6,0.4-0.9,0.4c-0.4,0-0.8-0.1-1.1-0.4c-0.3-0.3-0.4-0.7-0.4-1.1c0-0.3,0.2-0.6,0.6-1
			c0.4-0.4,0.8-0.5,1.3-0.5c0.9,0,1.7,0.3,2.4,1s1.1,1.5,1.1,2.4c0,1.2-0.5,2.3-1.4,3.2c-1,0.9-2,1.4-3,1.4
			C158.3,40.3,158.2,41.3,158.1,41.9"/>
		<path class="st0" d="M175.7,31.4c-0.1,0.2-0.2,0.2-0.4,0.2c-0.1,0-0.2-0.1-0.3-0.2c-0.1-0.2-0.1-0.3-0.1-0.4
			c0-0.1,0.1-0.3,0.3-0.5c0.2-0.2,0.4-0.3,0.5-0.3c0.2,0,0.4,0.1,0.6,0.4c0.2,0.2,0.3,0.5,0.3,0.7c0,0.5-0.1,0.9-0.4,1.2
			s-0.6,0.5-0.9,0.5c-0.4,0-0.7-0.2-1-0.5c-0.3-0.4-0.4-0.8-0.4-1.2c0-0.6,0.3-1.2,0.9-1.8c0.6-0.6,1.3-0.8,2.2-0.8
			c1.3,0,2.5,0.6,3.5,1.7c1,1.1,1.5,2.3,1.5,3.6c0,1.6-0.6,3.1-1.7,4.5c-1.1,1.3-2.4,2-3.9,2c-1.7,0-3.1-0.6-4.3-1.7
			c-1.2-1.1-1.8-2.5-1.8-4s0.5-2.9,1.4-4.1c0.9-1.2,2.1-2,3.5-2.4l0.1,0.3c-1.1,0.2-2,0.9-2.7,2c-0.7,1.1-1,2.4-1,4s0.5,2.9,1.4,4
			c0.9,1.1,2.1,1.6,3.5,1.6c1.2,0,2.1-0.6,2.9-1.7c0.8-1.2,1.1-2.5,1.1-4s-0.4-2.7-1.1-3.7s-1.7-1.5-2.8-1.5c-0.7,0-1.3,0.2-1.8,0.7
			c-0.5,0.4-0.7,0.9-0.7,1.4c0,0.3,0.1,0.5,0.3,0.7c0.2,0.2,0.5,0.3,0.7,0.3c0.3,0,0.6-0.1,0.8-0.2c0.2-0.2,0.3-0.3,0.3-0.6
			c0-0.2-0.1-0.3-0.2-0.5c-0.1-0.1-0.3-0.2-0.4-0.2c-0.4,0-0.5,0.1-0.5,0.2C175.1,31.1,175.3,31.2,175.7,31.4"/>
		<path class="st0" d="M191.5,40.3c-0.7,0.2-1.3,0.4-1.7,0.7l-0.2-2.2c-0.8,1.1-1.7,1.7-2.8,1.7c-0.8,0-1.6-0.3-2.3-1s-1-1.5-1-2.5
			c0-0.4,0.1-0.8,0.3-1.3c0.2-0.5,0.5-0.9,0.8-1.2s0.5-0.6,0.8-1c0.2-0.4,0.3-0.7,0.3-0.9c0-0.7-0.3-1-0.8-1c-0.2,0-0.5,0.1-0.7,0.2
			c-0.2,0.1-0.3,0.3-0.3,0.5c0,0.1,0.1,0.3,0.2,0.4c0.1,0.1,0.2,0.2,0.4,0.2s0.3,0,0.3,0l0.1-0.1c0-0.2-0.1-0.3-0.4-0.3
			c0.1-0.1,0.2-0.2,0.3-0.2s0.2,0.1,0.3,0.2c0.1,0.1,0.1,0.2,0.1,0.4s-0.1,0.4-0.3,0.6c-0.2,0.2-0.4,0.3-0.6,0.3s-0.4-0.1-0.5-0.3
			c-0.2-0.2-0.2-0.4-0.2-0.6c0-0.4,0.1-0.8,0.4-1.1c0.3-0.4,0.6-0.5,0.9-0.5s0.6,0.1,0.9,0.4c0.2,0.3,0.3,0.7,0.3,1.1
			c0,0.6-0.1,1.1-0.4,1.7c-0.7,1.2-1,2.1-1,2.7c0,1,0.2,1.7,0.7,2.3s1.1,0.8,1.8,0.8c0.9,0,1.7-0.6,2.4-1.9c-0.2-2-0.5-4-1-5.9
			l-1,0.1v-0.4c1.1,0,2.1-0.2,3-0.5l0.1,0.4l-0.9,0.3c0,2.1,0.1,4.9,0.3,8.3c0.4-0.1,0.8-0.2,1.2-0.4H191.5z"/>
		<path class="st0" d="M194,33.9c0.2-0.9,0.6-1.5,1.1-2s0.9-0.7,1.4-0.7s0.8,0.2,1.2,0.6c0.3,0.4,0.5,0.8,0.5,1.4
			c0,0.6-0.2,1.2-0.5,1.6c-0.4,0.4-0.8,0.6-1.4,0.6c-0.3,0-0.6-0.1-0.8-0.4c-0.2-0.2-0.3-0.5-0.3-0.9c0-0.2,0.1-0.4,0.4-0.6
			c0.3-0.2,0.5-0.4,0.7-0.4s0.5,0.1,0.6,0.2c0.2,0.1,0.3,0.3,0.3,0.5s-0.2,0.4-0.6,0.5c0.1-0.2,0.1-0.3,0.1-0.5s-0.1-0.4-0.2-0.4
			c-0.1,0-0.3,0.1-0.4,0.3c-0.1,0.2-0.1,0.4-0.1,0.5c0,0.2,0.1,0.3,0.2,0.5c0.1,0.2,0.3,0.2,0.4,0.2c0.4,0,0.7-0.2,1-0.5
			c0.2-0.3,0.4-0.7,0.4-1.1c0-0.3-0.1-0.6-0.4-0.8s-0.6-0.4-1-0.4c-0.4,0-0.7,0.1-1,0.3s-0.6,0.6-0.9,1.1s-0.4,0.8-0.4,1
			c0,0.1,0.1,1.9,0.3,5.3c0.7-0.2,1.4-0.5,2-0.9l0.1,0.5c-0.7,0.3-1.3,0.6-1.9,0.8c-0.6,0.2-1.3,0.4-2.2,0.5v-0.5
			c0.5,0,1.1-0.1,1.6-0.2c0-0.7-0.1-1.8-0.4-3.4c-0.3-1.6-0.6-3-0.9-4.1l-1.3,0.5l-0.1-0.3c1.2-0.3,2.1-0.8,2.8-1.5
			c0,0.5-0.1,0.9-0.1,1.1C193.9,32.8,193.9,33.4,194,33.9"/>
		<path class="st0" d="M214.3,19.9c-0.1-0.1-0.1-0.2-0.1-0.3c0-0.2,0.1-0.4,0.3-0.5c0.2-0.2,0.4-0.2,0.7-0.2c0.4,0,0.8,0.1,1.2,0.4
			c0.3,0.3,0.5,0.5,0.5,0.8c0,0.5-0.3,1-0.8,1.3c-0.5,0.4-1.2,0.6-1.9,0.6c-0.8,0-1.4-0.2-2-0.6c-0.6-0.4-0.8-0.9-0.8-1.5
			s0.4-1.2,1.3-1.7c0.9-0.5,1.9-0.8,3.2-0.8s2.4,0.3,3.5,0.9s1.6,1.3,1.6,2.2c0,1.4-0.7,2.4-2.1,3.1s-3.9,1.2-7.5,1.5
			c0.1,2.5,0.2,4.6,0.2,6.4c0,2.2-0.1,5.8-0.4,10.7c2.1,0,3.8-0.2,5.1-0.7v1c-1.8,0.2-3.7,0.4-5.7,0.4c-0.7,0-1.6,0.1-2.8,0.4v-1
			l2.4-0.1c0-2.1-0.2-5.1-0.6-8.8c-0.4-3.7-0.9-6.4-1.4-8c-1.6,0.3-4.1,0.5-7.3,0.8l0.3,3l-1,0.1c-0.1-1.9-0.3-3.4-0.6-4.4l1-0.1
			l0.2,0.7c3.6-0.3,7-0.6,10.2-1.1s5.4-1,6.6-1.7c1.1-0.6,1.7-1.5,1.7-2.7c0-0.7-0.3-1.2-0.9-1.7c-0.6-0.4-1.4-0.7-2.4-0.7
			c-0.7,0-1.4,0.2-2.1,0.6c-0.6,0.4-1,0.9-1,1.4c0,0.4,0.2,0.8,0.5,1.2c0.3,0.4,0.7,0.6,1.1,0.6c0.5,0,0.8-0.1,1.1-0.3
			c0.3-0.2,0.4-0.5,0.4-0.8c0-0.2-0.1-0.3-0.2-0.5c-0.1-0.2-0.3-0.2-0.5-0.2C215,19.6,214.7,19.7,214.3,19.9"/>
		<path class="st0" d="M223.3,32.5c-0.1,0.4-0.4,0.7-0.9,0.7c-0.3,0-0.5-0.1-0.7-0.2c-0.2-0.2-0.3-0.4-0.3-0.6
			c0-0.3,0.2-0.6,0.5-0.9c0.3-0.3,0.7-0.4,1.1-0.4c1.7,0,2.6,0.4,2.6,1.3c0,0.7-0.4,1.3-1.3,1.9c-0.9,0.6-1.7,0.9-2.3,0.9
			c-0.8,0-1.4-0.2-1.9-0.5c-0.5-0.4-0.8-0.8-0.8-1.4c0-1.2,0.7-2.5,2.1-3.8c1.4-1.3,2.9-1.9,4.4-1.9c1.3,0,2.3,0.4,3.2,1.3
			s1.3,2,1.3,3.3c0,0.9-0.2,1.7-0.5,2.4s-0.8,1.4-1.4,2.3c-1.7,2.3-2.5,4.3-2.5,6.2c0,0.2,0,0.4,0,0.7h-0.8v-2.1
			c-1.6,0.9-2.8,1.3-3.5,1.3c-0.9,0-1.6-0.2-2.2-0.7c-0.6-0.4-0.9-1-0.9-1.7s0.4-1.3,1.3-1.8c0.8-0.5,1.8-0.8,2.8-0.8
			c0.7,0,1.9-0.1,3.5-0.2c1-1.7,1.4-3.3,1.4-4.6c0-3.1-0.9-4.6-2.6-4.6c-1.6,0-2.7,0.4-3.4,1.3c-0.7,0.8-1,2-1,3.5
			c0,0.4,0.1,0.8,0.4,1c0.3,0.3,0.6,0.4,1.1,0.4s1-0.2,1.5-0.6c0.5-0.4,0.7-0.8,0.7-1.3c0-0.3-0.1-0.5-0.4-0.7
			c-0.3-0.2-0.6-0.3-1-0.3c-0.2,0-0.3,0.1-0.4,0.2c-0.1,0.1-0.2,0.3-0.2,0.4c0,0.3,0.1,0.4,0.4,0.4
			C222.9,32.6,223.1,32.6,223.3,32.5 M225.8,38.2c-1.1,0.1-2,0.1-2.6,0.2c-0.7,0.1-1.2,0.3-1.6,0.8c-0.4,0.4-0.6,0.8-0.6,1.3
			c0,0.4,0.1,0.8,0.4,1.1c0.3,0.3,0.6,0.4,1.1,0.4c0.8,0,1.7-0.4,2.7-1.2L225.8,38.2z"/>
		<path class="st0" d="M240.1,43.3c-3,0-4.8,0-5.6,0.1c-0.7,0.1-1.4,0.2-1.9,0.3v-0.9l2.5-0.1c0-4.6-0.3-9.1-0.9-13.3l-2.2-0.1v-0.6
			c1.3,0,2.3,0,2.8,0c0.9,0,2.2-0.2,3.7-0.6v0.7l-1.7,0.4l-0.4,5.2l-0.5,8.1c1.5,0,2.9-0.1,4.2-0.2L240.1,43.3L240.1,43.3z
			 M238.7,24h-0.2c-0.5-0.7-1.2-1-2.2-1c-0.7,0-1.4,0.2-2,0.5c-0.6,0.4-0.9,0.8-0.9,1.3c0,0.6,0.3,1,0.8,1.4c0.5,0.3,1,0.5,1.5,0.5
			c1,0,1.5-0.4,1.5-1.1c0-0.8-0.4-1.2-1.1-1.2c-0.1,0-0.3,0-0.5,0.1s-0.2,0.2-0.2,0.3c0,0.3,0.2,0.4,0.6,0.4c0.2,0,0.4-0.1,0.6-0.2
			c-0.1,0.6-0.4,0.8-0.9,0.8c-0.2,0-0.4-0.1-0.6-0.3c-0.2-0.2-0.2-0.4-0.2-0.5c0-0.3,0.1-0.5,0.4-0.7c0.3-0.2,0.6-0.3,1-0.3
			c0.5,0,1,0.1,1.4,0.4c0.4,0.2,0.7,0.6,0.7,1s-0.3,0.8-0.8,1.1c-0.5,0.3-1.1,0.5-1.8,0.5c-0.8,0-1.4-0.2-2-0.7
			c-0.6-0.4-0.9-1-0.9-1.6c0-0.7,0.3-1.3,0.9-1.8c0.6-0.5,1.2-0.8,1.9-0.8C237.3,22.2,238.3,22.8,238.7,24"/>
		<path class="st0" d="M246.9,39.9c-0.2,0.7-0.5,1.1-1.1,1.1c-0.9,0-1.3-0.4-1.3-1.1c0-0.5,0.3-1,0.8-1.4s1.2-0.6,1.8-0.6
			s1.1,0.2,1.5,0.7c0.4,0.4,0.7,0.9,0.7,1.5c0,1.1-0.6,2-1.9,2.7c-1.3,0.8-2.5,1.1-3.7,1.1c-0.5,0-1-0.2-1.5-0.6
			c-0.5-0.4-0.8-0.9-0.8-1.5c0-1.3,0.2-3.1,0.7-5.4c0.5-2.2,0.8-4.5,1-6.7s0.3-5.5,0.3-9.7l-2.4,0.1v-0.5c2.4,0,4.8-0.3,7.2-0.9v0.6
			l-1.6,0.4c-0.8,5.3-1.4,8.9-1.7,10.7c-0.4,1.9-0.9,3.9-1.7,6.2c-0.7,2.3-1.1,3.8-1.1,4.7c0,0.4,0.2,0.9,0.6,1.4
			c0.4,0.5,0.9,0.7,1.3,0.7c1.1,0,2-0.3,2.8-0.8c0.8-0.6,1.2-1.3,1.2-2.2c0-0.3-0.1-0.7-0.4-0.9c-0.3-0.3-0.6-0.4-1-0.4
			c-1,0-1.5,0.3-1.5,1c0,0.2,0.2,0.4,0.5,0.4c0.4,0,0.7-0.1,1-0.4L246.9,39.9z"/>
		<path class="st0" d="M254.9,40.8c-0.6-0.4-1-0.7-1.4-0.7c-0.2,0-0.5,0.1-0.8,0.4c-0.3,0.3-0.5,0.5-0.5,0.7c0,0.5,0.4,1,1.1,1.5
			c0.7,0.5,1.7,0.7,2.8,0.7c0.5,0,1.1-0.3,1.7-0.8c0.6-0.6,0.9-1.2,0.9-1.8c0-0.5-0.3-1.1-0.7-1.8c-0.5-0.6-1.9-1.7-4.2-3.2
			c-1-0.7-1.7-1.2-2.1-1.6c-0.4-0.4-0.7-0.9-0.9-1.5s-0.3-1.1-0.3-1.7c0-1,0.5-2,1.5-2.9s2.2-1.3,3.7-1.3c1.1,0,2.1,0.2,3,0.7
			s1.3,1.1,1.3,1.9c0,0.6-0.3,1.2-0.9,1.8c-0.6,0.6-1.3,0.8-2,0.8c-0.6,0-1.1-0.3-1.5-0.8s-0.6-1-0.6-1.5c0-0.6,0.4-0.9,1.2-0.9
			c0.3,0,0.5,0,0.7,0.1c0,0-0.1,0.1-0.2,0.2c-0.5,0.4-0.7,0.8-0.7,1.2c0,0.3,0.2,0.5,0.7,0.6c0.5,0.2,0.9,0.2,1.2,0.2
			c0.3,0,0.5-0.1,0.7-0.3c0.2-0.2,0.3-0.5,0.3-0.7c0-0.7-0.3-1.4-1-1.9c-0.6-0.6-1.4-0.9-2.3-0.9c-0.8,0-1.5,0.3-2.1,0.8
			s-0.8,1.1-0.8,1.7c0,2.1,1.2,3.8,3.4,5.3c2.4,1.6,3.7,3.1,3.7,4.6c0,0.9-0.2,1.6-0.7,2.3c-0.4,0.6-1,1.2-1.6,1.6
			c-0.6,0.4-1.1,0.7-1.5,0.8s-0.9,0.1-1.7,0.1s-1.5-0.3-2.1-1s-0.9-1.4-0.9-2.1c0-0.5,0.2-1,0.7-1.5c0.5-0.4,1-0.7,1.5-0.7
			c0.4,0,0.7,0.1,1,0.3s0.4,0.4,0.4,0.6C255.3,40.3,255.1,40.5,254.9,40.8"/>
		<path class="st0" d="M140.3,42.3c-2,0-3.3,0-3.8,0.1s-0.9,0.1-1.3,0.2v-0.7l1.7-0.1c0-3.9-0.2-7.6-0.6-11.2l-1.5-0.1V30
			c0.9,0,1.5,0,1.9,0c0.6,0,1.5-0.2,2.5-0.5v0.6l-1.2,0.3l-0.3,4.3l-0.3,6.8c1,0,1.9-0.1,2.8-0.2L140.3,42.3L140.3,42.3z
			 M139.3,26.1h-0.2c-0.3-0.5-0.8-0.8-1.5-0.8c-0.5,0-1,0.2-1.4,0.5c-0.4,0.3-0.6,0.7-0.6,1.1c0,0.5,0.2,0.9,0.5,1.2
			c0.3,0.3,0.7,0.4,1,0.4c0.7,0,1-0.3,1-0.9c0-0.7-0.3-1-0.8-1c-0.1,0-0.2,0-0.3,0.1c-0.1,0.1-0.2,0.2-0.2,0.3
			c0,0.2,0.1,0.3,0.4,0.3c0.1,0,0.2-0.1,0.4-0.2c-0.1,0.5-0.3,0.7-0.6,0.7c-0.1,0-0.3-0.1-0.4-0.3c-0.1-0.2-0.2-0.3-0.2-0.4
			c0-0.2,0.1-0.4,0.3-0.6s0.4-0.2,0.7-0.2c0.4,0,0.7,0.1,1,0.3c0.3,0.2,0.4,0.5,0.4,0.8c0,0.4-0.2,0.7-0.6,1s-0.8,0.4-1.2,0.4
			c-0.5,0-1-0.2-1.4-0.6c-0.4-0.4-0.6-0.8-0.6-1.4s0.2-1.1,0.6-1.5c0.4-0.4,0.8-0.7,1.3-0.7C138.4,24.5,139.1,25,139.3,26.1"/>
	</g>
	<g>
		<path class="st0" d="M103.5,37.3c-0.1,1.9-0.6,3.4-1.6,4.5s-2.3,1.6-3.9,1.6c-1.8,0-3.5-0.9-5.1-2.7s-2.4-3.8-2.4-6
			c0-1.3,0.4-2.9,1.1-4.6c0.7-1.7,1.7-3,2.9-4.1c1.2-1,2.5-1.5,3.9-1.5c1.3,0,2.4,0.4,3.2,1.1c0.8,0.7,1.2,1.5,1.2,2.4
			c0,0.8-0.4,1.6-1.1,2.3c-0.8,0.7-1.6,1-2.5,1c-0.5,0-1.1-0.2-1.6-0.6c-0.5-0.4-0.8-0.9-0.8-1.6c0-0.6,0.2-1,0.5-1.4
			c0.3-0.4,0.8-0.5,1.3-0.5c0.4,0,0.7,0.1,1,0.4c0.3,0.3,0.5,0.5,0.5,0.8c0,0.4-0.1,0.8-0.3,1c-0.2,0.3-0.4,0.4-0.6,0.4
			c-0.3,0-0.5-0.1-0.6-0.4c0.2,0,0.4-0.1,0.6-0.2c0.2-0.2,0.3-0.3,0.3-0.5c0-0.6-0.2-0.9-0.5-0.9c-0.4,0-0.8,0.2-1.1,0.5
			s-0.5,0.7-0.5,1.1c0,0.3,0.2,0.6,0.5,1c0.3,0.3,0.7,0.5,1.2,0.5c0.6,0,1.1-0.3,1.5-0.9c0.4-0.6,0.6-1.3,0.6-2c0-0.8-0.3-1.4-0.8-2
			s-1.2-0.9-2.1-0.9c-1.8,0-3.3,0.8-4.4,2.5c-1.1,1.6-1.6,3.6-1.6,6c0,2.6,0.6,4.8,1.9,6.5c1.3,1.7,2.8,2.6,4.6,2.6
			c1.1,0,1.9-0.3,2.5-1s0.9-1.6,0.9-2.6c0-0.4,0-1-0.1-1.8H103.5z"/>
		<path class="st0" d="M113.7,41.9c-0.5,0-0.7-0.2-0.7-0.7c0-0.2,0.1-0.5,0.4-0.7c0.2-0.2,0.5-0.3,0.7-0.3c0.2,0,0.4,0.1,0.8,0.2
			c0.3,0.2,0.5,0.4,0.5,0.9c0,0.8-0.2,1.4-0.7,1.9c-0.4,0.5-0.9,0.8-1.5,0.8c-0.4,0-0.8-0.2-1.1-0.7c-0.4-0.5-0.6-1-0.6-1.4
			c0-0.8,0.2-1.7,0.7-2.9s0.7-2.2,0.7-3.1c0-2.9-1.1-4.4-3.2-4.4c-0.7,0-1.4,0.4-2,1.1c-0.6,0.8-0.9,1.3-0.9,1.8
			c0.1,2.8,0.1,5.5,0.2,8.3c0.5,0,1.1,0,2,0l-0.1,0.7c-0.5-0.1-1.1-0.1-1.9-0.1c-1.2,0-2.2,0.1-2.9,0.2v-0.6c0.9,0,1.6,0,2.2-0.1
			c0.1-1.7-0.2-4.7-0.7-9.2s-1.1-8-1.7-10.7c-0.4,0.1-1,0.1-1.9,0.2v-0.5c1.2,0,3-0.3,5.5-0.7v0.5c-0.7,0.1-1.2,0.2-1.6,0.3
			c0.1,1,0.2,2.6,0.4,4.7l0.3,6c0.4-0.9,0.9-1.6,1.6-2.1c0.7-0.5,1.4-0.8,2.2-0.8c1.2,0,2.1,0.4,2.9,1.3c0.8,0.9,1.1,1.8,1.1,2.8
			c0,1.3-0.5,2.8-1.6,4.5c-0.3,0.5-0.6,0.9-0.7,1.2c-0.1,0.3-0.2,0.7-0.2,1.2c0,0.6,0.2,1,0.7,1.3c0.4,0.2,0.8,0.4,1.1,0.4
			c0.3,0,0.5-0.1,0.7-0.3c0.2-0.2,0.2-0.5,0.2-0.8s-0.1-0.6-0.2-0.9c-0.2-0.3-0.3-0.4-0.5-0.4c-0.3,0-0.4,0.3-0.4,0.8
			C113.6,41.7,113.6,41.8,113.7,41.9"/>
		<path class="st0" d="M120.3,33.7c-0.1,0.4-0.3,0.6-0.6,0.6c-0.2,0-0.4-0.1-0.5-0.2c-0.1-0.1-0.2-0.3-0.2-0.5
			c0-0.3,0.1-0.5,0.3-0.7c0.2-0.2,0.5-0.3,0.7-0.3c1.2,0,1.8,0.3,1.8,1c0,0.6-0.3,1.1-0.9,1.6s-1.1,0.7-1.6,0.7s-1-0.2-1.3-0.5
			c-0.4-0.3-0.5-0.7-0.5-1.2c0-1,0.5-2.1,1.4-3.2c1-1.1,1.9-1.6,3-1.6c0.8,0,1.6,0.4,2.1,1.1c0.6,0.7,0.9,1.7,0.9,2.8
			c0,0.8-0.1,1.4-0.3,2c-0.2,0.6-0.5,1.2-1,2c-1.1,1.9-1.7,3.6-1.7,5.2c0,0.2,0,0.4,0,0.6h-0.4v-1.8c-1.1,0.7-1.9,1.1-2.4,1.1
			c-0.6,0-1.1-0.2-1.5-0.6c-0.4-0.4-0.6-0.9-0.6-1.5s0.3-1.1,0.9-1.5s1.2-0.7,1.9-0.7c0.5,0,1.3-0.1,2.4-0.2c0.6-1.4,1-2.7,1-3.9
			c0-2.6-0.6-3.9-1.7-3.9s-1.8,0.4-2.3,1.1s-0.7,1.7-0.7,2.9c0,0.3,0.1,0.6,0.3,0.9c0.2,0.2,0.4,0.4,0.7,0.4c0.4,0,0.7-0.2,1-0.5
			c0.3-0.3,0.5-0.7,0.5-1.1c0-0.2-0.1-0.4-0.3-0.6c-0.2-0.2-0.4-0.2-0.7-0.2c-0.1,0-0.2,0.1-0.3,0.2c-0.1,0.1-0.1,0.2-0.1,0.3
			c0,0.2,0.1,0.3,0.3,0.3S120.2,33.8,120.3,33.7 M122.1,38.5c-0.7,0-1.3,0.1-1.8,0.2c-0.4,0.1-0.8,0.3-1.1,0.6s-0.4,0.7-0.4,1.1
			c0,0.4,0.1,0.7,0.3,0.9c0.2,0.2,0.4,0.3,0.7,0.3c0.5,0,1.1-0.3,1.8-1L122.1,38.5z"/>
		<path class="st0" d="M129.6,40.7c-0.4-0.4-0.7-0.6-1-0.6c-0.1,0-0.3,0.1-0.5,0.4c-0.2,0.2-0.3,0.4-0.3,0.6c0,0.4,0.3,0.9,0.8,1.2
			c0.5,0.4,1.1,0.6,1.9,0.6c0.4,0,0.8-0.2,1.2-0.7c0.4-0.5,0.6-1,0.6-1.5s-0.2-0.9-0.5-1.5c-0.3-0.5-1.3-1.4-2.9-2.7
			c-0.7-0.5-1.1-1-1.4-1.4s-0.5-0.8-0.6-1.3s-0.2-1-0.2-1.4c0-0.9,0.3-1.7,1-2.4c0.7-0.7,1.5-1.1,2.5-1.1c0.8,0,1.4,0.2,2,0.6
			c0.6,0.4,0.9,0.9,0.9,1.6c0,0.5-0.2,1-0.6,1.5c-0.4,0.5-0.9,0.7-1.4,0.7c-0.4,0-0.8-0.2-1-0.6c-0.3-0.4-0.4-0.8-0.4-1.2
			c0-0.5,0.3-0.7,0.8-0.7c0.2,0,0.3,0,0.5,0.1c0,0-0.1,0.1-0.1,0.2c-0.3,0.4-0.5,0.7-0.5,1c0,0.2,0.2,0.4,0.5,0.5s0.6,0.2,0.8,0.2
			c0.2,0,0.3-0.1,0.5-0.3c0.1-0.2,0.2-0.4,0.2-0.6c0-0.6-0.2-1.2-0.7-1.6c-0.4-0.5-1-0.7-1.6-0.7c-0.6,0-1,0.2-1.4,0.7
			c-0.4,0.4-0.6,0.9-0.6,1.4c0,1.8,0.8,3.2,2.3,4.4c1.7,1.3,2.5,2.6,2.5,3.9c0,0.7-0.1,1.4-0.4,1.9c-0.3,0.5-0.7,1-1.1,1.3
			c-0.4,0.3-0.8,0.6-1,0.6c-0.2,0.1-0.6,0.1-1.1,0.1c-0.6,0-1-0.3-1.4-0.8c-0.4-0.6-0.6-1.2-0.6-1.8c0-0.5,0.2-0.9,0.5-1.2
			c0.3-0.4,0.7-0.6,1.1-0.6c0.3,0,0.5,0.1,0.7,0.2c0.2,0.1,0.3,0.3,0.3,0.5C129.8,40.2,129.7,40.4,129.6,40.7"/>
		<path class="st0" d="M143.3,34.1c0.9-2.7,2.3-4,4.2-4c1.3,0,2.5,0.6,3.5,1.7c1,1.1,1.6,2.4,1.6,4c0,1.7-0.5,3.3-1.4,4.8
			c-1,1.5-2,2.3-3,2.3c-0.5,0-0.9-0.2-1.4-0.6c-0.4-0.4-0.7-0.9-0.7-1.3c0-0.4,0.2-0.7,0.6-1c0.4-0.3,0.8-0.4,1.2-0.4
			c0.9,0,1.4,0.3,1.4,0.9c0,0.6-0.3,0.8-1,0.8c-0.3,0-0.5-0.1-0.5-0.2l0.1-0.1c0.1,0,0.2,0.1,0.3,0.1c0.2,0,0.3-0.2,0.3-0.5
			c0-0.4-0.2-0.5-0.5-0.5c-0.2,0-0.4,0.1-0.5,0.4c-0.1,0.3-0.2,0.6-0.2,0.9c0,0.9,0.4,1.3,1.1,1.3c1.7,0,2.6-2.3,2.6-7
			c0-1.1-0.3-2.2-1-3.2s-1.4-1.5-2.3-1.5c-0.7,0-1.4,0.3-2,0.9c-0.6,0.6-1.1,1.3-1.4,2.1c-0.4,0.8-0.5,1.3-0.5,1.4l-0.5,7.1l1.4-0.4
			l0.2,0.6c-0.9,0.2-1.6,0.3-2.1,0.3c-0.4,0-1.1,0-1.9-0.1l0.1-0.6l1.7,0.1c0-0.4,0-0.8,0-1.3c0-3.7-0.3-7.1-1-10.4l-1.5,0.3
			l-0.2-0.5c1.2-0.2,2.5-0.5,3.8-1.2L143.3,34.1z"/>
		<path class="st0" d="M158.1,41.9c0.9-0.5,1.5-0.8,1.9-1c0.4-0.2,0.9-0.5,1.7-0.8s1.5-0.5,2.2-0.5c0.6,0,1.2,0.3,1.6,0.8
			c0.4,0.5,0.6,1.2,0.6,2c0,1.3-0.6,2.6-1.9,3.6c-1.3,1.1-2.9,1.6-4.9,1.6c-1.2,0-2.3-0.3-3.2-1c-0.9-0.6-1.3-1.4-1.3-2.3
			c0-1.1,0.8-2.1,2.3-2.9l0.2,0.3c-0.7,0.5-1,1.3-1,2.2s0.3,1.6,0.8,2.3c0.6,0.7,1.3,1,2.3,1c1.7,0,3.1-0.5,4.2-1.5
			c1.1-1,1.6-2,1.6-3c0-0.4-0.1-0.8-0.4-1.1s-0.7-0.4-1.1-0.4c-0.7,0-1.3,0.1-2,0.3c-0.6,0.2-1.3,0.5-2.1,0.9
			c-0.8,0.4-1.4,0.8-1.9,1.1l-0.4-0.2c0.2-0.4,0.4-1.2,0.5-2.3c0.1-1.1,0.2-1.9,0.3-2.4c-1-0.3-1.8-0.7-2.4-1.5
			c-0.6-0.7-0.9-1.6-0.9-2.5c0-1.4,0.5-2.7,1.5-3.7c1-1.1,2-1.6,3.2-1.6c0.7,0,1.3,0.2,1.8,0.6c-0.4-0.6-0.6-1.3-0.6-1.9
			c0-0.5,0.2-1,0.6-1.4c0.4-0.4,0.9-0.6,1.5-0.6c0.5,0,0.8,0.1,1.1,0.4c0.3,0.3,0.5,0.6,0.5,0.9s-0.1,0.5-0.4,0.8
			c-0.2,0.2-0.5,0.3-0.9,0.3c-0.2,0-0.4-0.2-0.5-0.5C162.8,28,163,28,163,28c0.3,0,0.4-0.2,0.4-0.7c0-0.3-0.1-0.5-0.2-0.7
			c-0.1-0.2-0.3-0.3-0.5-0.3c-0.4,0-0.7,0.2-1,0.5c-0.2,0.3-0.3,0.8-0.3,1.3c0,0.9,0.1,1.6,0.3,1.9l-0.4,0.2
			c-0.4-0.4-1.1-0.6-1.9-0.6c-1,0-1.8,0.4-2.4,1.3c-0.6,0.9-0.9,1.9-0.9,3.1c0,1.3,0.2,2.3,0.7,3s1.1,1.1,1.8,1.1
			c0.9,0,1.6-0.4,2.2-1.3c0.6-0.9,0.9-1.9,0.9-3c0-0.7-0.2-1.4-0.7-2s-1-0.9-1.6-0.9c-0.3,0-0.5,0.1-0.7,0.4
			c-0.2,0.2-0.3,0.5-0.3,0.8c0,0.4,0.1,0.7,0.2,1c0.1,0.3,0.3,0.4,0.5,0.4c0.1,0,0.2-0.1,0.4-0.2c0.1-0.1,0.2-0.3,0.2-0.5
			s-0.1-0.3-0.2-0.3c-0.2,0-0.3,0.1-0.4,0.2c0-0.2,0.1-0.4,0.2-0.5c0.1-0.1,0.2-0.2,0.3-0.2c0.5,0,0.8,0.2,0.8,0.7
			c0,0.3-0.1,0.5-0.4,0.8c-0.3,0.2-0.6,0.4-0.9,0.4c-0.4,0-0.8-0.1-1.1-0.4c-0.3-0.3-0.4-0.7-0.4-1.1c0-0.3,0.2-0.6,0.6-1
			c0.4-0.4,0.8-0.5,1.3-0.5c0.9,0,1.7,0.3,2.4,1s1.1,1.5,1.1,2.4c0,1.2-0.5,2.3-1.4,3.2c-1,0.9-2,1.4-3,1.4
			C158.3,40.3,158.2,41.3,158.1,41.9"/>
		<path class="st0" d="M175.7,31.4c-0.1,0.2-0.2,0.2-0.4,0.2c-0.1,0-0.2-0.1-0.3-0.2c-0.1-0.2-0.1-0.3-0.1-0.4
			c0-0.1,0.1-0.3,0.3-0.5c0.2-0.2,0.4-0.3,0.5-0.3c0.2,0,0.4,0.1,0.6,0.4c0.2,0.2,0.3,0.5,0.3,0.7c0,0.5-0.1,0.9-0.4,1.2
			s-0.6,0.5-0.9,0.5c-0.4,0-0.7-0.2-1-0.5c-0.3-0.4-0.4-0.8-0.4-1.2c0-0.6,0.3-1.2,0.9-1.8c0.6-0.6,1.3-0.8,2.2-0.8
			c1.3,0,2.5,0.6,3.5,1.7c1,1.1,1.5,2.3,1.5,3.6c0,1.6-0.6,3.1-1.7,4.5c-1.1,1.3-2.4,2-3.9,2c-1.7,0-3.1-0.6-4.3-1.7
			c-1.2-1.1-1.8-2.5-1.8-4s0.5-2.9,1.4-4.1c0.9-1.2,2.1-2,3.5-2.4l0.1,0.3c-1.1,0.2-2,0.9-2.7,2c-0.7,1.1-1,2.4-1,4s0.5,2.9,1.4,4
			c0.9,1.1,2.1,1.6,3.5,1.6c1.2,0,2.1-0.6,2.9-1.7c0.8-1.2,1.1-2.5,1.1-4s-0.4-2.7-1.1-3.7s-1.7-1.5-2.8-1.5c-0.7,0-1.3,0.2-1.8,0.7
			c-0.5,0.4-0.7,0.9-0.7,1.4c0,0.3,0.1,0.5,0.3,0.7c0.2,0.2,0.5,0.3,0.7,0.3c0.3,0,0.6-0.1,0.8-0.2c0.2-0.2,0.3-0.3,0.3-0.6
			c0-0.2-0.1-0.3-0.2-0.5c-0.1-0.1-0.3-0.2-0.4-0.2c-0.4,0-0.5,0.1-0.5,0.2C175.1,31.1,175.3,31.2,175.7,31.4"/>
		<path class="st0" d="M191.5,40.3c-0.7,0.2-1.3,0.4-1.7,0.7l-0.2-2.2c-0.8,1.1-1.7,1.7-2.8,1.7c-0.8,0-1.6-0.3-2.3-1s-1-1.5-1-2.5
			c0-0.4,0.1-0.8,0.3-1.3c0.2-0.5,0.5-0.9,0.8-1.2s0.5-0.6,0.8-1c0.2-0.4,0.3-0.7,0.3-0.9c0-0.7-0.3-1-0.8-1c-0.2,0-0.5,0.1-0.7,0.2
			c-0.2,0.1-0.3,0.3-0.3,0.5c0,0.1,0.1,0.3,0.2,0.4c0.1,0.1,0.2,0.2,0.4,0.2s0.3,0,0.3,0l0.1-0.1c0-0.2-0.1-0.3-0.4-0.3
			c0.1-0.1,0.2-0.2,0.3-0.2s0.2,0.1,0.3,0.2c0.1,0.1,0.1,0.2,0.1,0.4s-0.1,0.4-0.3,0.6c-0.2,0.2-0.4,0.3-0.6,0.3s-0.4-0.1-0.5-0.3
			c-0.2-0.2-0.2-0.4-0.2-0.6c0-0.4,0.1-0.8,0.4-1.1c0.3-0.4,0.6-0.5,0.9-0.5s0.6,0.1,0.9,0.4c0.2,0.3,0.3,0.7,0.3,1.1
			c0,0.6-0.1,1.1-0.4,1.7c-0.7,1.2-1,2.1-1,2.7c0,1,0.2,1.7,0.7,2.3s1.1,0.8,1.8,0.8c0.9,0,1.7-0.6,2.4-1.9c-0.2-2-0.5-4-1-5.9
			l-1,0.1v-0.4c1.1,0,2.1-0.2,3-0.5l0.1,0.4l-0.9,0.3c0,2.1,0.1,4.9,0.3,8.3c0.4-0.1,0.8-0.2,1.2-0.4H191.5z"/>
		<path class="st0" d="M194,33.9c0.2-0.9,0.6-1.5,1.1-2s0.9-0.7,1.4-0.7s0.8,0.2,1.2,0.6c0.3,0.4,0.5,0.8,0.5,1.4
			c0,0.6-0.2,1.2-0.5,1.6c-0.4,0.4-0.8,0.6-1.4,0.6c-0.3,0-0.6-0.1-0.8-0.4c-0.2-0.2-0.3-0.5-0.3-0.9c0-0.2,0.1-0.4,0.4-0.6
			c0.3-0.2,0.5-0.4,0.7-0.4s0.5,0.1,0.6,0.2c0.2,0.1,0.3,0.3,0.3,0.5s-0.2,0.4-0.6,0.5c0.1-0.2,0.1-0.3,0.1-0.5s-0.1-0.4-0.2-0.4
			c-0.1,0-0.3,0.1-0.4,0.3c-0.1,0.2-0.1,0.4-0.1,0.5c0,0.2,0.1,0.3,0.2,0.5c0.1,0.2,0.3,0.2,0.4,0.2c0.4,0,0.7-0.2,1-0.5
			c0.2-0.3,0.4-0.7,0.4-1.1c0-0.3-0.1-0.6-0.4-0.8s-0.6-0.4-1-0.4c-0.4,0-0.7,0.1-1,0.3s-0.6,0.6-0.9,1.1s-0.4,0.8-0.4,1
			c0,0.1,0.1,1.9,0.3,5.3c0.7-0.2,1.4-0.5,2-0.9l0.1,0.5c-0.7,0.3-1.3,0.6-1.9,0.8c-0.6,0.2-1.3,0.4-2.2,0.5v-0.5
			c0.5,0,1.1-0.1,1.6-0.2c0-0.7-0.1-1.8-0.4-3.4c-0.3-1.6-0.6-3-0.9-4.1l-1.3,0.5l-0.1-0.3c1.2-0.3,2.1-0.8,2.8-1.5
			c0,0.5-0.1,0.9-0.1,1.1C193.9,32.8,193.9,33.4,194,33.9"/>
		<path class="st0" d="M214.3,19.9c-0.1-0.1-0.1-0.2-0.1-0.3c0-0.2,0.1-0.4,0.3-0.5c0.2-0.2,0.4-0.2,0.7-0.2c0.4,0,0.8,0.1,1.2,0.4
			c0.3,0.3,0.5,0.5,0.5,0.8c0,0.5-0.3,1-0.8,1.3c-0.5,0.4-1.2,0.6-1.9,0.6c-0.8,0-1.4-0.2-2-0.6c-0.6-0.4-0.8-0.9-0.8-1.5
			s0.4-1.2,1.3-1.7c0.9-0.5,1.9-0.8,3.2-0.8s2.4,0.3,3.5,0.9s1.6,1.3,1.6,2.2c0,1.4-0.7,2.4-2.1,3.1s-3.9,1.2-7.5,1.5
			c0.1,2.5,0.2,4.6,0.2,6.4c0,2.2-0.1,5.8-0.4,10.7c2.1,0,3.8-0.2,5.1-0.7v1c-1.8,0.2-3.7,0.4-5.7,0.4c-0.7,0-1.6,0.1-2.8,0.4v-1
			l2.4-0.1c0-2.1-0.2-5.1-0.6-8.8c-0.4-3.7-0.9-6.4-1.4-8c-1.6,0.3-4.1,0.5-7.3,0.8l0.3,3l-1,0.1c-0.1-1.9-0.3-3.4-0.6-4.4l1-0.1
			l0.2,0.7c3.6-0.3,7-0.6,10.2-1.1s5.4-1,6.6-1.7c1.1-0.6,1.7-1.5,1.7-2.7c0-0.7-0.3-1.2-0.9-1.7c-0.6-0.4-1.4-0.7-2.4-0.7
			c-0.7,0-1.4,0.2-2.1,0.6c-0.6,0.4-1,0.9-1,1.4c0,0.4,0.2,0.8,0.5,1.2c0.3,0.4,0.7,0.6,1.1,0.6c0.5,0,0.8-0.1,1.1-0.3
			c0.3-0.2,0.4-0.5,0.4-0.8c0-0.2-0.1-0.3-0.2-0.5c-0.1-0.2-0.3-0.2-0.5-0.2C215,19.6,214.7,19.7,214.3,19.9"/>
		<path class="st0" d="M223.3,32.5c-0.1,0.4-0.4,0.7-0.9,0.7c-0.3,0-0.5-0.1-0.7-0.2c-0.2-0.2-0.3-0.4-0.3-0.6
			c0-0.3,0.2-0.6,0.5-0.9c0.3-0.3,0.7-0.4,1.1-0.4c1.7,0,2.6,0.4,2.6,1.3c0,0.7-0.4,1.3-1.3,1.9c-0.9,0.6-1.7,0.9-2.3,0.9
			c-0.8,0-1.4-0.2-1.9-0.5c-0.5-0.4-0.8-0.8-0.8-1.4c0-1.2,0.7-2.5,2.1-3.8c1.4-1.3,2.9-1.9,4.4-1.9c1.3,0,2.3,0.4,3.2,1.3
			s1.3,2,1.3,3.3c0,0.9-0.2,1.7-0.5,2.4s-0.8,1.4-1.4,2.3c-1.7,2.3-2.5,4.3-2.5,6.2c0,0.2,0,0.4,0,0.7h-0.8v-2.1
			c-1.6,0.9-2.8,1.3-3.5,1.3c-0.9,0-1.6-0.2-2.2-0.7c-0.6-0.4-0.9-1-0.9-1.7s0.4-1.3,1.3-1.8c0.8-0.5,1.8-0.8,2.8-0.8
			c0.7,0,1.9-0.1,3.5-0.2c1-1.7,1.4-3.3,1.4-4.6c0-3.1-0.9-4.6-2.6-4.6c-1.6,0-2.7,0.4-3.4,1.3c-0.7,0.8-1,2-1,3.5
			c0,0.4,0.1,0.8,0.4,1c0.3,0.3,0.6,0.4,1.1,0.4s1-0.2,1.5-0.6c0.5-0.4,0.7-0.8,0.7-1.3c0-0.3-0.1-0.5-0.4-0.7
			c-0.3-0.2-0.6-0.3-1-0.3c-0.2,0-0.3,0.1-0.4,0.2c-0.1,0.1-0.2,0.3-0.2,0.4c0,0.3,0.1,0.4,0.4,0.4
			C222.9,32.6,223.1,32.6,223.3,32.5 M225.8,38.2c-1.1,0.1-2,0.1-2.6,0.2c-0.7,0.1-1.2,0.3-1.6,0.8c-0.4,0.4-0.6,0.8-0.6,1.3
			c0,0.4,0.1,0.8,0.4,1.1c0.3,0.3,0.6,0.4,1.1,0.4c0.8,0,1.7-0.4,2.7-1.2L225.8,38.2z"/>
		<path class="st0" d="M240.1,43.3c-3,0-4.8,0-5.6,0.1c-0.7,0.1-1.4,0.2-1.9,0.3v-0.9l2.5-0.1c0-4.6-0.3-9.1-0.9-13.3l-2.2-0.1v-0.6
			c1.3,0,2.3,0,2.8,0c0.9,0,2.2-0.2,3.7-0.6v0.7l-1.7,0.4l-0.4,5.2l-0.5,8.1c1.5,0,2.9-0.1,4.2-0.2L240.1,43.3L240.1,43.3z
			 M238.7,24h-0.2c-0.5-0.7-1.2-1-2.2-1c-0.7,0-1.4,0.2-2,0.5c-0.6,0.4-0.9,0.8-0.9,1.3c0,0.6,0.3,1,0.8,1.4c0.5,0.3,1,0.5,1.5,0.5
			c1,0,1.5-0.4,1.5-1.1c0-0.8-0.4-1.2-1.1-1.2c-0.1,0-0.3,0-0.5,0.1s-0.2,0.2-0.2,0.3c0,0.3,0.2,0.4,0.6,0.4c0.2,0,0.4-0.1,0.6-0.2
			c-0.1,0.6-0.4,0.8-0.9,0.8c-0.2,0-0.4-0.1-0.6-0.3c-0.2-0.2-0.2-0.4-0.2-0.5c0-0.3,0.1-0.5,0.4-0.7c0.3-0.2,0.6-0.3,1-0.3
			c0.5,0,1,0.1,1.4,0.4c0.4,0.2,0.7,0.6,0.7,1s-0.3,0.8-0.8,1.1c-0.5,0.3-1.1,0.5-1.8,0.5c-0.8,0-1.4-0.2-2-0.7
			c-0.6-0.4-0.9-1-0.9-1.6c0-0.7,0.3-1.3,0.9-1.8c0.6-0.5,1.2-0.8,1.9-0.8C237.3,22.2,238.3,22.8,238.7,24"/>
		<path class="st0" d="M246.9,39.9c-0.2,0.7-0.5,1.1-1.1,1.1c-0.9,0-1.3-0.4-1.3-1.1c0-0.5,0.3-1,0.8-1.4s1.2-0.6,1.8-0.6
			s1.1,0.2,1.5,0.7c0.4,0.4,0.7,0.9,0.7,1.5c0,1.1-0.6,2-1.9,2.7c-1.3,0.8-2.5,1.1-3.7,1.1c-0.5,0-1-0.2-1.5-0.6
			c-0.5-0.4-0.8-0.9-0.8-1.5c0-1.3,0.2-3.1,0.7-5.4c0.5-2.2,0.8-4.5,1-6.7s0.3-5.5,0.3-9.7l-2.4,0.1v-0.5c2.4,0,4.8-0.3,7.2-0.9v0.6
			l-1.6,0.4c-0.8,5.3-1.4,8.9-1.7,10.7c-0.4,1.9-0.9,3.9-1.7,6.2c-0.7,2.3-1.1,3.8-1.1,4.7c0,0.4,0.2,0.9,0.6,1.4
			c0.4,0.5,0.9,0.7,1.3,0.7c1.1,0,2-0.3,2.8-0.8c0.8-0.6,1.2-1.3,1.2-2.2c0-0.3-0.1-0.7-0.4-0.9c-0.3-0.3-0.6-0.4-1-0.4
			c-1,0-1.5,0.3-1.5,1c0,0.2,0.2,0.4,0.5,0.4c0.4,0,0.7-0.1,1-0.4L246.9,39.9z"/>
		<path class="st0" d="M254.9,40.8c-0.6-0.4-1-0.7-1.4-0.7c-0.2,0-0.5,0.1-0.8,0.4c-0.3,0.3-0.5,0.5-0.5,0.7c0,0.5,0.4,1,1.1,1.5
			c0.7,0.5,1.7,0.7,2.8,0.7c0.5,0,1.1-0.3,1.7-0.8c0.6-0.6,0.9-1.2,0.9-1.8c0-0.5-0.3-1.1-0.7-1.8c-0.5-0.6-1.9-1.7-4.2-3.2
			c-1-0.7-1.7-1.2-2.1-1.6c-0.4-0.4-0.7-0.9-0.9-1.5s-0.3-1.1-0.3-1.7c0-1,0.5-2,1.5-2.9s2.2-1.3,3.7-1.3c1.1,0,2.1,0.2,3,0.7
			s1.3,1.1,1.3,1.9c0,0.6-0.3,1.2-0.9,1.8c-0.6,0.6-1.3,0.8-2,0.8c-0.6,0-1.1-0.3-1.5-0.8s-0.6-1-0.6-1.5c0-0.6,0.4-0.9,1.2-0.9
			c0.3,0,0.5,0,0.7,0.1c0,0-0.1,0.1-0.2,0.2c-0.5,0.4-0.7,0.8-0.7,1.2c0,0.3,0.2,0.5,0.7,0.6c0.5,0.2,0.9,0.2,1.2,0.2
			c0.3,0,0.5-0.1,0.7-0.3c0.2-0.2,0.3-0.5,0.3-0.7c0-0.7-0.3-1.4-1-1.9c-0.6-0.6-1.4-0.9-2.3-0.9c-0.8,0-1.5,0.3-2.1,0.8
			s-0.8,1.1-0.8,1.7c0,2.1,1.2,3.8,3.4,5.3c2.4,1.6,3.7,3.1,3.7,4.6c0,0.9-0.2,1.6-0.7,2.3c-0.4,0.6-1,1.2-1.6,1.6
			c-0.6,0.4-1.1,0.7-1.5,0.8s-0.9,0.1-1.7,0.1s-1.5-0.3-2.1-1s-0.9-1.4-0.9-2.1c0-0.5,0.2-1,0.7-1.5c0.5-0.4,1-0.7,1.5-0.7
			c0.4,0,0.7,0.1,1,0.3s0.4,0.4,0.4,0.6C255.3,40.3,255.1,40.5,254.9,40.8"/>
		<path class="st0" d="M140.3,42.3c-2,0-3.3,0-3.8,0.1s-0.9,0.1-1.3,0.2v-0.7l1.7-0.1c0-3.9-0.2-7.6-0.6-11.2l-1.5-0.1V30
			c0.9,0,1.5,0,1.9,0c0.6,0,1.5-0.2,2.5-0.5v0.6l-1.2,0.3l-0.3,4.3l-0.3,6.8c1,0,1.9-0.1,2.8-0.2L140.3,42.3L140.3,42.3z
			 M139.3,26.1h-0.2c-0.3-0.5-0.8-0.8-1.5-0.8c-0.5,0-1,0.2-1.4,0.5c-0.4,0.3-0.6,0.7-0.6,1.1c0,0.5,0.2,0.9,0.5,1.2
			c0.3,0.3,0.7,0.4,1,0.4c0.7,0,1-0.3,1-0.9c0-0.7-0.3-1-0.8-1c-0.1,0-0.2,0-0.3,0.1c-0.1,0.1-0.2,0.2-0.2,0.3
			c0,0.2,0.1,0.3,0.4,0.3c0.1,0,0.2-0.1,0.4-0.2c-0.1,0.5-0.3,0.7-0.6,0.7c-0.1,0-0.3-0.1-0.4-0.3c-0.1-0.2-0.2-0.3-0.2-0.4
			c0-0.2,0.1-0.4,0.3-0.6s0.4-0.2,0.7-0.2c0.4,0,0.7,0.1,1,0.3c0.3,0.2,0.4,0.5,0.4,0.8c0,0.4-0.2,0.7-0.6,1s-0.8,0.4-1.2,0.4
			c-0.5,0-1-0.2-1.4-0.6c-0.4-0.4-0.6-0.8-0.6-1.4s0.2-1.1,0.6-1.5c0.4-0.4,0.8-0.7,1.3-0.7C138.4,24.5,139.1,25,139.3,26.1"/>
	</g>
	<g>
		<g>
			<path class="st1" d="M78.7,61.6c0,0-3,7.8-10.6,8.2c-7.6,0.4-8.6-2.1-9.2-4c0,0-3.2-2.6-4.8-2.6c-0.1,0-1-0.3-1.1-0.2
				c-1.5,0.3-4,1.9-4,1.9s-4.4,1-5.4,15.5c0,0,3.3-3.3,4.5-0.7c1,2.1-2.7,2.4-2.7,2.4s5.2,1.2,2.9,3.2c-2,1.5-4.5-0.1-4.5-0.9
				c0,0-1.4,3.8-4,2.5c-2.6-1.4-1.6-2-0.1-2.8c0,0-5.4-0.6-1.4-3.6l3.2,0.5c0,0-1.5-11.8-0.7-16.5c0,0,0-5-2.6-10.3
				c-2.6-5.1-7-11.6-7.9-12.1c-0.9-0.5-6.7-2.6-8.2-5.6c-1.5-2.9-3-7.5-3-7.5s-7,4.3-10.3,0.7c0,0-2.4,2.5-3,1.7
				c-0.9-1.2,0.3-2.3,2.2-2.8c0-0.1,0-1.2-0.1-1.8c-2.3,1.7-3.6,0.3-2.9-1C6.2,23,7.8,24.9,8,25c1-0.6,1.6-1.8,1.6-1.8
				s-3.7-0.5-2.9-2.3c0,0,1.2-3.3,4.1-1.8c0.7,1,0.2,3.1,0.2,3.1s0.2,1,0.9,0.9s1.4,0.7,1.7,1.3c0.5,1.2,1.6,2.4,2,2.4
				c0.3,0,2.1-2.3,2.1-2.3s-1.8-3,1.9-3.5c2.6-0.4,3.4,1,1.6,4.8c0,0,0.1,2.3,4.3,6.3c0,0,6.5,1.5,11.4-0.5c0,0,0.7-1.2,0.4-1.8
				l4-0.4c0,0,6.5-2.9,6.1-9.5C47.1,14,44.7,14,44.7,14s-1.9-1.3-1.2-2.8c0.8-1.8,6.3-1,5.2,1.8c0,0,1.5,1.5,3.7,1.3
				c0,0,1.1-4,2.6-4.6c0,0-2.5-1.4,0.3-2.5c2.3-1,1.3,2.1,1.2,2.4l1.8,0.5c0,0,0.8-3.7,3.1-2.1c2.2,1.6-2,2.9-2,2.9l1.2,1.5
				c0,0,5.9-4.2,5.9,1.2c-0.1,4.5-4.7,2.1-5.9,1c0,0-1.2,2.3-4.1,2c-4.4-0.5-5.4,2.3-5.7,3.5c-0.3,1.2-3.7,11.4,1.5,25
				c0,0,3.7-3.2,11.4-1.2l-1.2,0.4l-1,0.7l2.3,0.3l7-5.9c0,0-4.9-2.9-1.6-4.9c0,0,2.8-0.9,2.5,2.8c0,0,4.1-1.1,5.9,0.4
				c0,0,3-2.3,4.1,0.6c0,0,0.8,3.2-5.3,1.5c0,0-4.4,1.6-9.9,6.2l-0.3,0.5c0,0-2.3-0.1-2.6,1.2c-0.1,0.6,1,8.9,8,8.7L78.7,61.6z"/>
			<path class="st2" d="M74.7,55.6c0,0,6.8-1,8.9,1.6c2.1,2.5-4.1,4.2-4.8,4.3c-0.7,0.1-8.3-0.4-7.7-4
				C71.1,57.4,71.8,55.8,74.7,55.6"/>
			<path class="st3" d="M76.6,55.5c0,0,4.3-4.2,1.1-6.1c-2.7-1.6-5.2,2.6-5.4,2.9c-0.1,0.4-1.7,3.4-2.7,3.9l2.3,0.1
				C71.9,56.3,74.8,55.3,76.6,55.5"/>
			<path class="st0" d="M64.7,49.7c0,0,2.4-0.4,3.6,2.1c1.1,2.5-0.5,3.6-1.4,3.9C66,56,63.5,55.5,63,53.3C62.4,51.3,63,50,64.7,49.7
				"/>
			<path class="st0" d="M58.5,50.8c0,0,2.3,0.8,2.6,3.2c0.2,2.3-2,4.1-4.2,2.6c-2.2-1.5-2.4-4.1-1.4-5.1
				C56.5,50.4,58.5,50.8,58.5,50.8"/>
			<path class="st4" d="M49.9,54.2c0,0-1.8,6.5,3,10c0,0-2.1,1.5-3.4,0.5c0,0-3.2-3.2-1.5-10L49.9,54.2z"/>
			<path class="st5" d="M53.2,63.1c0,0.1-0.3,1.1-0.3,1.1l-0.9-0.8L53.2,63.1L53.2,63.1z"/>
			<path class="st6" d="M61.7,43.6c0,0,5.9-4.8,0-10.2c0,0-4.8-1-8.4,3.6c0,0,5.1,2,4,6.4C57.3,43.4,60.9,43.3,61.7,43.6"/>
			<path class="st6" d="M53.4,51.4c0,0-1.9,3.8-8.1,3.3s-6.9-3.2-6.2-5.5c0.7-2.3,1-5.6,4.5-6.5c0,0,0.4,5.1,7.8,4.8
				C51.5,47.5,54.3,46.9,53.4,51.4L53.4,51.4z"/>
			<path class="st0" d="M20.1,19.5c0,0,2.1,1.1,0.4,2.4c0,0-1.3,0.1-0.9-0.8C19.6,21.1,20.4,20,20.1,19.5"/>
			<path class="st0" d="M8.4,18.8c0,0-0.4-0.7-0.7-0.7c-0.2,0.1-0.5,0.8-0.3,1.2L8.4,18.8z"/>
			<path class="st0" d="M4.6,25.5v1.3c0,0-1.1,0.1-1.1-0.7S4.6,25.5,4.6,25.5"/>
			<path class="st0" d="M5,30.4l0.4,1c0,0-0.7,0.4-1-0.4C4.3,30.2,5,30.4,5,30.4"/>
			<path class="st0" d="M45,9.4c0,0-0.1,0.7,0.7,1.7c0.8,1-1.6,0.7-1.8,0.3C43.8,11,43.8,9.9,45,9.4"/>
			<path class="st0" d="M56.1,7.1c0,0-0.1-0.8-0.7-0.6S55,7.4,55,7.4L56.1,7.1z"/>
			<path class="st0" d="M61.8,8.4c0,0,0.9-0.4,0.3-0.9c-0.5-0.4-0.9,0.4-0.9,0.4L61.8,8.4z"/>
			<path class="st0" d="M66.8,12.8c0,0,1-0.1,1,0.7c0,0.9-0.9,1-0.9,1L66.8,12.8z"/>
		</g>
		<g>
			<g>
				<defs>
					<path id="SVGID_1_" d="M34.4,5.2c0,0-0.5-1.1,0.1-2.6c0,0-6.2,3.5-2.9,10.8c0,0-2.1-0.1-3.7-2.8c0,0-2.4,5.9,3.9,10.6
						c0,0-1.5,0.5-1.8,0.6c-0.2,0.1-1.2,0.1-1.4-0.4c0,0-1.3,3.9,3.6,5.4c4.9,1.5,6.2,3.2,4.8,5c0,0,1.9-0.6,2.6,1.4
						c0.7,2,3.6,1.9,4.3,1.3c0.7-0.5,1-1.2,0.4-2.1c0,0-4.4-3.1-6.1-8.6s-2.6-9-0.8-14.8c0,0,1.6-5.1,6.8-6.8c0,0-1.5-0.6-3.3-0.6
						C38.8,1.5,36.2,2.2,34.4,5.2"/>
				</defs>
				<clipPath id="SVGID_2_">
					<use xlink:href="#SVGID_1_"  style="overflow:visible;"/>
				</clipPath>
				
					<linearGradient id="SVGID_3_" gradientUnits="userSpaceOnUse" x1="-72.3667" y1="-7.1801" x2="-71.6801" y2="-7.1801" gradientTransform="matrix(-12.282 -45.6604 -45.6604 12.282 -1176.7224 -3179.9316)">
					<stop  offset="0" style="stop-color:#DED5BF"/>
					<stop  offset="0.118" style="stop-color:#DED5BF"/>
					<stop  offset="0.136" style="stop-color:#DBD0B7"/>
					<stop  offset="0.2503" style="stop-color:#C6B890"/>
					<stop  offset="0.3678" style="stop-color:#B6A473"/>
					<stop  offset="0.4868" style="stop-color:#A9955C"/>
					<stop  offset="0.6079" style="stop-color:#A08B4A"/>
					<stop  offset="0.7317" style="stop-color:#998440"/>
					<stop  offset="0.86" style="stop-color:#95803B"/>
					<stop  offset="1" style="stop-color:#947F3A"/>
				</linearGradient>
				<polygon class="st7" points="53.2,32.8 43.5,-3.3 17,3.8 26.8,40 				"/>
			</g>
		</g>
		<g>
			<path class="st8" d="M68.5,53.6c0,0-0.4,2.1-2.2,2.1c-1.8-0.1-3.2-0.9-3.5-2.9c0,0,1,2.1,3.2,2.1C68.2,54.9,68.5,53.6,68.5,53.6"
				/>
			<path class="st8" d="M61.1,54.1c0,0,0.1,2.9-2.7,3c-2.7,0.1-3.6-3.4-3.5-3.7c0,0,0.4,2.1,2.9,2.5C60.2,56.4,61.1,54.4,61.1,54.1"
				/>
			<path class="st9" d="M83.9,57.9c0,0,0.4,3.1-5.2,3.4c-5.6,0.3-7.8-2.3-7.8-3.7c0,0,2.3,2.7,6.5,2.7
				C81.4,60.4,83.9,58.4,83.9,57.9"/>
			<path class="st9" d="M78.7,50.8c0,0,1,1.5-2.1,4.7h-1.1C75.5,55.5,78.7,52.7,78.7,50.8"/>
			<path class="st10" d="M78.7,61.5c0,0-1.1,4.8-6.7,7c-5.7,2.3-11.3,2-13.1-2.9c0,0-0.4-2.7-0.1-3.5c0,0,0.5,6,7.5,5.9
				c7.3-0.1,11.4-5.4,11.8-6.5L78.7,61.5z"/>
			<path class="st10" d="M58.8,65.6c0,0-3-2.2-3.8-2.4c-0.9-0.1-2.8-0.1-3.1,0.1L51,62c0,0,3.3-2.5,7.4,2.5L58.8,65.6z"/>
			<path class="st10" d="M67.5,55.3c0,0-1.3,0.8-2.6,0.1c-1.3-0.7-1.9-1.5-2.1-2.4c0,0-0.2,1.8,1.3,2.9c1,0.7,2.3,1,4-0.1L67.5,55.3
				z"/>
			<path class="st10" d="M60.6,56.2c0,0-1.8,1.6-3.5,0.6c-1.7-1-2.1-2.3-2.2-2.9c0,0-0.5,2.1,1.5,3.4C57.8,58.2,60.1,57.9,60.6,56.2
				"/>
			<path class="st10" d="M52.7,52.5c0,0-1.9,1.4-2.8,1.7l-0.2,1.5C49.7,55.6,52.4,54.2,52.7,52.5"/>
			<path class="st10" d="M47.6,55.9c0,0-1.1,4,1.8,8.7l-0.7,0.4C48.6,65.1,45.3,59.7,47.6,55.9"/>
			<path class="st11" d="M52.9,64.2c0,0-2.3,1-3.2,0.6c0,0-2.4-2.6-2.1-7.7C47.6,57.1,47.4,64.5,52.9,64.2"/>
			<path class="st10" d="M62.3,44c0,0-1.2,0.2-1.7,1.5C60.6,45.5,59.6,43.9,62.3,44"/>
			<path class="st10" d="M64.8,46.2c0,0-1,0-1.5,0.7C63.3,47,61.6,45.9,64.8,46.2"/>
			<path class="st10" d="M59.7,50.3c0,0-1.2-1.5-3.2-1C56.6,49.4,58.7,49.6,59.7,50.3"/>
			<path class="st10" d="M81.1,38.3c0,0,0.6,2.1-2.9,1.3C78.1,39.5,81.3,39.1,81.1,38.3"/>
			<path class="st10" d="M70.9,38.4c0,0-1.2-1-1.6-1.2c-0.4-0.2-0.8-1.8,0.7-2.1C69.9,35.2,68.6,36.6,70.9,38.4"/>
			<path class="st10" d="M75.2,39.6l-5.9,3.5c0,0,4.3-2.6,4-3.5C73.3,39.6,75.4,38.6,75.2,39.6"/>
			<path class="st10" d="M47.5,84.6c0,0-0.7,1-1.9,0.5c-1.2-0.4-1.4-1.4-1.4-1.4S46,85.2,47.5,84.6"/>
			<path class="st10" d="M47.6,80c0,0,0.1,1.2-2.1,1.3C45.5,81.4,47.6,80.4,47.6,80"/>
			<path class="st10" d="M42.5,85.4c0,0-1.4,2.3-3.6,0.3C38.9,85.7,40.8,86.5,42.5,85.4"/>
			<path class="st10" d="M39.7,83.3c0,0-2.9-0.2-2.3-1.2s0.6-0.6,0.6-0.6S37,82.8,39.7,83.3"/>
			<path class="st10" d="M41.4,65c0,0-0.4,9.4,0.7,15.4c0,0-0.6-13.5-0.1-15.3c0.5-1.8-0.9-7.3-1.9-8.5C40,56.5,41.9,62.6,41.4,65"
				/>
			<path class="st10" d="M33.4,42.8c0,0-6.4-2.9-8.1-4.3c-3-2.3-3.7-4.5-5.2-9c0,0,2.1,5.5,5.8,8.1C29.5,40.2,32.7,42.5,33.4,42.8"
				/>
			<path class="st10" d="M17.4,28.7c0,0-5,3.2-8,0.8c0,0-0.4-1.4,1.8,0C13.6,30.9,17.4,28.7,17.4,28.7"/>
			<path class="st10" d="M8.7,22.2c0,0-2.4-0.4-1-2.3C7.8,20,7.4,21.6,8.7,22.2"/>
			<path class="st10" d="M7,26.1c0,0-1.6,2-1.8,0.2C5.1,26.3,5.9,27.1,7,26.1"/>
			<path class="st10" d="M7.7,29.7c0.1-0.1-2.1,1.8-2.1,1C5.7,30.7,7.3,30.2,7.7,29.7"/>
			<path class="st10" d="M21.6,22.2c0,0,0.4,0.4-0.4,2.5l-0.4,0.1C20.8,24.7,21.6,22.5,21.6,22.2"/>
			<path class="st10" d="M45.4,13.2c0,0-1.2-0.4-1.4-0.9C44.1,12.3,44.8,14,45.4,13.2"/>
			<path class="st10" d="M59.6,14.8c0,0-0.1,1.5-5.4,1.2c0,0,3.6-0.4,4-0.8C58.7,14.8,59.2,14,59.6,14.8"/>
			<path class="st10" d="M65.8,14.6c0,0-1.3,2.5-3.5,0.4C62.3,14.9,65.2,15.8,65.8,14.6"/>
			<path class="st10" d="M61.5,8.9c0,0,0.4,0.8-1.7,1.7C59.8,10.6,61.1,9.7,61.5,8.9"/>
			<path class="st10" d="M56.4,7.8c0,0,0.1,0.7-0.1,1.5c0,0-0.1-1.4-0.4-1.5C55.9,7.7,56.2,7.7,56.4,7.8"/>
			<path class="st12" d="M53.4,51.6c0,0-1.5,3.4-8.1,3.2s-7-3.7-5.8-7.3c0,0-0.9,4.7,4.6,5.9c2.7,0.6,6.9-0.2,9.2-2.1L53.4,51.6z"/>
			<path class="st12" d="M57.1,43.4c0,0,2.2-3.2-3.9-6.5c0,0,5.1-0.6,5.9,6.2L57.1,43.4z"/>
			<path class="st12" d="M35.8,28.3c0,0-4-1.6-5.1-2.2s-2.6-2.2-2.1-4.6c0,0,0.4,2.6,2.1,3.4C32.3,25.6,35.2,27.2,35.8,28.3"/>
			<path class="st12" d="M31.8,21.1c0,0-6.1-3.3-3.9-10.6c0,0,1.1,1.6,1.9,2C29.8,12.6,26.5,16.4,31.8,21.1"/>
			<path class="st12" d="M31.5,13c0,0-3.4-5.4,2.8-10.4l0.1,2.5C34.4,5.2,29.6,6.7,31.5,13"/>
			<path class="st0" d="M73.2,57.7c2-0.6,3.9-0.7,5.9-0.4c0.2,0,0.6-0.5,0.2-0.6c-2.1-0.5-4.1-0.1-6.1,0.6
				C73.1,57.3,72.9,57.7,73.2,57.7"/>
			<path class="st0" d="M80.8,57.5c0.1,0.1,0.2,0.1,0.4,0.2c0.1,0.1,0.3,0.1,0.5,0.1c0.2-0.1,0.4-0.4,0.4-0.7
				c-0.1-0.4-0.7-0.1-1-0.1C80.8,57.1,80.6,57.4,80.8,57.5"/>
			<path class="st0" d="M77.7,50.9c0.1-0.1,0.1-0.3,0-0.4c-0.1-0.1-0.2-0.3-0.4-0.3c-0.2,0-0.6,0.4-0.4,0.6c0.1,0.1,0.3,0.1,0.4,0.3
				C77.5,51.3,77.7,51.1,77.7,50.9"/>
			<path class="st0" d="M73.6,53.4c0.1-0.5,0.4-1,0.8-1.4c0.4-0.5,0.9-0.7,1.5-0.8c0.2-0.1,0.5-0.6,0.2-0.7
				c-0.7-0.1-1.5,0.4-1.9,0.9c-0.5,0.6-0.8,1.3-1,2.1C73.2,53.8,73.6,53.5,73.6,53.4"/>
			<path class="st0" d="M80.3,37.4c-0.3,0-0.7,0-0.9,0.2c-0.1,0.1-0.2,0.5,0.1,0.4c0.1,0,0.1-0.1,0.3-0.1c0.1,0,0.2-0.1,0.4-0.1
				c0.1,0,0.3-0.1,0.3-0.2C80.6,37.5,80.5,37.3,80.3,37.4"/>
			<path class="st0" d="M70.6,35.9c0.1,0.1,0.1,0.1,0.1,0.3c0.1,0.3,0.4,0,0.4-0.1s-0.1-0.3-0.2-0.4C70.7,35.5,70.5,35.7,70.6,35.9"
				/>
			<path class="st0" d="M63,39.4c0.2-1.5-0.1-2.9-1.2-4c-0.1-0.1-0.5,0.2-0.4,0.4c1,1.2,1.3,2.3,1.1,3.7C62.5,39.8,63,39.6,63,39.4"
				/>
			<path class="st0" d="M49.6,48.4c-2.1,0-5.9-0.4-6.6-2.9c-0.1-0.3-0.5,0-0.4,0.2c0.4,2.9,4.6,3.4,7,3
				C49.6,48.8,49.9,48.4,49.6,48.4"/>
			<path class="st0" d="M71.3,62.6c-0.2-0.1-0.4-0.2-0.7-0.1c-0.3,0.1-0.6,0.3-0.7,0.6c-0.1,0.1-0.1,0.2,0,0.3
				c0.1,0.1,0.3,0,0.4-0.1c0.1-0.1,0.1-0.2,0.4-0.2c0.1-0.1,0.4,0,0.5,0C71.2,62.9,71.5,62.6,71.3,62.6"/>
			<path class="st0" d="M74.3,62.6c-0.6-0.3-1.2-0.2-1.6,0.4c-0.1,0.2,0.1,0.5,0.3,0.4c0.1-0.1,0.3-0.2,0.5-0.3
				c0.1-0.1,0.4-0.1,0.5,0S74.4,62.8,74.3,62.6"/>
			<path class="st0" d="M68.8,64.6c-0.2,0-0.4,0-0.7,0.1c-0.2,0.1-0.5,0.3-0.6,0.6c-0.1,0.3,0.2,0.4,0.4,0.2
				c0.1-0.1,0.1-0.2,0.3-0.3c0.1-0.1,0.3-0.1,0.4-0.1C68.9,64.9,69.1,64.6,68.8,64.6"/>
			<path class="st0" d="M71.5,64.7c-0.6-0.2-1.3,0.1-1.6,0.7c-0.1,0.3,0.2,0.4,0.4,0.2s0.2-0.3,0.4-0.4c0.1-0.1,0.4-0.1,0.6-0.1
				C71.5,65.1,71.8,64.8,71.5,64.7"/>
			<path class="st0" d="M58.9,44.2c-1.9-0.3-5.2,0.1-5.9,2.3c-0.1,0.4,0.4,0.4,0.5,0.1c1.2-1.8,3.2-2.2,5.1-2.1
				C58.9,44.5,59.1,44.2,58.9,44.2"/>
			<path class="st0" d="M48.8,58.1c0.1,1.2,0.2,2.4,0.9,3.4c0.1,0.2,0.5-0.1,0.4-0.4c-0.5-1-0.8-2.1-0.9-3.2
				C49.1,57.7,48.8,57.9,48.8,58.1"/>
			<path class="st0" d="M45.3,80.4c0.1-0.1,0.3-0.1,0.5-0.2c0.2-0.1,0.5-0.1,0.7-0.3c0.1-0.1,0.4-0.6,0.1-0.7
				c-0.3-0.1-0.6,0.1-0.9,0.3c-0.2,0.1-0.5,0.4-0.6,0.6C45,80.3,45.1,80.5,45.3,80.4"/>
			<path class="st0" d="M45.8,83.3c0.2,0.1,0.4,0.2,0.7,0.4c0.2,0.1,0.4,0.4,0.7,0.4c0.3,0,0.6-0.4,0.4-0.7
				c-0.1-0.2-0.5-0.4-0.7-0.4c-0.3-0.1-0.6-0.1-0.9-0.1C45.8,82.9,45.6,83.2,45.8,83.3"/>
			<path class="st0" d="M41.2,84.6c-0.1,0.1-0.3,0.1-0.4,0.1c-0.2,0-0.4,0-0.6,0.1c-0.1,0.1-0.4,0.4-0.2,0.7c0.2,0.1,0.5,0.1,0.7,0
				c0.2-0.1,0.4-0.2,0.7-0.4C41.5,84.8,41.5,84.6,41.2,84.6"/>
			<path class="st0" d="M40.3,81.8c-0.1-0.1-0.4-0.1-0.5-0.1c-0.2-0.1-0.4-0.1-0.6-0.1c-0.3,0.1-0.5,0.4-0.3,0.7
				c0.1,0.1,0.4,0.1,0.5,0.1c0.2,0,0.4-0.1,0.6,0C40.3,82.4,40.6,81.8,40.3,81.8"/>
			<path class="st0" d="M26.5,33.5c3.2,1.3,6.6,1.2,9.9,0.7c0.3-0.1,0.5-0.7,0.1-0.7c-3.3,0.2-6.6,0.7-9.8-0.4
				C26.5,33.1,26.3,33.5,26.5,33.5"/>
			<path class="st0" d="M19.2,23.6c-0.1-0.2-0.1-0.4-0.1-0.6s0.1-0.4,0.1-0.6c0-0.1-0.1-0.3-0.2-0.3c-0.2,0-0.4,0.1-0.4,0.3
				c-0.3,0.4-0.2,1.2,0.3,1.5C19,24,19.2,23.8,19.2,23.6"/>
			<path class="st0" d="M10.6,20.9c0-0.4,0-0.7-0.1-1c-0.1-0.1-0.1-0.3-0.3-0.4c-0.2-0.1-0.4-0.2-0.6-0.2C9.3,19.4,9,19.8,9.1,20
				s0.1,0.2,0.3,0.4c0.1,0.1,0.2,0.1,0.3,0.2c0.1,0.1,0.3,0.4,0.4,0.6C10.1,21.5,10.6,21.1,10.6,20.9"/>
			<path class="st0" d="M6.8,25.3c-0.4-0.1-0.7,0-0.8,0.4C5.9,25.8,6,26,6.2,25.9c0.1,0,0.1-0.1,0.2-0.1l0,0c0.1,0,0.1-0.1,0.1-0.1
				C6.8,25.6,7,25.3,6.8,25.3"/>
			<path class="st0" d="M12.3,24.7c-0.9-0.2-1.7,0.1-2.3,0.8c-0.5,0.6-1,1.8-0.5,2.5c0.3,0.4,0.8-0.1,0.8-0.4c0-0.6-0.1-1,0.1-1.5
				c0.3-0.6,1-0.9,1.6-0.9C12.3,25.3,12.5,24.8,12.3,24.7"/>
			<path class="st0" d="M59.5,12.9c-0.4-1.4-2-3-3.5-2.1c-0.2,0.1-0.5,0.7-0.1,0.7c0.7,0,1.1-0.1,1.8,0.2c0.6,0.3,1,0.9,1.4,1.4
				C59.2,13.5,59.6,13.1,59.5,12.9"/>
			<path class="st0" d="M62.5,13.2c0.4-0.1,0.8-0.2,1.2-0.2c0.5,0,0.7,0.3,1.2,0.5c0.4,0.2,1-0.3,0.8-0.7c-0.5-1.4-2.4-0.7-3.3-0.1
				C62.2,13,62.2,13.4,62.5,13.2"/>
			<path class="st0" d="M59.9,9.6c0.1-0.1,0.3-0.2,0.4-0.3c0.1-0.1,0.4-0.2,0.4-0.4c0.1-0.1,0.1-0.4-0.1-0.5
				c-0.3-0.1-0.5,0.1-0.7,0.3c-0.1,0.1-0.3,0.4-0.4,0.6C59.5,9.6,59.7,9.6,59.9,9.6"/>
			<path class="st0" d="M46.9,11.6c0.1,0.1,0.2,0.3,0.3,0.5c0.1,0.2,0,0.4,0.1,0.6c0,0.1,0.1,0.1,0.2,0.1c0.1-0.1,0.2-0.1,0.3-0.3
				c0.2-0.5-0.1-1-0.4-1.3C47.1,11.1,46.7,11.5,46.9,11.6"/>
			<path class="st0" d="M50.8,45c-2.3-5-2.9-10.2-2.9-15.6c0-0.7-0.7-0.1-0.8,0.2c-0.7,5.3,0.2,11.3,3.4,15.7
				C50.6,45.5,50.9,45.1,50.8,45"/>
			<path class="st13" d="M65.6,52c0.4,0.4,1.1,0.5,1.4,0.2c0.3-0.3,0.1-0.9-0.3-1.3c-0.4-0.4-1.1-0.5-1.4-0.2
				C65,51,65.2,51.6,65.6,52"/>
			<path class="st13" d="M58.1,53.4c0.4,0.4,1.1,0.5,1.4,0.2c0.3-0.3,0.2-1-0.3-1.4c-0.4-0.4-1.1-0.5-1.4-0.2
				C57.6,52.4,57.7,53,58.1,53.4"/>
			<path class="st13" d="M44.3,1.9C31.6,6,35.4,26.3,44.1,32.5c0.1,0.1,0.4-0.2,0.2-0.3c-8.2-6.3-12.5-25.6-0.1-30
				C44.4,2.2,44.4,1.9,44.3,1.9"/>
			<path class="st13" d="M44.4,2c-3.8-1.8-7.9-0.4-10.2,3.1c-0.1,0.2,0.1,0.3,0.3,0.1c2.4-3.4,5.9-4.4,9.7-3
				C44.4,2.3,44.6,2.1,44.4,2"/>
			<path class="st13" d="M34.4,2.5c-0.4,1.1-0.7,2.3,0,3.4c0.1,0.1,0.4-0.1,0.3-0.2c-0.5-1.1-0.4-2.1-0.1-3.2
				C34.7,2.3,34.5,2.4,34.4,2.5"/>
			<path class="st13" d="M34.5,2.5c-3.7,2.4-5.1,7-2.9,11.1c0.1,0.1,0.4-0.1,0.3-0.2c-1.8-4-0.9-7.9,2.7-10.6
				C34.6,2.6,34.5,2.4,34.5,2.5"/>
			<path class="st13" d="M37,31.8c1.9-2.1-0.6-3.7-2.5-4.4c-1.3-0.5-2.6-1-3.9-1.7c-1.7-1-2-2.6-1.8-4.4c0-0.3-0.4-0.1-0.4,0.1
				c-0.5,2,0.1,3.7,1.8,4.8c1.6,1.1,8.9,2.3,6.6,5.4C36.7,31.8,36.9,31.9,37,31.8"/>
			<path class="st13" d="M31.9,21.1c-0.9,0-2.2,0.8-2.9,0.1c-0.1-0.1-0.3,0.1-0.3,0.2c0.2,1,2.6-0.1,3.2-0.1
				C32,21.4,32,21.1,31.9,21.1"/>
			<path class="st13" d="M27.6,10.7c-1.2,4,0.6,9.1,4.4,10.9c0.1,0.1,0.3-0.2,0.2-0.3c-3.7-2-5.5-6.6-4.4-10.6
				C27.9,10.5,27.7,10.5,27.6,10.7"/>
			<path class="st13" d="M31.8,13.4c-1.6-0.3-2.9-1.7-3.7-3c-0.1-0.1-0.4,0.1-0.4,0.2c0.2,0.8,1,1.5,1.7,2c0.7,0.5,1.5,1,2.3,1
				C31.8,13.6,32,13.4,31.8,13.4"/>
			<path class="st13" d="M37,31.5c-4.3,1-9.5,1.7-13.5-0.7c-0.3-0.1-0.7,0.4-0.4,0.5c3.7,2.3,10,2.3,13.9,0.4
				C37.1,31.6,37.2,31.5,37,31.5"/>
			<path class="st13" d="M27.7,32.4c-3.7-0.4-5.2-4.5-6.7-7.3c-0.1-0.1-0.4,0.1-0.3,0.2c1,2.9,3.3,7.3,6.9,7.3
				C27.7,32.6,27.8,32.4,27.7,32.4"/>
			<path class="st13" d="M21.4,25.8c0.1-1.2,1.2-2.3,1.2-3.7c0-1.2-1.3-1.6-2.3-1.6c-1.1,0-2.4,0.5-2.9,1.5c-0.6,1.1-0.4,2.4,0.8,3
				c0.1,0.1,0.4-0.3,0.2-0.4c-1.2-0.9-1.3-2.3,0-3.2c1-0.6,2.3-0.7,3.2,0c1.4,1-0.5,3.2-0.4,4.5C21.2,26.1,21.4,25.9,21.4,25.8"/>
			<path class="st13" d="M17.5,24.4c-0.6,1-1,1.7-2.1,2.2c-1.2,0.6-2.4,0.6-3.4-0.1c-0.2-0.1-0.4,0.2-0.3,0.4c0.9,1,2.5,0.8,3.6,0.3
				c1.2-0.6,2.1-1.4,2.4-2.7C17.8,24.2,17.5,24.3,17.5,24.4"/>
			<path class="st13" d="M15.6,26.6c-1-0.3-1.3-1.5-1.8-2.3c-0.4-0.9-1.3-1.5-2.3-1.6c-0.3,0-0.5,0.5-0.1,0.5c2.3,0.3,2,3.2,4.1,3.6
				C15.6,26.9,15.8,26.6,15.6,26.6"/>
			<path class="st13" d="M9.5,23.2c-1.9,1.2-2.6,3.4-1.9,5.5c0.1,0.3,0.5-0.1,0.4-0.4c-0.7-1.8-0.1-3.7,1.5-4.7
				C9.9,23.5,9.9,23,9.5,23.2"/>
			<path class="st13" d="M8.5,29.9c3,2.6,8.1,1.2,10.8-1.2c0.2-0.2,0.1-0.6-0.2-0.4c-2.7,2.1-7.3,3.7-10.2,1.2
				C8.7,29.3,8.3,29.8,8.5,29.9"/>
			<path class="st13" d="M11.6,22.8c-0.7-0.7-0.1-1.6-0.1-2.4c0-0.6-0.1-1.1-0.6-1.5c-0.7-0.8-2.2-0.4-3,0c-0.9,0.4-1.6,1.6-1.5,2.6
				c0.1,0.6,0.4,1,0.8,1.3c0.7,0.4,1.5-0.1,2.1,0.6c0.2,0.3,0.7-0.1,0.5-0.4c-0.6-0.9-1.8-0.4-2.5-1c-1.2-1,0.3-2.7,1.3-3.1
				c1.2-0.4,2.3,0.2,2.3,1.5c0,0.9-0.4,2,0.4,2.5C11.5,23.1,11.7,23,11.6,22.8"/>
			<path class="st13" d="M8,25.2C8.1,24.4,7.4,24,6.7,24c-0.8,0-1.6,0.5-2.1,1.1c-0.5,0.7-0.4,1.8,0.1,2.4c0.4,0.4,1,0.4,1.4,0.2
				c0.6-0.2,1-0.8,1.3-1.2c0.3-0.2,0.1-0.7-0.2-0.4c-0.6,0.5-1.1,1.5-2.1,1c-0.7-0.4-0.7-1.5-0.2-2c0.4-0.4,1-0.7,1.6-0.7
				c0.6,0,0.9,0.4,1.1,0.9C7.9,25.5,8,25.3,8,25.2"/>
			<path class="st13" d="M8.7,29.6c-0.4,0-0.7,0.3-1,0.4c-0.5,0.4-1,0.9-1.5,1.2c-0.8,0.4-1.1-0.8-0.8-1.3c0.4-1,1.5-1.1,2.4-0.9
				c0.2,0.1,0.5-0.3,0.3-0.4c-0.7-0.7-1.9-0.1-2.6,0.4c-0.7,0.6-1,1.5-0.5,2.4c1,1.8,2.7-1.6,3.6-1.6C8.8,29.8,8.9,29.6,8.7,29.6"/>
			<path class="st13" d="M34.6,44.5c-3-2.5-7-3.4-10.1-5.7c-3.5-2.5-3.7-6.6-5.4-10.2c-0.1-0.3-0.5,0.1-0.4,0.3c1,3.4,2,7.2,4.5,9.7
				c3.1,3,7.8,3.6,11.2,6.1C34.5,44.8,34.8,44.5,34.6,44.5"/>
			<path class="st13" d="M41.4,29.6c5.9-1.9,8.7-11.3,4-15.7c-0.1-0.1-0.5,0.2-0.4,0.4c4,5.3,2.1,11.9-3.6,15.1
				C41.4,29.4,41.3,29.6,41.4,29.6"/>
			<path class="st13" d="M48.6,13.4c1.5-2.2-1.4-3.4-3.2-3.2c-1,0.1-2.1,0.7-2.1,1.8c-0.1,1.1,0.7,2.4,1.8,2.5
				c0.2,0,0.4-0.4,0.2-0.5c-0.9-0.4-1.6-0.9-1.6-2c0-1.2,1.4-1.4,2.2-1.4c0.7,0,1.5,0.2,2.1,0.7c0.7,0.5,0.8,1.3,0.4,2.1
				C48.4,13.4,48.5,13.5,48.6,13.4"/>
			<path class="st13" d="M55.9,12.5c-1.7,2.1-5.1,2.2-7,0.4c-0.2-0.2-0.6,0.2-0.4,0.4c2.1,2.1,5.9,1.6,7.5-0.7
				C56.2,12.5,56,12.4,55.9,12.5"/>
			<path class="st13" d="M52.3,14.3c1.5-1.2,1-3.5,3.1-4.3c2-0.8,4.5,1.2,5.1,2.9c0.1,0.2,0.5-0.1,0.4-0.4c-0.8-1.9-3-3.2-5.1-3
				c-2.6,0.2-2.3,3.3-3.7,4.7C52.1,14.3,52.2,14.4,52.3,14.3"/>
			<path class="st13" d="M60.4,14.7c-1.5,2.9-5.3,1.2-7.7,2.1c-0.2,0.1-0.3,0.6,0,0.5c2.7-1,6.5,0.7,8.1-2.5
				C61,14.5,60.6,14.4,60.4,14.7"/>
			<path class="st13" d="M56.6,9.8c0.4-0.5,0.7-1.2,0.6-1.9c-0.1-0.7-1-1-1.5-0.9c-0.7,0.1-1.5,0.7-1.8,1.5
				c-0.2,0.8,0.7,1.4,1.3,1.6c0.2,0.1,0.4-0.2,0.4-0.4c-0.2-0.4-0.9-0.4-1.2-0.8c-0.4-0.6,0.8-1.3,1.2-1.3c1.5-0.1,1.2,1.3,0.8,2.2
				C56.4,9.9,56.5,9.9,56.6,9.8"/>
			<path class="st13" d="M59.8,11.2c1.4,0,3.7-2,2-3.2C61,7.4,60,7.4,59.2,8c-0.6,0.4-1.2,1.6-1,2.3c0.1,0.2,0.4,0,0.4-0.1
				c0.2-0.6,0.1-1.2,0.5-1.7c0.5-0.7,1.3-0.6,2-0.3c1.7,1-0.6,2.3-1.5,2.6C59.8,11,59.6,11.2,59.8,11.2"/>
			<path class="st13" d="M60.7,12.8c1-0.3,1.8-1,2.8-1.4c1.9-0.7,3.3,1.4,2.9,3.1c-0.4,1.8-2.5,2-3.7,1.2c-0.8-0.5-1.2-1.1-2.2-1.2
				c-0.3,0-0.5,0.5-0.1,0.6c1.6,0.1,2.3,2,4.2,1.6c1.3-0.3,2.2-1.2,2.5-2.6s-0.5-2.6-1.7-3.2c-1.7-0.8-3.3,0.8-4.6,1.5
				C60.6,12.6,60.6,12.9,60.7,12.8"/>
			<path class="st13" d="M53.1,16.8c-1.2,0.6-2,2.2-2.5,3.4c-1,2.6-1.3,5.4-1.4,8.1C49,33.8,49.3,40,52,44.8
				c0.1,0.2,0.4-0.1,0.4-0.3c-1.6-4.5-2.6-8.9-2.6-13.7c-0.1-2.1,0-4.3,0.3-6.4s1.1-6.1,3.1-7.4C53.2,17,53.3,16.7,53.1,16.8"/>
			<path class="st0" d="M45.2,9.5c-0.9,0.7,2.1,2.6-0.4,2.4C42.9,11.8,43.8,9.6,45.2,9.5L45.2,9.5z"/>
			<path class="st13" d="M45.2,9.4c-0.8,0.6,0.4,1.5,0.4,2.2c0.1-0.1,0.1-0.1,0-0.1s-0.1,0-0.2,0.1c-0.2,0-0.4,0-0.7-0.1
				c-0.4-0.1-0.7-0.3-0.7-0.7C43.8,10.2,44.7,9.7,45.2,9.4c0.1,0,0.3-0.4,0-0.4c-0.7-0.1-1.5,0.9-1.7,1.5c-0.3,0.9,0.4,1.5,1.2,1.5
				c0.5,0.1,1.5-0.1,1.2-0.9C45.8,10.8,44.9,9.8,45.2,9.4C45.3,9.5,45.3,9.3,45.2,9.4"/>
			<path class="st0" d="M20.2,19.5c1.8,0.6,1,3.1-0.4,2.3C18.9,21.2,20.5,20.3,20.2,19.5L20.2,19.5z"/>
			<path class="st13" d="M20.1,19.7c0.6,0.2,0.9,0.7,0.9,1.2c0,0.4-0.2,0.9-0.7,0.9c-0.2,0-0.5-0.2-0.6-0.4
				c-0.1-0.2,0.2-0.5,0.4-0.7c0.2-0.4,0.5-0.9,0.1-1.2c-0.1-0.1-0.4,0.1-0.4,0.3c0.1,0.4-0.1,0.7-0.3,1c-0.1,0.2-0.3,0.5-0.3,0.8
				c0.1,0.6,0.8,0.8,1.3,0.6c0.5-0.2,0.7-0.8,0.7-1.3c0-0.7-0.5-1.2-1.1-1.4C20.1,19.5,20,19.6,20.1,19.7"/>
			<path class="st13" d="M8.5,18.7c-0.1-0.2-0.2-0.5-0.4-0.7c-0.2-0.1-0.6,0-0.7,0.1C7.1,18.3,7,18.6,7,18.9c0,0.2,0,0.7,0.3,0.7
				c0.1,0.1,0.4-0.1,0.3-0.3c0-0.1-0.1-0.3-0.2-0.4c0-0.1,0-0.4,0.1-0.5c0.2-0.1,0.3-0.1,0.4,0.1c0.1,0.1,0.2,0.3,0.4,0.4
				C8.5,18.9,8.6,18.8,8.5,18.7"/>
			<path class="st13" d="M4.8,25.4c-0.4,0.1-0.7-0.1-1.1,0.1c-0.4,0.1-0.5,0.5-0.4,0.9C3.3,27,4.4,27.5,4.8,27
				c0.1-0.1,0.1-0.3,0-0.4c-0.1-0.1-0.1,0-0.3,0c-0.1,0-0.2,0-0.3,0c-0.2-0.1-0.4-0.1-0.5-0.4S3.8,26,4,25.9
				c0.3-0.1,0.5-0.1,0.8-0.2C4.8,25.5,4.9,25.3,4.8,25.4"/>
			<path class="st13" d="M5.5,31.3c-0.3,0.1-0.6,0-0.7-0.2c-0.1-0.1-0.1-0.2-0.1-0.3c0-0.1,0.2-0.1,0.3-0.2c0.1-0.1,0.2-0.4,0-0.4
				c-0.5,0.1-0.8,0.7-0.6,1.1c0.2,0.4,0.8,0.5,1.2,0.3C5.7,31.5,5.7,31.2,5.5,31.3"/>
			<path class="st13" d="M56.2,7.2c0.1-0.2,0.1-0.5-0.1-0.7c-0.1-0.1-0.4-0.1-0.7-0.1c-0.2,0.1-0.5,0.2-0.7,0.4
				c-0.1,0.2-0.1,0.5,0.1,0.7c0.1,0.1,0.3-0.1,0.2-0.2C55,7.1,54.9,7,55,6.9c0.1-0.1,0.2-0.1,0.4-0.1c0.4-0.1,0.6,0.2,0.5,0.5
				C55.9,7.4,56.2,7.4,56.2,7.2"/>
			<path class="st13" d="M62,8.5c0.4-0.2,0.7-0.7,0.3-1.1c-0.4-0.4-1,0.1-1.2,0.5c-0.1,0.2,0.1,0.2,0.2,0.1c0.1-0.2,0.4-0.5,0.7-0.3
				c0.2,0.1,0.1,0.4-0.1,0.6C61.8,8.3,61.8,8.5,62,8.5"/>
			<path class="st13" d="M66.7,14.6c0.7,0.2,1.2-0.5,1.2-1.2c0-0.7-0.7-1.2-1.4-0.7c-0.1,0.1-0.1,0.4,0,0.3c0.2,0,0.4-0.1,0.6,0
				c0.2,0.1,0.3,0.3,0.3,0.5c0.1,0.5-0.2,0.8-0.7,0.9C66.7,14.4,66.6,14.6,66.7,14.6"/>
			<path class="st13" d="M64.1,43.9c-5.1-1.2-10.5-1.2-13.8,3.4c-0.1,0.2,0.1,0.4,0.3,0.2c3.6-4.3,8.2-4.5,13.3-3.4
				C64.1,44.1,64.2,43.9,64.1,43.9"/>
			<path class="st13" d="M64.1,43.9c-1.3,0.1-2.7,0.7-3.2,2.1c-0.1,0.2,0.2,0.1,0.3,0.1c0.6-1.2,1.6-1.7,2.9-1.9
				C64.1,44,64.1,43.9,64.1,43.9"/>
			<path class="st13" d="M66.4,46.3c-1.4-1-3-1.5-4.8-1.5c-0.1,0-0.3,0.4-0.1,0.4c1.7,0.1,3.2,0.4,4.7,1.4
				C66.3,46.6,66.6,46.4,66.4,46.3"/>
			<path class="st13" d="M66.5,46.4c-1-0.4-2.5,0-3,1c-0.1,0.2,0.1,0.4,0.2,0.2c0.8-0.7,1.6-1,2.7-1C66.5,46.7,66.6,46.5,66.5,46.4"
				/>
			<path class="st13" d="M63.6,47.4c-0.1,0.4-0.1,0.8-0.1,1.2c0.1,0.4,0.1,1,0.3,1.5c0.1,0.2,0.4-0.1,0.4-0.2
				c0.1-0.4-0.1-0.8-0.1-1.2c-0.1-0.4-0.2-0.9-0.2-1.4C63.8,47.2,63.6,47.3,63.6,47.4"/>
			<path class="st13" d="M63.3,54.7c1.2,1.2,3,1.7,4.5,0.6c1.5-1.1,1.1-3.3,0.1-4.5c-1.1-1.4-3.1-1.7-4.5-0.6
				C62,51.3,62.3,53.4,63.3,54.7c0.1,0.1,0.5-0.2,0.4-0.4c-0.9-1.2-1.2-2.8-0.1-3.9c1.1-1,2.8-0.4,3.7,0.4c1.1,1,1.4,3,0.2,4.1
				c-1.2,1.1-3,0.4-4-0.7C63.6,54.1,63.2,54.6,63.3,54.7"/>
			<path class="st13" d="M55.6,56c1.2,1.3,3.2,1.8,4.7,0.7c1.5-1.2,1.1-3.5,0.1-4.8c-1.2-1.5-3.3-1.8-4.8-0.7
				C54.1,52.3,54.5,54.6,55.6,56c0.1,0.1,0.5-0.2,0.4-0.4c-1-1.2-1.4-2.9-0.1-4.2c1.2-1.1,2.9-0.4,4,0.5c1.2,1.1,1.5,3.2,0.4,4.3
				c-1.2,1.2-3.2,0.3-4.2-0.7C55.8,55.4,55.4,55.8,55.6,56"/>
			<path class="st13" d="M73,56.1c-1.9,0.1-3.5-0.2-5.3-0.9c-0.2-0.1-0.5,0.3-0.3,0.4c1.6,0.9,3.7,1,5.6,0.7
				C73.1,56.3,73.2,56.1,73,56.1"/>
			<path class="st13" d="M72.4,56.3c2.1-0.7,4.3-0.7,6.4-0.6c2.2,0.2,7.5,1.8,3.6,4.3c-1.9,1.2-4.6,1.2-6.7,0.8
				c-1.2-0.2-2.2-0.7-3.2-1.4C71.7,59,70.5,58,71.6,57c0.4-0.4,1.2-0.7,1.7-0.9c0.1-0.1,0.3-0.5,0-0.4c-0.9,0.3-2.1,0.7-2.5,1.7
				c-0.5,1.3,0.7,2.3,1.7,2.9c2.6,1.8,6.7,1.8,9.6,0.5c1.9-0.9,3.1-3.1,1-4.3c-2.9-1.7-7.7-1.3-10.6-0.3
				C72.2,56.1,72.1,56.4,72.4,56.3"/>
			<path class="st13" d="M78.7,61.3c-1.9,5-6.9,8.1-12.2,8.4c-2,0.1-4-0.4-5.6-1.5c-2.1-1.5-2.3-3.8-2.1-6.2c0-0.2-0.3-0.1-0.4,0.1
				c-1.2,5.3,3.1,8.1,7.9,8.1c5.3-0.1,11-3.7,12.5-8.9C79,61.1,78.7,61.2,78.7,61.3"/>
			<path class="st13" d="M59.1,65.9c-1.7-1.8-4.2-3.7-6.9-3c-0.2,0.1-0.4,0.5-0.1,0.5c2.8-0.3,4.7,1.1,6.8,2.7
				C59,66.2,59.2,66,59.1,65.9"/>
			<path class="st13" d="M53.2,51.6c-2.9,3.5-13.6,4.7-13.8-1.6c0-0.4-0.4-0.1-0.5,0.1c-1.5,6.5,12.5,6.3,14.4,1.6
				C53.4,51.6,53.2,51.6,53.2,51.6"/>
			<path class="st13" d="M51.6,47.3c-3.4,0.1-6.5-1.2-7.7-4.7c-0.1-0.3-0.4,0-0.4,0.1c-0.1,3.7,5.1,5.4,8.1,4.8
				C51.7,47.6,51.8,47.3,51.6,47.3"/>
			<path class="st13" d="M43.7,42.5c-3.5,1.1-5.3,5.4-4.8,8.8c0,0.3,0.4,0,0.4-0.1c0.1-3.4,1-6.9,4.5-8.4
				C43.8,42.7,43.8,42.5,43.7,42.5"/>
			<path class="st13" d="M61.7,43.7c3.5-2.4,3.7-7.7,0.2-10.3c-0.1-0.1-0.4,0.2-0.3,0.4c3,2.7,3.3,7,0,9.7
				C61.5,43.5,61.5,43.7,61.7,43.7"/>
			<path class="st13" d="M57.3,43.4c1.4-2.7-1.3-6-4-6.6c-0.2-0.1-0.5,0.3-0.2,0.4c2.3,1.2,5,3.2,4,6.1C57,43.5,57.3,43.5,57.3,43.4
				"/>
			<path class="st13" d="M61.9,33.3c-3.5-0.9-6.7,0.8-8.9,3.5c-0.2,0.3,0.1,0.5,0.3,0.3c2.2-2.7,5-4,8.4-3.5
				C61.9,33.6,62,33.3,61.9,33.3"/>
			<path class="st13" d="M53,64c-2.8-2.1-3.8-6.7-2.8-10c0.1-0.4-0.4-0.3-0.4-0.1c-1.4,3.2-0.2,8.6,3,10.3
				C52.9,64.4,53.2,64.1,53,64"/>
			<path class="st13" d="M53,63.3c0,0.1,0,0.3-0.1,0.4c-0.1,0.1-0.1,0.2-0.2,0.4c-0.1,0.1,0.1,0.3,0.2,0.1c0.3-0.3,0.4-0.7,0.3-1.1
				C53.2,63.1,53.1,63.2,53,63.3"/>
			<path class="st13" d="M53,64c-0.5,0.3-1,0.5-1.5,0.6c-0.7,0.1-1.2,0-1.8,0c-0.2,0-0.4,0.4-0.2,0.4c1.2,0.5,2.7,0,3.7-0.8
				C53.2,64.2,53.2,64,53,64"/>
			<path class="st13" d="M49.9,64.8c-2.1-3.1-2.6-6.5-1.7-10.2c0.1-0.3-0.3-0.2-0.4,0c-1.2,3.2-0.7,8.1,1.8,10.4
				C49.7,65.2,49.9,65,49.9,64.8"/>
			<path class="st13" d="M49.8,64.5c-3,0.1-4.4,4.5-5.1,6.8c-0.6,1.9-1,4-1.2,5.9c-0.1,1.2-0.4,2.8-0.1,4.1c0.1,0.3,0.4,0,0.4-0.2
				c-0.5-2.6,0.3-5.8,0.9-8.3c0.7-2.8,1.8-7.3,5.1-8.1C49.9,64.7,49.9,64.5,49.8,64.5"/>
			<path class="st13" d="M29.1,41.7c2.9,2.5,4.8,5.8,6.7,9c1.7,3,3.4,6.2,4.2,9.6c0.7,3.1,0.3,6.3,0.1,9.5c-0.1,4,0.1,8.2,1.3,12.1
				c0.1,0.3,0.4,0,0.4-0.2c-0.8-4.5-1.3-8.8-1.1-13.3c0.1-3.1,0.3-6.1-0.4-9.1C39.5,56,37.7,52.9,36,50c-1.7-2.9-3.7-6.7-6.7-8.4
				C29.1,41.5,29,41.7,29.1,41.7"/>
			<path class="st13" d="M43.6,80.3c1.2-0.3,1.8-1.6,3.2-1.3c1.3,0.3,1.8,1.9,0.4,2.5c-0.6,0.2-1.3,0.1-1.9,0.3
				c-0.1,0-0.4,0.4-0.1,0.4c0.9,0.1,1.9-0.1,2.6-0.5c0.7-0.4,1.1-1.4,0.7-2.1c-0.4-1-1.5-1.3-2.6-1.1c-0.9,0.2-1.8,1-2.4,1.5
				C43.4,80.1,43.4,80.3,43.6,80.3"/>
			<path class="st13" d="M45.2,82.1c0.8,0.3,4,1.2,3.4,2.5c-0.4,0.8-1.7,1.1-2.5,1.1c-1.2-0.1-1.7-1-2.3-1.8
				c-0.1-0.2-0.4,0.1-0.4,0.3c0.4,2.5,3.9,2.6,5.3,1C50.2,83.2,46.5,82.4,45.2,82.1C45.2,81.8,45.1,82.1,45.2,82.1"/>
			<path class="st13" d="M43.4,84.2c-0.1,1.7-1.7,3.1-3.4,2.6c-0.7-0.2-2.3-1.5-1.2-2.2c0.7-0.4,1.8-0.4,2.6-0.6
				c0.2,0,0.4-0.4,0.1-0.4c-1,0-2.9,0.1-3.4,1.2c-0.5,1,0.4,1.9,1.2,2.3c1.8,0.9,4.9-0.8,4.3-3C43.6,84,43.4,84,43.4,84.2"/>
			<path class="st13" d="M40.5,83.9c-1-0.1-3.1-0.1-3.4-1.3c-0.2-0.7,0.4-1.5,1-1.7c0.4-0.1,1,0.1,1.5,0.1c0.6,0.1,1.2,0.2,1.8-0.1
				c0.1-0.1,0.2-0.4,0-0.4c-1.1,0.2-2.1-0.4-3.2-0.2c-0.7,0.1-1.5,1.1-1.5,1.8c-0.1,1.8,2.5,2.1,3.9,1.9
				C40.5,84.1,40.6,83.9,40.5,83.9"/>
			<path class="st13" d="M59.9,61.7c-0.8-0.5-1.9-0.7-2.6,0c-0.1,0.1-0.1,0.5,0.1,0.4c0.8-0.4,1.5-0.5,2.4-0.1
				C59.8,62,60,61.8,59.9,61.7"/>
			<path class="st13" d="M68.1,48.7c-1-0.9-2.7-1.5-4-0.6c-0.2,0.1-0.1,0.5,0.1,0.4c1.2-0.6,2.5-0.2,3.6,0.5
				C68,49.1,68.3,48.8,68.1,48.7"/>
			<path class="st13" d="M60.2,49.8c-0.9-1.1-2.6-2-4-1.1c-0.1,0.1-0.3,0.6,0,0.4c0.7-0.1,1.2-0.3,1.9-0.1c0.7,0.1,1.2,0.6,1.8,1
				C60,50.2,60.3,49.9,60.2,49.8"/>
			<path class="st13" d="M76.5,55.6c1-1,2.5-2.3,2.5-3.8c0-1.4-0.7-2.7-2.3-2.9c-4.5-0.4-4.3,5.3-7.4,7c-0.2,0.1-0.2,0.5,0.1,0.4
				c1.9-0.9,2.6-3,3.5-4.8c1-1.7,2.9-2.9,4.7-1.8c2.6,1.4-0.1,4.4-1.2,5.7C76.2,55.6,76.4,55.7,76.5,55.6"/>
			<path class="st13" d="M75.4,53c-0.2,0.5-0.5,1-0.8,1.5c-0.4,0.6-0.9,1-1.5,1.4c-0.1,0.1-0.2,0.4,0,0.4c1.4-0.4,1.9-2,2.4-3.2
				C75.7,53,75.5,53,75.4,53"/>
			<path class="st13" d="M73.2,63.6c-0.1,0.2-0.1,0.4,0.1,0.4c0.1,0.1,0.3-0.1,0.4-0.2c0.1-0.2,0.1-0.4-0.1-0.4
				C73.5,63.3,73.3,63.4,73.2,63.6"/>
			<path class="st13" d="M70.7,65.7c-0.1,0.2-0.1,0.4,0.1,0.4c0.1,0.1,0.3-0.1,0.4-0.2c0.1-0.2,0.1-0.4-0.1-0.4
				C71,65.4,70.8,65.5,70.7,65.7"/>
			<path class="st13" d="M70.4,63.4c-0.1,0.2-0.1,0.4,0.1,0.4c0.1,0.1,0.3-0.1,0.4-0.2c0.1-0.2,0.1-0.4-0.1-0.4
				C70.6,63.1,70.5,63.1,70.4,63.4"/>
			<path class="st13" d="M68.3,65.4c-0.1,0.2-0.1,0.4,0.1,0.4s0.3-0.1,0.4-0.2c0.1-0.2,0.1-0.4-0.1-0.4
				C68.5,65.1,68.3,65.3,68.3,65.4"/>
			<path class="st13" d="M78.1,38.4c-0.1-1,0.5-1.2,1.5-1.3c0.9,0,1.8,0.4,2,1.2c0.5,2.8-3.7,1.2-4.9,1.2c-0.3,0-0.6,0.7-0.2,0.7
				c1.4,0.1,2.8,0.7,4.2,0.4c1.2-0.4,1.8-1.9,1.3-3c-1-2.1-5.4-0.6-4,1C77.9,38.7,78.1,38.5,78.1,38.4"/>
			<path class="st13" d="M77.9,37.9c-1.3-2-4.1-1.1-5.9-0.5c-0.1,0.1-0.4,0.5-0.1,0.5c2.1-0.2,4-1.4,5.9,0.2
				C77.8,38.2,77.9,38,77.9,37.9"/>
			<path class="st13" d="M71.7,37.6c0.5-1,0.4-2.3-0.4-3.1c-0.8-0.9-2.1-0.3-2.7,0.4c-0.7,0.7-1.1,1.7-0.4,2.6
				c0.3,0.4,0.7,0.7,1.1,1c0.4,0.3,0.8,0.9,1.2,1.1c0.2,0.1,0.4-0.1,0.4-0.4c-0.1-0.5-0.7-0.9-1.1-1.2c-0.5-0.4-1.2-0.8-1.5-1.5
				c-0.3-1.1,1.3-2.2,2.3-1.8c1.1,0.4,1.1,2,0.9,2.9C71.5,37.8,71.6,37.7,71.7,37.6"/>
			<path class="st13" d="M76.5,39.7c-1.8,0.5-3.5,1.7-5.1,2.7c-1.6,1-3.4,2.1-4.8,3.4c-0.1,0.1-0.1,0.4,0.1,0.3
				c3.2-2.1,6.2-4.8,9.8-6.2C76.5,39.8,76.5,39.7,76.5,39.7"/>
			<path class="st13" d="M71.4,38.9c-2.4,2.1-5.1,4-7.5,6.2c-0.1,0.1-0.1,0.5,0.1,0.4c2.7-1.8,5.1-4.2,7.5-6.3
				C71.6,39,71.6,38.8,71.4,38.9"/>
			<path class="st13" d="M55.6,12.6c0.1,0.1,0.3,0.1,0.4,0.2c0.1,0.1,0.1,0.3,0.3,0.4c0.1,0.2,0.4-0.1,0.4-0.2
				c0-0.4-0.5-0.7-0.9-0.7C55.7,12.4,55.6,12.5,55.6,12.6"/>
			<path class="st13" d="M12.1,26.1c-0.2,0.1-0.4,0.2-0.7,0.4c-0.1,0.1-0.3,0.4-0.2,0.6c0.1,0.1,0.3-0.1,0.3-0.1
				c0.1-0.1,0-0.2,0.1-0.4c0.1-0.1,0.3-0.2,0.4-0.3C12.2,26.2,12.3,26,12.1,26.1"/>
		</g>
		<g>
			<path class="st13" d="M54.3,67c0,0.9-0.7,1.6-1.7,1.6S51,67.9,51,67c0-0.9,0.7-1.6,1.7-1.6S54.3,66.2,54.3,67 M51.4,67
				c0,0.7,0.5,1.3,1.2,1.3s1.2-0.6,1.2-1.3c0-0.7-0.5-1.3-1.2-1.3C51.9,65.8,51.4,66.4,51.4,67 M52.3,67.9H52v-1.6
				c0.1,0,0.4-0.1,0.7-0.1s0.4,0.1,0.6,0.1c0.1,0.1,0.1,0.2,0.1,0.4c0,0.2-0.1,0.3-0.4,0.4l0,0c0.1,0.1,0.2,0.1,0.3,0.4
				c0.1,0.2,0.1,0.4,0.1,0.4h-0.4c-0.1-0.1-0.1-0.2-0.1-0.4c0-0.1-0.1-0.2-0.4-0.2h-0.1L52.3,67.9L52.3,67.9z M52.4,67h0.1
				c0.2,0,0.4-0.1,0.4-0.2c0-0.1-0.1-0.2-0.4-0.2c-0.1,0-0.1,0-0.2,0L52.4,67L52.4,67z"/>
		</g>
	</g>
</g>
</svg>
